  0
SECTION
  2
HEADER
  9
$ACADVER
  1
AC1009
  9
$DWGCODEPAGE
  3
undefined
  9
$INSBASE
 10
0.0
 20
0.0
 30
0.0
  9
$EXTMIN
 10
1.000000000000000E+20
 20
1.000000000000000E+20
 30
1.000000000000000E+20
  9
$EXTMAX
 10
-1.000000000000000E+20
 20
-1.000000000000000E+20
 30
-1.000000000000000E+20
  9
$LIMMIN
 10
0.0
 20
0.0
  9
$LIMMAX
 10
12.0
 20
9.0
  9
$ORTHOMODE
 70
     0
  9
$REGENMODE
 70
     1
  9
$FILLMODE
 70
     1
  9
$QTEXTMODE
 70
     0
  9
$MIRRTEXT
 70
     1
  9
$DRAGMODE
 70
     2
  9
$LTSCALE
 40
1.0
  9
$OSMODE
 70
    37
  9
$ATTMODE
 70
     1
  9
$TEXTSIZE
 40
0.2
  9
$TRACEWID
 40
0.05
  9
$TEXTSTYLE
  7
STANDARD
  9
$CLAYER
  8
0
  9
$CELTYPE
  6
BYLAYER
  9
$CECOLOR
 62
   256
  9
$DIMSCALE
 40
1.0
  9
$DIMASZ
 40
0.18
  9
$DIMEXO
 40
0.0625
  9
$DIMDLI
 40
0.38
  9
$DIMRND
 40
0.0
  9
$DIMDLE
 40
0.0
  9
$DIMEXE
 40
0.18
  9
$DIMTP
 40
0.0
  9
$DIMTM
 40
0.0
  9
$DIMTXT
 40
0.18
  9
$DIMCEN
 40
0.09
  9
$DIMTSZ
 40
0.0
  9
$DIMTOL
 70
     0
  9
$DIMLIM
 70
     0
  9
$DIMTIH
 70
     1
  9
$DIMTOH
 70
     1
  9
$DIMSE1
 70
     0
  9
$DIMSE2
 70
     0
  9
$DIMTAD
 70
     0
  9
$DIMZIN
 70
     0
  9
$DIMBLK
  1

  9
$DIMASO
 70
     1
  9
$DIMSHO
 70
     1
  9
$DIMPOST
  1

  9
$DIMAPOST
  1

  9
$DIMALT
 70
     0
  9
$DIMALTD
 70
     2
  9
$DIMALTF
 40
25.4
  9
$DIMLFAC
 40
1.0
  9
$DIMTOFL
 70
     0
  9
$DIMTVP
 40
0.0
  9
$DIMTIX
 70
     0
  9
$DIMSOXD
 70
     0
  9
$DIMSAH
 70
     0
  9
$DIMBLK1
  1

  9
$DIMBLK2
  1

  9
$DIMSTYLE
  2
STANDARD
  9
$DIMCLRD
 70
     0
  9
$DIMCLRE
 70
     0
  9
$DIMCLRT
 70
     0
  9
$DIMTFAC
 40
1.0
  9
$DIMGAP
 40
0.09
  9
$LUNITS
 70
     2
  9
$LUPREC
 70
     4
  9
$SKETCHINC
 40
0.1
  9
$FILLETRAD
 40
0.5
  9
$AUNITS
 70
     0
  9
$AUPREC
 70
     0
  9
$MENU
  1
.
  9
$ELEVATION
 40
0.0
  9
$PELEVATION
 40
0.0
  9
$THICKNESS
 40
0.0
  9
$LIMCHECK
 70
     0
  9
$CHAMFERA
 40
0.0
  9
$CHAMFERB
 40
0.0
  9
$SKPOLY
 70
     0
  9
$TDCREATE
 40
2457177.942048611
  9
$TDUPDATE
 40
2457177.942048611
  9
$TDINDWG
 40
0.0000000116
  9
$TDUSRTIMER
 40
0.0000000116
  9
$USRTIMER
 70
     1
  9
$ANGBASE
 50
0.0
  9
$ANGDIR
 70
     0
  9
$PDMODE
 70
     0
  9
$PDSIZE
 40
0.0
  9
$PLINEWID
 40
0.0
  9
$COORDS
 70
     1
  9
$SPLFRAME
 70
     0
  9
$SPLINETYPE
 70
     6
  9
$SPLINESEGS
 70
     8
  9
$ATTDIA
 70
     0
  9
$ATTREQ
 70
     1
  9
$HANDLING
 70
     1
  9
$HANDSEED
  5
10000097
  9
$SURFTAB1
 70
     6
  9
$SURFTAB2
 70
     6
  9
$SURFTYPE
 70
     6
  9
$SURFU
 70
     6
  9
$SURFV
 70
     6
  9
$UCSNAME
  2

  9
$UCSORG
 10
0.0
 20
0.0
 30
0.0
  9
$UCSXDIR
 10
1.0
 20
0.0
 30
0.0
  9
$UCSYDIR
 10
0.0
 20
1.0
 30
0.0
  9
$PUCSNAME
  2

  9
$PUCSORG
 10
0.0
 20
0.0
 30
0.0
  9
$PUCSXDIR
 10
1.0
 20
0.0
 30
0.0
  9
$PUCSYDIR
 10
0.0
 20
1.0
 30
0.0
  9
$USERI1
 70
     0
  9
$USERI2
 70
     0
  9
$USERI3
 70
     0
  9
$USERI4
 70
     0
  9
$USERI5
 70
     0
  9
$USERR1
 40
0.0
  9
$USERR2
 40
0.0
  9
$USERR3
 40
0.0
  9
$USERR4
 40
0.0
  9
$USERR5
 40
0.0
  9
$WORLDVIEW
 70
     1
  9
$SHADEDGE
 70
     3
  9
$SHADEDIF
 70
    70
  9
$TILEMODE
 70
     1
  9
$MAXACTVP
 70
    64
  9
$PLIMCHECK
 70
     0
  9
$PEXTMIN
 10
1.000000000000000E+20
 20
1.000000000000000E+20
 30
1.000000000000000E+20
  9
$PEXTMAX
 10
-1.000000000000000E+20
 20
-1.000000000000000E+20
 30
-1.000000000000000E+20
  9
$PLIMMIN
 10
0.0
 20
0.0
  9
$PLIMMAX
 10
12.0
 20
9.0
  9
$UNITMODE
 70
     0
  9
$VISRETAIN
 70
     1
  9
$PLINEGEN
 70
     0
  9
$PSLTSCALE
 70
     1
  0
ENDSEC
  0
SECTION
  2
TABLES
  0
TABLE
  2
VPORT
 70
     1
  0
VPORT
  2
*ACTIVE
 70
     0
 10
0.0
 20
0.0
 11
1.0
 21
1.0
 12
10.42990654205607
 22
4.5
 13
0.0
 23
0.0
 14
0.5
 24
0.5
 15
0.5
 25
0.5
 16
0.0
 26
0.0
 36
1.0
 17
0.0
 27
0.0
 37
0.0
 40
9.0
 41
1.972972972850329
 42
50.0
 43
0.0
 44
0.0
 50
0.0
 51
0.0
 71
     0
 72
   100
 73
     1
 74
     3
 75
     0
 76
     0
 77
     0
 78
     0
  0
ENDTAB
  0
TABLE
  2
LTYPE
 70
     5
  0
LTYPE
  2
CONTINUOUS
 70
     0
  3
Solid line
 72
    65
 73
     0
 40
0.0
  0
LTYPE
  2
HIDDEN
 70
     0
  3
Hidden line ____ ____ ____ ____ 
 72
    83
 73
     2
 40
0.125
 49
0.25
 49
-0.125
  0
LTYPE
  2
PHANTOM
 70
     0
  3
Phantom line ______  __  __  ______  __  __
 72
    83
 73
     6
 40
0.5
 49
0.625
 49
-0.125
 49
0.125
 49
-0.125
 49
0.125
 49
-0.125
  0
LTYPE
  2
CENTER
 70
     0
  3
Center line ____ _ ____ _ ____ _
 72
    83
 73
     4
 40
0.5
 49
0.625
 49
-0.125
 49
0.125
 49
-0.125
  0
LTYPE
  2
DASHED
 70
     0
  3
Dashed line __ __ __ __
 72
    83
 73
     2
 40
0.25
 49
0.5
 49
-0.25
  0
ENDTAB
  0
TABLE
  2
LAYER
 70
     5
  0
LAYER
  2
0
 70
     0
 62
     7
  6
CONTINUOUS
  0
LAYER
  2
HIDDEN
 70
     0
 62
    -7
  6
HIDDEN
  0
LAYER
  2
VISIBLE
 70
     0
 62
     7
  6
CONTINUOUS
  0
LAYER
  2
TANGENT_LINES
 70
     0
 62
     7
  6
CONTINUOUS
  0
LAYER
  2
INVISIBLE_LINES
 70
     0
 62
    -7
  6
CONTINUOUS
  0
ENDTAB
  0
TABLE
  2
STYLE
 70
     2
  0
STYLE
  2
STANDARD
 70
     0
 40
0.0
 41
1.0
 50
0.0
 71
     0
 42
0.2
  3
txt
  4

  0
STYLE
  2
ODATTFSTYLE
 70
     0
 40
0.0
 41
1.0
 50
0.0
 71
     0
 42
0.2
  3
Verdana.ttf
  4

  0
ENDTAB
  0
TABLE
  2
VIEW
 70
     0
  0
ENDTAB
  0
TABLE
  2
UCS
 70
     0
  0
ENDTAB
  0
TABLE
  2
APPID
 70
     1
  0
APPID
  2
ACAD
 70
     0
  0
ENDTAB
  0
TABLE
  2
DIMSTYLE
 70
     1
  0
DIMSTYLE
  2
STANDARD
 70
     0
  3

  4

  5

  6

  7

 40
1.0
 41
0.18
 42
0.0625
 43
0.38
 44
0.18
 45
0.0
 46
0.0
 47
0.0
 48
0.0
140
0.18
141
0.09
142
0.0
143
25.4
144
1.0
145
0.0
146
1.0
147
0.09
 71
     0
 72
     0
 73
     1
 74
     1
 75
     0
 76
     0
 77
     0
 78
     0
170
     0
171
     2
172
     0
173
     0
174
     0
175
     0
176
     0
177
     0
178
     0
  0
ENDTAB
  0
ENDSEC
  0
SECTION
  2
BLOCKS
  0
BLOCK
  8
0
  2
$MODEL_SPACE
 70
     0
 10
0.0
 20
0.0
 30
0.0
  3
$MODEL_SPACE
  1

  0
ENDBLK
  5
21
  8
0
  0
BLOCK
 67
     1
  8
0
  2
$PAPER_SPACE
 70
     0
 10
0.0
 20
0.0
 30
0.0
  3
$PAPER_SPACE
  1

  0
ENDBLK
  5
1D
 67
     1
  8
0
  0
ENDSEC
  0
SECTION
  2
ENTITIES
  0
LINE
  5
F4373
  8
VISIBLE
 10
-2.513378908061806
 20
5.303300858899106
 30
0.0
 11
-2.013378908061807
 21
5.303300858899106
 31
0.0
  0
LINE
  5
F4374
  8
VISIBLE
 10
6.539921950837301
 20
0.0
 30
0.0
 11
6.039921950837302
 21
0.4999999999999996
 31
0.0
  0
LINE
  5
F4375
  8
VISIBLE
 10
-1.21788377922694
 20
4.684582425360876
 30
0.0
 11
2.671203517299072
 21
0.7954951288348651
 31
0.0
  0
LINE
  5
F4376
  8
VISIBLE
 10
2.759591864947391
 20
0.7071067811865476
 30
0.0
 11
2.671203517299073
 21
0.6187184335382292
 31
0.0
  0
LINE
  5
F4377
  8
VISIBLE
 10
3.035363509610144
 20
0.982878425849301
 30
0.0
 11
3.123751857258462
 21
1.07126677349762
 31
0.0
  0
LINE
  5
F4378
  8
VISIBLE
 10
3.039921950837302
 20
-0.1250000000000002
 30
0.0
 11
2.539921950837302
 21
-0.1250000000000002
 31
0.0
  0
LINE
  5
F4379
  8
VISIBLE
 10
0.5399219508373002
 20
2.25
 30
0.0
 11
0.5399219508373019
 21
-0.0000000000000004
 31
0.0
  0
LINE
  5
F437A
  8
VISIBLE
 10
6.039921950837302
 20
0.5000000000000006
 30
0.0
 11
4.039921950837301
 21
0.5
 31
0.0
  0
LINE
  5
F437B
  8
VISIBLE
 10
0.5399219508373019
 20
-0.0000000000000005
 30
0.0
 11
1.039921950837302
 21
-0.0000000000000006
 31
0.0
  0
LINE
  5
F437C
  8
VISIBLE
 10
2.759591864947391
 20
0.7071067811865476
 30
0.0
 11
2.406038474354117
 21
1.060660171779821
 31
0.0
  0
LINE
  5
F437D
  8
VISIBLE
 10
1.61054334551925
 20
1.679378605318049
 30
0.0
 11
1.698931693167569
 21
1.767766952966368
 31
0.0
  0
LINE
  5
F437E
  8
VISIBLE
 10
2.406038474354117
 20
1.060660171779821
 30
0.0
 11
2.317650126705798
 21
0.9722718241315024
 31
0.0
  0
LINE
  5
F437F
  8
VISIBLE
 10
1.345378302574295
 20
2.121320343559641
 30
0.0
 11
1.256989954925977
 21
2.032931995911323
 31
0.0
  0
LINE
  5
F4380
  8
VISIBLE
 10
1.698931693167569
 20
1.767766952966368
 30
0.0
 11
1.345378302574295
 21
2.121320343559642
 31
0.0
  0
LINE
  5
F4381
  8
VISIBLE
 10
0.5498831737394287
 20
2.740038777097871
 30
0.0
 11
0.6382715213877473
 21
2.82842712474619
 31
0.0
  0
LINE
  5
F4382
  8
VISIBLE
 10
1.256989954925977
 20
2.032931995911324
 30
0.0
 11
1.610543345519251
 21
1.67937860531805
 31
0.0
  0
LINE
  5
F4383
  8
VISIBLE
 10
0.2847181307944734
 20
3.181980515339462
 30
0.0
 11
0.1963297831461554
 21
3.093592167691145
 31
0.0
  0
LINE
  5
F4384
  8
VISIBLE
 10
3.123751857258462
 20
1.07126677349762
 30
0.0
 11
3.035363509610144
 21
1.159655121145938
 31
0.0
  0
LINE
  5
F4385
  8
VISIBLE
 10
2.317650126705798
 20
0.9722718241315024
 30
0.0
 11
2.671203517299073
 21
0.6187184335382292
 31
0.0
  0
LINE
  5
F4386
  8
VISIBLE
 10
0.638271521387747
 20
2.82842712474619
 30
0.0
 11
0.2847181307944736
 21
3.181980515339462
 31
0.0
  0
LINE
  5
F4387
  8
VISIBLE
 10
4.539921950837302
 20
0.0
 30
0.0
 11
4.539921950837302
 21
-0.125
 31
0.0
  0
LINE
  5
F4388
  8
VISIBLE
 10
2.539921950837302
 20
-0.1250000000000002
 30
0.0
 11
2.539921950837302
 21
0.0
 31
0.0
  0
LINE
  5
F4389
  8
VISIBLE
 10
0.1963297831461553
 20
3.093592167691145
 30
0.0
 11
0.5498831737394285
 21
2.740038777097872
 31
0.0
  0
LINE
  5
F438A
  8
VISIBLE
 10
-0.5107769980403924
 20
3.800698948877693
 30
0.0
 11
-0.8643303886336667
 21
4.154252339470967
 31
0.0
  0
LINE
  5
F438B
  8
VISIBLE
 10
4.039921950837302
 20
-0.1250000000000001
 30
0.0
 11
4.039921950837302
 21
-0.0000000000000002
 31
0.0
  0
LINE
  5
F438C
  8
VISIBLE
 10
3.039921950837302
 20
-0.0000000000000002
 30
0.0
 11
3.039921950837302
 21
-0.1250000000000002
 31
0.0
  0
LINE
  5
F438D
  8
VISIBLE
 10
4.539921950837302
 20
-0.125
 30
0.0
 11
4.039921950837302
 21
-0.1250000000000001
 31
0.0
  0
LINE
  5
F438E
  8
VISIBLE
 10
3.035363509610144
 20
1.159655121145938
 30
0.0
 11
2.671203517299073
 21
0.7954951288348656
 31
0.0
  0
LINE
  5
F438F
  8
VISIBLE
 10
1.539921950837302
 20
-0.0000000000000004
 30
0.0
 11
1.539921950837302
 21
-0.1250000000000005
 31
0.0
  0
LINE
  5
F4390
  8
VISIBLE
 10
1.039921950837302
 20
-0.1250000000000005
 30
0.0
 11
1.039921950837302
 21
-0.0000000000000006
 31
0.0
  0
CIRCLE
  5
F4391
  8
VISIBLE
 10
0.7761424232782457
 20
0.4999999999999995
 30
0.0
 40
0.07
  0
LINE
  5
F4392
  8
VISIBLE
 10
-0.763378908061805
 20
5.303300858899106
 30
0.0
 11
-2.013378908061807
 21
5.303300858899105
 31
0.0
  0
CIRCLE
  5
F4393
  8
VISIBLE
 10
0.5989770689475369
 20
0.4999999999999996
 30
0.0
 40
0.035
  0
LINE
  5
F4394
  8
VISIBLE
 10
1.539921950837302
 20
-0.1250000000000005
 30
0.0
 11
1.039921950837302
 21
-0.1250000000000005
 31
0.0
  0
LINE
  5
F4395
  8
VISIBLE
 10
4.039921950837301
 20
0.5000000000000001
 30
0.0
 11
-0.7633789080618085
 21
5.303300858899108
 31
0.0
  0
CIRCLE
  5
F4396
  8
VISIBLE
 10
0.7761424232782457
 20
0.1968503937007869
 30
0.0
 40
0.07
  0
LINE
  5
F4397
  8
VISIBLE
 10
-0.5107769980403924
 20
3.800698948877693
 30
0.0
 11
-0.4223886503920739
 21
3.889087296526011
 31
0.0
  0
CIRCLE
  5
F4398
  8
VISIBLE
 10
0.9531424232782457
 20
0.4999999999999996
 30
0.0
 40
0.035
  0
LINE
  5
F4399
  8
VISIBLE
 10
2.759591864947391
 20
0.7071067811865475
 30
0.0
 11
3.035363509610144
 21
0.9828784258493009
 31
0.0
  0
LINE
  5
F439A
  8
VISIBLE
 10
3.039921950837302
 20
-0.0000000000000002
 30
0.0
 11
4.039921950837302
 21
-0.0000000000000002
 31
0.0
  0
LINE
  5
F439B
  8
VISIBLE
 10
6.539921950837301
 20
0.0
 30
0.0
 11
4.539921950837302
 21
-0.0000000000000003
 31
0.0
  0
LINE
  5
F439C
  8
VISIBLE
 10
0.5399219508373032
 20
2.249999999999997
 30
0.0
 11
-2.513378908061808
 21
5.303300858899107
 31
0.0
  0
CIRCLE
  5
F439D
  8
VISIBLE
 10
0.5989770689475369
 20
0.1968503937007869
 30
0.0
 40
0.035
  0
LINE
  5
F439E
  8
VISIBLE
 10
-0.4223886503920743
 20
3.889087296526011
 30
0.0
 11
-0.7759420409853482
 21
4.242640687119285
 31
0.0
  0
LINE
  5
F439F
  8
VISIBLE
 10
-0.9173633972226576
 20
4.98510280736516
 30
0.0
 11
2.971723899303355
 21
1.096015510839148
 31
0.0
  0
LINE
  5
F43A0
  8
VISIBLE
 10
1.539921950837302
 20
-0.0000000000000004
 30
0.0
 11
2.539921950837302
 21
0.0
 31
0.0
  0
LINE
  5
F43A1
  8
VISIBLE
 10
-0.7759420409853482
 20
4.242640687119285
 30
0.0
 11
-0.8643303886336667
 21
4.154252339470967
 31
0.0
  0
CIRCLE
  5
F43A2
  8
VISIBLE
 10
0.9531424232782457
 20
0.1968503937007869
 30
0.0
 40
0.035
  0
LINE
  5
F43A3
  8
VISIBLE
 10
-0.917363397222657
 20
4.98510280736516
 30
0.0
 11
-1.21788377922694
 21
4.684582425360876
 31
0.0
  0
ENDSEC
  0
EOF
