G75*
%MOIN*%
%OFA0B0*%
%FSLAX24Y24*%
%IPPOS*%
%LPD*%
%AMOC8*
5,1,8,0,0,1.08239X$1,22.5*
%
%ADD10C,0.0100*%
%ADD11C,0.0030*%
%ADD12C,0.0060*%
%ADD13C,0.0040*%
%ADD14C,0.0080*%
%ADD15C,0.0050*%
%ADD16C,0.0200*%
%ADD17R,0.0500X0.0750*%
%ADD18R,0.0300X0.0700*%
%ADD19R,0.0500X0.0300*%
%ADD20C,0.0220*%
%ADD21C,0.0010*%
%ADD22R,0.0180X0.0300*%
%ADD23R,0.0300X0.0180*%
D10*
X000150Y000150D02*
X000150Y020150D01*
X020150Y020150D01*
X020150Y000150D01*
X000150Y000150D01*
X003047Y017955D02*
X003095Y017985D01*
X003140Y018018D01*
X003183Y018054D01*
X003224Y018092D01*
X003261Y018134D01*
X003296Y018178D01*
X003327Y018224D01*
X003356Y018273D01*
X003380Y018323D01*
X003401Y018375D01*
X003419Y018429D01*
X003432Y018483D01*
X003442Y018538D01*
X003448Y018594D01*
X003450Y018650D01*
X002274Y017944D02*
X002227Y017971D01*
X002182Y018001D01*
X002139Y018034D01*
X002099Y018070D01*
X002061Y018109D01*
X002026Y018150D01*
X001993Y018193D01*
X001964Y018238D01*
X001938Y018286D01*
X001915Y018335D01*
X001895Y018385D01*
X001879Y018436D01*
X001866Y018489D01*
X001857Y018542D01*
X001852Y018596D01*
X001850Y018650D01*
X003167Y019261D02*
X003206Y019225D01*
X003244Y019186D01*
X003278Y019146D01*
X003310Y019103D01*
X003338Y019058D01*
X003364Y019011D01*
X003387Y018962D01*
X003406Y018912D01*
X003422Y018861D01*
X003434Y018809D01*
X003443Y018757D01*
X003448Y018703D01*
X003450Y018650D01*
X002138Y019265D02*
X002098Y019229D01*
X002060Y019190D01*
X002025Y019149D01*
X001993Y019106D01*
X001963Y019061D01*
X001937Y019014D01*
X001915Y018965D01*
X001895Y018914D01*
X001879Y018863D01*
X001866Y018811D01*
X001857Y018757D01*
X001852Y018704D01*
X001850Y018650D01*
X008547Y017955D02*
X008595Y017985D01*
X008640Y018018D01*
X008683Y018054D01*
X008724Y018092D01*
X008761Y018134D01*
X008796Y018178D01*
X008827Y018224D01*
X008856Y018273D01*
X008880Y018323D01*
X008901Y018375D01*
X008919Y018429D01*
X008932Y018483D01*
X008942Y018538D01*
X008948Y018594D01*
X008950Y018650D01*
X007774Y017944D02*
X007727Y017971D01*
X007682Y018001D01*
X007639Y018034D01*
X007599Y018070D01*
X007561Y018109D01*
X007526Y018150D01*
X007493Y018193D01*
X007464Y018238D01*
X007438Y018286D01*
X007415Y018335D01*
X007395Y018385D01*
X007379Y018436D01*
X007366Y018489D01*
X007357Y018542D01*
X007352Y018596D01*
X007350Y018650D01*
X008667Y019261D02*
X008706Y019225D01*
X008744Y019186D01*
X008778Y019146D01*
X008810Y019103D01*
X008838Y019058D01*
X008864Y019011D01*
X008887Y018962D01*
X008906Y018912D01*
X008922Y018861D01*
X008934Y018809D01*
X008943Y018757D01*
X008948Y018703D01*
X008950Y018650D01*
X007638Y019265D02*
X007598Y019229D01*
X007560Y019190D01*
X007525Y019149D01*
X007493Y019106D01*
X007463Y019061D01*
X007437Y019014D01*
X007415Y018965D01*
X007395Y018914D01*
X007379Y018863D01*
X007366Y018811D01*
X007357Y018757D01*
X007352Y018704D01*
X007350Y018650D01*
X011047Y017955D02*
X011095Y017985D01*
X011140Y018018D01*
X011183Y018054D01*
X011224Y018092D01*
X011261Y018134D01*
X011296Y018178D01*
X011327Y018224D01*
X011356Y018273D01*
X011380Y018323D01*
X011401Y018375D01*
X011419Y018429D01*
X011432Y018483D01*
X011442Y018538D01*
X011448Y018594D01*
X011450Y018650D01*
X010274Y017944D02*
X010227Y017971D01*
X010182Y018001D01*
X010139Y018034D01*
X010099Y018070D01*
X010061Y018109D01*
X010026Y018150D01*
X009993Y018193D01*
X009964Y018238D01*
X009938Y018286D01*
X009915Y018335D01*
X009895Y018385D01*
X009879Y018436D01*
X009866Y018489D01*
X009857Y018542D01*
X009852Y018596D01*
X009850Y018650D01*
X011167Y019261D02*
X011206Y019225D01*
X011244Y019186D01*
X011278Y019146D01*
X011310Y019103D01*
X011338Y019058D01*
X011364Y019011D01*
X011387Y018962D01*
X011406Y018912D01*
X011422Y018861D01*
X011434Y018809D01*
X011443Y018757D01*
X011448Y018703D01*
X011450Y018650D01*
X010138Y019265D02*
X010098Y019229D01*
X010060Y019190D01*
X010025Y019149D01*
X009993Y019106D01*
X009963Y019061D01*
X009937Y019014D01*
X009915Y018965D01*
X009895Y018914D01*
X009879Y018863D01*
X009866Y018811D01*
X009857Y018757D01*
X009852Y018704D01*
X009850Y018650D01*
D11*
X010429Y017635D02*
X010381Y017587D01*
X010381Y017393D01*
X010429Y017345D01*
X010526Y017345D01*
X010575Y017393D01*
X010575Y017587D01*
X010526Y017635D01*
X010429Y017635D01*
X010676Y017587D02*
X010676Y017393D01*
X010724Y017345D01*
X010821Y017345D01*
X010869Y017393D01*
X010970Y017345D02*
X011164Y017345D01*
X011067Y017345D02*
X011067Y017635D01*
X010970Y017538D01*
X010869Y017587D02*
X010821Y017635D01*
X010724Y017635D01*
X010676Y017587D01*
X008664Y017345D02*
X008470Y017345D01*
X008567Y017345D02*
X008567Y017635D01*
X008470Y017538D01*
X008369Y017587D02*
X008321Y017635D01*
X008176Y017635D01*
X008176Y017345D01*
X008321Y017345D01*
X008369Y017393D01*
X008369Y017587D01*
X008075Y017635D02*
X007881Y017635D01*
X007881Y017345D01*
X008075Y017345D01*
X007978Y017490D02*
X007881Y017490D01*
X007780Y017345D02*
X007586Y017345D01*
X007586Y017635D01*
X003414Y017587D02*
X003414Y017490D01*
X003365Y017442D01*
X003220Y017442D01*
X003220Y017345D02*
X003220Y017635D01*
X003365Y017635D01*
X003414Y017587D01*
X003317Y017442D02*
X003414Y017345D01*
X003119Y017345D02*
X003119Y017635D01*
X002926Y017635D02*
X002926Y017345D01*
X003022Y017442D01*
X003119Y017345D01*
X002825Y017490D02*
X002776Y017442D01*
X002631Y017442D01*
X002631Y017345D02*
X002631Y017635D01*
X002776Y017635D01*
X002825Y017587D01*
X002825Y017490D01*
X002414Y014235D02*
X002462Y014187D01*
X002462Y014090D01*
X002414Y014042D01*
X002269Y014042D01*
X002366Y014042D02*
X002462Y013945D01*
X002269Y013945D02*
X002269Y014235D01*
X002414Y014235D01*
X002168Y013945D02*
X001974Y013945D01*
X001974Y014235D01*
X001873Y014187D02*
X001825Y014235D01*
X001728Y014235D01*
X001680Y014187D01*
X001680Y013993D01*
X001728Y013945D01*
X001825Y013945D01*
X001873Y013993D01*
X001578Y013945D02*
X001578Y014235D01*
X001482Y014138D01*
X001385Y014235D01*
X001385Y013945D01*
X001512Y013205D02*
X001608Y013108D01*
X001608Y012915D01*
X001710Y012915D02*
X001903Y012915D01*
X001806Y012915D02*
X001806Y013205D01*
X001710Y013108D01*
X001608Y013060D02*
X001415Y013060D01*
X001415Y013108D02*
X001512Y013205D01*
X001415Y013108D02*
X001415Y012915D01*
X001512Y012205D02*
X001608Y012108D01*
X001608Y011915D01*
X001710Y011915D02*
X001903Y012108D01*
X001903Y012157D01*
X001855Y012205D01*
X001758Y012205D01*
X001710Y012157D01*
X001608Y012060D02*
X001415Y012060D01*
X001415Y012108D02*
X001512Y012205D01*
X001415Y012108D02*
X001415Y011915D01*
X001710Y011915D02*
X001903Y011915D01*
X002643Y010948D02*
X002595Y010899D01*
X002595Y010803D01*
X002643Y010754D01*
X002837Y010754D01*
X002885Y010803D01*
X002885Y010899D01*
X002837Y010948D01*
X002837Y010653D02*
X002885Y010605D01*
X002885Y010508D01*
X002837Y010460D01*
X002837Y010358D02*
X002643Y010358D01*
X002595Y010310D01*
X002595Y010213D01*
X002643Y010165D01*
X002837Y010165D01*
X002885Y010213D01*
X002885Y010310D01*
X002837Y010358D01*
X002692Y010460D02*
X002740Y010508D01*
X002740Y010605D01*
X002788Y010653D01*
X002837Y010653D01*
X002643Y010653D02*
X002595Y010605D01*
X002595Y010508D01*
X002643Y010460D01*
X002692Y010460D01*
X001903Y010463D02*
X001855Y010415D01*
X001758Y010415D01*
X001710Y010463D01*
X001608Y010415D02*
X001608Y010608D01*
X001512Y010705D01*
X001415Y010608D01*
X001415Y010415D01*
X001415Y010560D02*
X001608Y010560D01*
X001710Y010657D02*
X001758Y010705D01*
X001855Y010705D01*
X001903Y010657D01*
X001903Y010608D01*
X001855Y010560D01*
X001903Y010512D01*
X001903Y010463D01*
X001855Y010560D02*
X001806Y010560D01*
X001776Y009235D02*
X001776Y008945D01*
X001680Y008945D02*
X001873Y008945D01*
X001680Y009138D02*
X001776Y009235D01*
X001578Y009187D02*
X001578Y009138D01*
X001530Y009090D01*
X001385Y009090D01*
X001385Y008945D02*
X001530Y008945D01*
X001578Y008993D01*
X001578Y009042D01*
X001530Y009090D01*
X001578Y009187D02*
X001530Y009235D01*
X001385Y009235D01*
X001385Y008945D01*
X001415Y008205D02*
X001560Y008205D01*
X001608Y008157D01*
X001608Y008108D01*
X001560Y008060D01*
X001415Y008060D01*
X001415Y007915D02*
X001560Y007915D01*
X001608Y007963D01*
X001608Y008012D01*
X001560Y008060D01*
X001710Y008157D02*
X001758Y008205D01*
X001855Y008205D01*
X001903Y008157D01*
X001903Y008108D01*
X001710Y007915D01*
X001903Y007915D01*
X001415Y007915D02*
X001415Y008205D01*
X001415Y007205D02*
X001560Y007205D01*
X001608Y007157D01*
X001608Y007108D01*
X001560Y007060D01*
X001415Y007060D01*
X001415Y006915D02*
X001560Y006915D01*
X001608Y006963D01*
X001608Y007012D01*
X001560Y007060D01*
X001710Y006963D02*
X001758Y006915D01*
X001855Y006915D01*
X001903Y006963D01*
X001903Y007012D01*
X001855Y007060D01*
X001806Y007060D01*
X001855Y007060D02*
X001903Y007108D01*
X001903Y007157D01*
X001855Y007205D01*
X001758Y007205D01*
X001710Y007157D01*
X001415Y007205D02*
X001415Y006915D01*
X001415Y006205D02*
X001560Y006205D01*
X001608Y006157D01*
X001608Y006108D01*
X001560Y006060D01*
X001415Y006060D01*
X001415Y005915D02*
X001560Y005915D01*
X001608Y005963D01*
X001608Y006012D01*
X001560Y006060D01*
X001710Y006060D02*
X001903Y006060D01*
X001855Y005915D02*
X001855Y006205D01*
X001710Y006060D01*
X001415Y005915D02*
X001415Y006205D01*
X001482Y004735D02*
X001578Y004638D01*
X001578Y004445D01*
X001578Y004590D02*
X001385Y004590D01*
X001385Y004638D02*
X001482Y004735D01*
X001385Y004638D02*
X001385Y004445D01*
X001680Y004590D02*
X001825Y004735D01*
X001825Y004445D01*
X001873Y004590D02*
X001680Y004590D01*
X001710Y003205D02*
X001710Y003060D01*
X001806Y003108D01*
X001855Y003108D01*
X001903Y003060D01*
X001903Y002963D01*
X001855Y002915D01*
X001758Y002915D01*
X001710Y002963D01*
X001608Y002963D02*
X001560Y002915D01*
X001415Y002915D01*
X001415Y003205D01*
X001560Y003205D01*
X001608Y003157D01*
X001608Y003108D01*
X001560Y003060D01*
X001415Y003060D01*
X001560Y003060D02*
X001608Y003012D01*
X001608Y002963D01*
X001710Y003205D02*
X001903Y003205D01*
X001903Y002205D02*
X001903Y001915D01*
X001710Y002205D01*
X001710Y001915D01*
X001608Y001963D02*
X001608Y002060D01*
X001512Y002060D01*
X001608Y001963D02*
X001560Y001915D01*
X001463Y001915D01*
X001415Y001963D01*
X001415Y002157D01*
X001463Y002205D01*
X001560Y002205D01*
X001608Y002157D01*
X002004Y002205D02*
X002004Y001915D01*
X002149Y001915D01*
X002198Y001963D01*
X002198Y002157D01*
X002149Y002205D01*
X002004Y002205D01*
X002002Y001205D02*
X002050Y001157D01*
X002050Y001108D01*
X002002Y001060D01*
X002050Y001012D01*
X002050Y000963D01*
X002002Y000915D01*
X001905Y000915D01*
X001857Y000963D01*
X001758Y000963D02*
X001758Y000915D01*
X001710Y000915D01*
X001710Y000963D01*
X001758Y000963D01*
X001608Y000963D02*
X001560Y000915D01*
X001463Y000915D01*
X001415Y000963D01*
X001512Y001060D02*
X001560Y001060D01*
X001608Y001012D01*
X001608Y000963D01*
X001560Y001060D02*
X001608Y001108D01*
X001608Y001157D01*
X001560Y001205D01*
X001463Y001205D01*
X001415Y001157D01*
X001857Y001157D02*
X001905Y001205D01*
X002002Y001205D01*
X002002Y001060D02*
X001954Y001060D01*
X002152Y001012D02*
X002248Y000915D01*
X002345Y001012D01*
X002345Y001205D01*
X002152Y001205D02*
X002152Y001012D01*
X005540Y003838D02*
X005588Y003790D01*
X005685Y003790D01*
X005733Y003838D01*
X005733Y004080D01*
X005835Y004032D02*
X005883Y004080D01*
X005980Y004080D01*
X006028Y004032D01*
X005980Y003935D02*
X006028Y003887D01*
X006028Y003838D01*
X005980Y003790D01*
X005883Y003790D01*
X005835Y003838D01*
X005883Y003935D02*
X005980Y003935D01*
X005883Y003935D02*
X005835Y003983D01*
X005835Y004032D01*
X005540Y004080D02*
X005540Y003838D01*
X006129Y003790D02*
X006323Y003790D01*
X006424Y003790D02*
X006424Y004080D01*
X006569Y004080D01*
X006617Y004032D01*
X006617Y003935D01*
X006569Y003887D01*
X006424Y003887D01*
X006521Y003887D02*
X006617Y003790D01*
X006323Y004080D02*
X006129Y004080D01*
X006129Y003790D01*
X006129Y003935D02*
X006226Y003935D01*
X008165Y001955D02*
X008310Y001955D01*
X008358Y001907D01*
X008358Y001810D01*
X008310Y001762D01*
X008165Y001762D01*
X008262Y001762D02*
X008358Y001665D01*
X008460Y001665D02*
X008653Y001665D01*
X008754Y001713D02*
X008803Y001665D01*
X008899Y001665D01*
X008948Y001713D01*
X008948Y001762D01*
X008899Y001810D01*
X008803Y001810D01*
X008754Y001858D01*
X008754Y001907D01*
X008803Y001955D01*
X008899Y001955D01*
X008948Y001907D01*
X009049Y001955D02*
X009049Y001665D01*
X009242Y001665D01*
X009146Y001810D02*
X009049Y001810D01*
X009049Y001955D02*
X009242Y001955D01*
X009344Y001955D02*
X009537Y001955D01*
X009440Y001955D02*
X009440Y001665D01*
X008653Y001955D02*
X008460Y001955D01*
X008460Y001665D01*
X008460Y001810D02*
X008556Y001810D01*
X008165Y001665D02*
X008165Y001955D01*
X014692Y009295D02*
X014885Y009295D01*
X014788Y009295D02*
X014788Y009585D01*
X014692Y009488D01*
X014986Y009537D02*
X015035Y009585D01*
X015132Y009585D01*
X015180Y009537D01*
X014986Y009343D01*
X015035Y009295D01*
X015132Y009295D01*
X015180Y009343D01*
X015180Y009537D01*
X015281Y009537D02*
X015329Y009585D01*
X015426Y009585D01*
X015475Y009537D01*
X015281Y009343D01*
X015329Y009295D01*
X015426Y009295D01*
X015475Y009343D01*
X015475Y009537D01*
X015576Y009585D02*
X015576Y009343D01*
X015624Y009295D01*
X015721Y009295D01*
X015769Y009343D01*
X015769Y009585D01*
X015870Y009585D02*
X016064Y009585D01*
X015967Y009440D02*
X015870Y009440D01*
X015870Y009295D02*
X015870Y009585D01*
X015281Y009537D02*
X015281Y009343D01*
X014986Y009343D02*
X014986Y009537D01*
X015929Y011745D02*
X016026Y011745D01*
X016075Y011793D01*
X016176Y011745D02*
X016176Y011938D01*
X016272Y012035D01*
X016369Y011938D01*
X016369Y011745D01*
X016470Y011745D02*
X016470Y012035D01*
X016615Y012035D01*
X016664Y011987D01*
X016664Y011890D01*
X016615Y011842D01*
X016470Y011842D01*
X016369Y011890D02*
X016176Y011890D01*
X016075Y011987D02*
X016026Y012035D01*
X015929Y012035D01*
X015881Y011987D01*
X015881Y011793D01*
X015929Y011745D01*
X017885Y009860D02*
X017885Y009570D01*
X018030Y009570D01*
X018078Y009618D01*
X018078Y009667D01*
X018030Y009715D01*
X017885Y009715D01*
X018030Y009715D02*
X018078Y009763D01*
X018078Y009812D01*
X018030Y009860D01*
X017885Y009860D01*
X018180Y009763D02*
X018276Y009860D01*
X018276Y009570D01*
X018180Y009570D02*
X018373Y009570D01*
X018474Y009618D02*
X018523Y009570D01*
X018619Y009570D01*
X018668Y009618D01*
X018668Y009715D01*
X018619Y009763D01*
X018571Y009763D01*
X018474Y009715D01*
X018474Y009860D01*
X018668Y009860D01*
X018524Y008205D02*
X018379Y008060D01*
X018573Y008060D01*
X018524Y007915D02*
X018524Y008205D01*
X018181Y008205D02*
X018181Y007915D01*
X018085Y007915D02*
X018278Y007915D01*
X018085Y008108D02*
X018181Y008205D01*
X017983Y008157D02*
X017983Y008108D01*
X017935Y008060D01*
X017790Y008060D01*
X017790Y007915D02*
X017935Y007915D01*
X017983Y007963D01*
X017983Y008012D01*
X017935Y008060D01*
X017983Y008157D02*
X017935Y008205D01*
X017790Y008205D01*
X017790Y007915D01*
X017790Y007205D02*
X017935Y007205D01*
X017983Y007157D01*
X017983Y007108D01*
X017935Y007060D01*
X017790Y007060D01*
X017790Y006915D02*
X017935Y006915D01*
X017983Y006963D01*
X017983Y007012D01*
X017935Y007060D01*
X018085Y007108D02*
X018181Y007205D01*
X018181Y006915D01*
X018085Y006915D02*
X018278Y006915D01*
X018379Y006963D02*
X018428Y006915D01*
X018524Y006915D01*
X018573Y006963D01*
X018573Y007012D01*
X018524Y007060D01*
X018476Y007060D01*
X018524Y007060D02*
X018573Y007108D01*
X018573Y007157D01*
X018524Y007205D01*
X018428Y007205D01*
X018379Y007157D01*
X017790Y007205D02*
X017790Y006915D01*
X017790Y006330D02*
X017935Y006330D01*
X017983Y006282D01*
X017983Y006233D01*
X017935Y006185D01*
X017790Y006185D01*
X017790Y006040D02*
X017935Y006040D01*
X017983Y006088D01*
X017983Y006137D01*
X017935Y006185D01*
X018085Y006233D02*
X018133Y006185D01*
X018278Y006185D01*
X018278Y006088D02*
X018278Y006282D01*
X018230Y006330D01*
X018133Y006330D01*
X018085Y006282D01*
X018085Y006233D01*
X018085Y006088D02*
X018133Y006040D01*
X018230Y006040D01*
X018278Y006088D01*
X017790Y006040D02*
X017790Y006330D01*
X017760Y004235D02*
X017905Y004235D01*
X017953Y004187D01*
X017953Y004138D01*
X017905Y004090D01*
X017760Y004090D01*
X017760Y003945D02*
X017760Y004235D01*
X017905Y004090D02*
X017953Y004042D01*
X017953Y003993D01*
X017905Y003945D01*
X017760Y003945D01*
X017635Y003888D02*
X017587Y003888D01*
X017393Y004082D01*
X017345Y004082D01*
X017345Y003888D01*
X017260Y003934D02*
X017260Y003741D01*
X016970Y003741D01*
X016970Y003934D01*
X017018Y004036D02*
X017212Y004036D01*
X017260Y004084D01*
X017260Y004181D01*
X017212Y004229D01*
X017115Y004229D01*
X017115Y004132D01*
X017018Y004036D02*
X016970Y004084D01*
X016970Y004181D01*
X017018Y004229D01*
X017115Y003838D02*
X017115Y003741D01*
X017115Y003640D02*
X017018Y003640D01*
X016970Y003591D01*
X016970Y003446D01*
X017260Y003446D01*
X017163Y003446D02*
X017163Y003591D01*
X017115Y003640D01*
X017163Y003543D02*
X017260Y003640D01*
X017345Y003690D02*
X017635Y003690D01*
X017635Y003594D02*
X017635Y003787D01*
X017442Y003594D02*
X017345Y003690D01*
X017635Y003492D02*
X017635Y003299D01*
X017635Y003396D02*
X017345Y003396D01*
X017442Y003299D01*
X017260Y003248D02*
X017163Y003152D01*
X016970Y003152D01*
X017018Y003050D02*
X017067Y003050D01*
X017115Y003002D01*
X017163Y003050D01*
X017212Y003050D01*
X017260Y003002D01*
X017260Y002905D01*
X017212Y002857D01*
X017212Y002758D02*
X017260Y002758D01*
X017260Y002710D01*
X017212Y002710D01*
X017212Y002758D01*
X017345Y002710D02*
X017345Y002855D01*
X017393Y002903D01*
X017587Y002903D01*
X017635Y002855D01*
X017635Y002710D01*
X017345Y002710D01*
X017212Y002608D02*
X017260Y002560D01*
X017260Y002463D01*
X017212Y002415D01*
X017345Y002415D02*
X017635Y002415D01*
X017635Y002608D01*
X017790Y002915D02*
X017935Y002915D01*
X017983Y002963D01*
X017983Y003012D01*
X017935Y003060D01*
X017790Y003060D01*
X017790Y002915D02*
X017790Y003205D01*
X017935Y003205D01*
X017983Y003157D01*
X017983Y003108D01*
X017935Y003060D01*
X018085Y002963D02*
X018085Y002915D01*
X018085Y002963D02*
X018278Y003157D01*
X018278Y003205D01*
X018085Y003205D01*
X017635Y003198D02*
X017635Y003004D01*
X017635Y003101D02*
X017345Y003101D01*
X017442Y003004D01*
X017115Y003002D02*
X017115Y002954D01*
X017018Y003050D02*
X016970Y003002D01*
X016970Y002905D01*
X017018Y002857D01*
X017018Y002608D02*
X017067Y002608D01*
X017115Y002560D01*
X017163Y002608D01*
X017212Y002608D01*
X017115Y002560D02*
X017115Y002512D01*
X017018Y002608D02*
X016970Y002560D01*
X016970Y002463D01*
X017018Y002415D01*
X017540Y002157D02*
X017540Y001963D01*
X017588Y001915D01*
X017685Y001915D01*
X017733Y001963D01*
X017733Y002060D01*
X017637Y002060D01*
X017733Y002157D02*
X017685Y002205D01*
X017588Y002205D01*
X017540Y002157D01*
X017835Y002205D02*
X017835Y001915D01*
X018028Y001915D02*
X017835Y002205D01*
X018028Y002205D02*
X018028Y001915D01*
X018129Y001915D02*
X018129Y002205D01*
X018274Y002205D01*
X018323Y002157D01*
X018323Y001963D01*
X018274Y001915D01*
X018129Y001915D01*
X018085Y001330D02*
X018085Y001137D01*
X018181Y001040D01*
X018278Y001137D01*
X018278Y001330D01*
X017983Y001330D02*
X017790Y001330D01*
X017790Y001185D01*
X017887Y001233D01*
X017935Y001233D01*
X017983Y001185D01*
X017983Y001088D01*
X017935Y001040D01*
X017838Y001040D01*
X017790Y001088D01*
X017260Y003248D02*
X017163Y003345D01*
X016970Y003345D01*
X018055Y003993D02*
X018055Y004042D01*
X018103Y004090D01*
X018200Y004090D01*
X018248Y004042D01*
X018248Y003993D01*
X018200Y003945D01*
X018103Y003945D01*
X018055Y003993D01*
X018103Y004090D02*
X018055Y004138D01*
X018055Y004187D01*
X018103Y004235D01*
X018200Y004235D01*
X018248Y004187D01*
X018248Y004138D01*
X018200Y004090D01*
X018210Y014415D02*
X018403Y014560D01*
X018210Y014705D01*
X018012Y014705D02*
X018012Y014415D01*
X018108Y014415D02*
X017915Y014415D01*
X017915Y014608D02*
X018012Y014705D01*
X018385Y015510D02*
X018385Y015800D01*
X018530Y015800D01*
X018578Y015752D01*
X018578Y015655D01*
X018530Y015607D01*
X018385Y015607D01*
X018680Y015510D02*
X018776Y015510D01*
X018728Y015510D02*
X018728Y015800D01*
X018680Y015800D02*
X018776Y015800D01*
X018876Y015752D02*
X018876Y015558D01*
X018924Y015510D01*
X019021Y015510D01*
X019070Y015558D01*
X019171Y015510D02*
X019171Y015800D01*
X019070Y015752D02*
X019021Y015800D01*
X018924Y015800D01*
X018876Y015752D01*
X019171Y015607D02*
X019364Y015800D01*
X019465Y015800D02*
X019562Y015800D01*
X019514Y015800D02*
X019514Y015510D01*
X019562Y015510D02*
X019465Y015510D01*
X019364Y015510D02*
X019219Y015655D01*
X019662Y015800D02*
X019855Y015800D01*
X019759Y015800D02*
X019759Y015510D01*
X019956Y015558D02*
X020005Y015510D01*
X020102Y015510D01*
X020150Y015558D01*
X020150Y015607D01*
X020102Y015655D01*
X020053Y015655D01*
X020102Y015655D02*
X020150Y015703D01*
X020150Y015752D01*
X020102Y015800D01*
X020005Y015800D01*
X019956Y015752D01*
D12*
X014607Y011500D02*
X014180Y011500D01*
X014394Y011287D02*
X014394Y011714D01*
X015600Y006400D02*
X016750Y006400D01*
X016850Y006300D01*
X016850Y002500D01*
X016750Y002400D01*
X015600Y002400D01*
X010050Y018650D02*
X010052Y018697D01*
X010058Y018745D01*
X010067Y018791D01*
X010080Y018837D01*
X010096Y018881D01*
X010117Y018925D01*
X010140Y018966D01*
X010166Y019005D01*
X010196Y019042D01*
X010229Y019077D01*
X010264Y019109D01*
X010301Y019138D01*
X011250Y018650D02*
X011248Y018605D01*
X011243Y018559D01*
X011235Y018515D01*
X011223Y018471D01*
X011207Y018428D01*
X011189Y018386D01*
X011167Y018346D01*
X011143Y018308D01*
X011116Y018272D01*
X011086Y018237D01*
X011053Y018206D01*
X011018Y018176D01*
X011250Y018650D02*
X011248Y018695D01*
X011243Y018741D01*
X011235Y018785D01*
X011223Y018829D01*
X011207Y018872D01*
X011189Y018914D01*
X011167Y018954D01*
X011143Y018992D01*
X011116Y019028D01*
X011086Y019063D01*
X011053Y019094D01*
X011018Y019124D01*
X010050Y018650D02*
X010052Y018604D01*
X010057Y018558D01*
X010066Y018512D01*
X010078Y018467D01*
X010094Y018424D01*
X010113Y018382D01*
X010136Y018341D01*
X010161Y018302D01*
X010189Y018266D01*
X010220Y018231D01*
X010254Y018199D01*
X010290Y018170D01*
X007801Y019138D02*
X007764Y019109D01*
X007729Y019077D01*
X007696Y019042D01*
X007666Y019005D01*
X007640Y018966D01*
X007617Y018925D01*
X007596Y018881D01*
X007580Y018837D01*
X007567Y018791D01*
X007558Y018745D01*
X007552Y018697D01*
X007550Y018650D01*
X008518Y018176D02*
X008553Y018206D01*
X008586Y018237D01*
X008616Y018272D01*
X008643Y018308D01*
X008667Y018346D01*
X008689Y018386D01*
X008707Y018428D01*
X008723Y018471D01*
X008735Y018515D01*
X008743Y018559D01*
X008748Y018605D01*
X008750Y018650D01*
X007790Y018170D02*
X007754Y018199D01*
X007720Y018231D01*
X007689Y018266D01*
X007661Y018302D01*
X007636Y018341D01*
X007613Y018382D01*
X007594Y018424D01*
X007578Y018467D01*
X007566Y018512D01*
X007557Y018558D01*
X007552Y018604D01*
X007550Y018650D01*
X008518Y019124D02*
X008553Y019094D01*
X008586Y019063D01*
X008616Y019028D01*
X008643Y018992D01*
X008667Y018954D01*
X008689Y018914D01*
X008707Y018872D01*
X008723Y018829D01*
X008735Y018785D01*
X008743Y018741D01*
X008748Y018695D01*
X008750Y018650D01*
X002290Y018170D02*
X002254Y018199D01*
X002220Y018231D01*
X002189Y018266D01*
X002161Y018302D01*
X002136Y018341D01*
X002113Y018382D01*
X002094Y018424D01*
X002078Y018467D01*
X002066Y018512D01*
X002057Y018558D01*
X002052Y018604D01*
X002050Y018650D01*
X003018Y018176D02*
X003053Y018206D01*
X003086Y018237D01*
X003116Y018272D01*
X003143Y018308D01*
X003167Y018346D01*
X003189Y018386D01*
X003207Y018428D01*
X003223Y018471D01*
X003235Y018515D01*
X003243Y018559D01*
X003248Y018605D01*
X003250Y018650D01*
X002301Y019138D02*
X002264Y019109D01*
X002229Y019077D01*
X002196Y019042D01*
X002166Y019005D01*
X002140Y018966D01*
X002117Y018925D01*
X002096Y018881D01*
X002080Y018837D01*
X002067Y018791D01*
X002058Y018745D01*
X002052Y018697D01*
X002050Y018650D01*
X003018Y019124D02*
X003053Y019094D01*
X003086Y019063D01*
X003116Y019028D01*
X003143Y018992D01*
X003167Y018954D01*
X003189Y018914D01*
X003207Y018872D01*
X003223Y018829D01*
X003235Y018785D01*
X003243Y018741D01*
X003248Y018695D01*
X003250Y018650D01*
D13*
X011920Y018650D02*
X012227Y018650D01*
X012227Y018727D02*
X012227Y018420D01*
X012380Y018420D02*
X012611Y018420D01*
X012687Y018497D01*
X012687Y018650D01*
X012611Y018727D01*
X012380Y018727D01*
X012380Y018267D01*
X011920Y018420D02*
X011920Y018727D01*
X012073Y018880D01*
X012227Y018727D01*
X012380Y019170D02*
X012534Y019170D01*
X012457Y019170D02*
X012457Y019477D01*
X012380Y019477D01*
X012457Y019630D02*
X012457Y019707D01*
X012227Y019630D02*
X011920Y019630D01*
X012073Y019630D02*
X012073Y019170D01*
X012687Y019247D02*
X012764Y019170D01*
X012994Y019170D01*
X012994Y019093D02*
X012994Y019477D01*
X012764Y019477D01*
X012687Y019400D01*
X012687Y019247D01*
X012841Y019017D02*
X012918Y019017D01*
X012994Y019093D01*
X013148Y019170D02*
X013301Y019170D01*
X013224Y019170D02*
X013224Y019477D01*
X013148Y019477D01*
X013224Y019630D02*
X013224Y019707D01*
X013531Y019477D02*
X013455Y019400D01*
X013531Y019323D01*
X013685Y019323D01*
X013762Y019247D01*
X013685Y019170D01*
X013455Y019170D01*
X013531Y019477D02*
X013762Y019477D01*
X013915Y019477D02*
X014068Y019477D01*
X013992Y019554D02*
X013992Y019247D01*
X014068Y019170D01*
X014068Y018880D02*
X014068Y018420D01*
X013915Y018420D02*
X014222Y018420D01*
X014375Y018497D02*
X014452Y018420D01*
X014606Y018420D01*
X014682Y018497D01*
X014682Y018650D01*
X014606Y018727D01*
X014529Y018727D01*
X014375Y018650D01*
X014375Y018880D01*
X014682Y018880D01*
X014682Y019170D02*
X014913Y019170D01*
X014989Y019247D01*
X014989Y019554D01*
X014913Y019630D01*
X014682Y019630D01*
X014682Y019170D01*
X015143Y019170D02*
X015296Y019170D01*
X015219Y019170D02*
X015219Y019477D01*
X015143Y019477D01*
X015219Y019630D02*
X015219Y019707D01*
X015450Y019477D02*
X015450Y019170D01*
X015450Y019323D02*
X015603Y019477D01*
X015680Y019477D01*
X015833Y019477D02*
X015910Y019477D01*
X015910Y019170D01*
X015833Y019170D02*
X015987Y019170D01*
X016140Y019170D02*
X016370Y019170D01*
X016447Y019247D01*
X016447Y019400D01*
X016370Y019477D01*
X016140Y019477D01*
X016140Y019630D02*
X016140Y019170D01*
X016601Y019247D02*
X016677Y019323D01*
X016908Y019323D01*
X016908Y019400D02*
X016908Y019170D01*
X016677Y019170D01*
X016601Y019247D01*
X016677Y019477D02*
X016831Y019477D01*
X016908Y019400D01*
X015910Y019630D02*
X015910Y019707D01*
X014068Y018880D02*
X013915Y018727D01*
X013762Y018804D02*
X013762Y018957D01*
X013762Y018804D02*
X013685Y018727D01*
X013071Y018727D02*
X012994Y018727D01*
X012841Y018573D01*
X012841Y018420D02*
X012841Y018727D01*
X015440Y017724D02*
X015440Y017494D01*
X015901Y017494D01*
X015901Y017724D01*
X015824Y017801D01*
X015747Y017801D01*
X015670Y017724D01*
X015670Y017494D01*
X015747Y017341D02*
X015824Y017341D01*
X015901Y017264D01*
X015901Y017110D01*
X015824Y017034D01*
X015824Y016880D02*
X015440Y016880D01*
X015517Y017034D02*
X015440Y017110D01*
X015440Y017264D01*
X015517Y017341D01*
X015670Y017264D02*
X015670Y017110D01*
X015594Y017034D01*
X015517Y017034D01*
X015824Y016880D02*
X015901Y016803D01*
X015901Y016650D01*
X015824Y016573D01*
X015440Y016573D01*
X015670Y017264D02*
X015747Y017341D01*
X015670Y017724D02*
X015594Y017801D01*
X015517Y017801D01*
X015440Y017724D01*
D14*
X018650Y015150D02*
X018650Y014650D01*
X018900Y014400D01*
X018650Y014150D01*
X018650Y013650D01*
X018900Y013400D01*
X018650Y013150D01*
X018650Y012650D01*
X018900Y012400D01*
X018650Y012150D01*
X018650Y011650D01*
X018900Y011400D01*
X018650Y011150D01*
X018650Y010650D01*
X018900Y010400D01*
X019400Y010400D01*
X019650Y010650D01*
X019650Y011150D01*
X019400Y011400D01*
X019650Y011650D01*
X019650Y012150D01*
X019400Y012400D01*
X019650Y012650D01*
X019650Y013150D01*
X019400Y013400D01*
X019650Y013650D01*
X019650Y014150D01*
X019400Y014400D01*
X019650Y014650D01*
X019650Y015150D01*
X019400Y015400D01*
X018900Y015400D01*
X018650Y015150D01*
X014666Y010650D02*
X014668Y010712D01*
X014674Y010775D01*
X014684Y010836D01*
X014698Y010897D01*
X014715Y010957D01*
X014736Y011016D01*
X014762Y011073D01*
X014790Y011128D01*
X014822Y011182D01*
X014858Y011233D01*
X014896Y011283D01*
X014938Y011329D01*
X014982Y011373D01*
X015030Y011414D01*
X015079Y011452D01*
X015131Y011486D01*
X015185Y011517D01*
X015241Y011545D01*
X015299Y011569D01*
X015358Y011590D01*
X015418Y011606D01*
X015479Y011619D01*
X015541Y011628D01*
X015603Y011633D01*
X015666Y011634D01*
X015728Y011631D01*
X015790Y011624D01*
X015852Y011613D01*
X015912Y011598D01*
X015972Y011580D01*
X016030Y011558D01*
X016087Y011532D01*
X016142Y011502D01*
X016195Y011469D01*
X016246Y011433D01*
X016294Y011394D01*
X016340Y011351D01*
X016383Y011306D01*
X016423Y011258D01*
X016460Y011208D01*
X016494Y011155D01*
X016525Y011101D01*
X016551Y011045D01*
X016575Y010987D01*
X016594Y010927D01*
X016610Y010867D01*
X016622Y010805D01*
X016630Y010744D01*
X016634Y010681D01*
X016634Y010619D01*
X016630Y010556D01*
X016622Y010495D01*
X016610Y010433D01*
X016594Y010373D01*
X016575Y010313D01*
X016551Y010255D01*
X016525Y010199D01*
X016494Y010145D01*
X016460Y010092D01*
X016423Y010042D01*
X016383Y009994D01*
X016340Y009949D01*
X016294Y009906D01*
X016246Y009867D01*
X016195Y009831D01*
X016142Y009798D01*
X016087Y009768D01*
X016030Y009742D01*
X015972Y009720D01*
X015912Y009702D01*
X015852Y009687D01*
X015790Y009676D01*
X015728Y009669D01*
X015666Y009666D01*
X015603Y009667D01*
X015541Y009672D01*
X015479Y009681D01*
X015418Y009694D01*
X015358Y009710D01*
X015299Y009731D01*
X015241Y009755D01*
X015185Y009783D01*
X015131Y009814D01*
X015079Y009848D01*
X015030Y009886D01*
X014982Y009927D01*
X014938Y009971D01*
X014896Y010017D01*
X014858Y010067D01*
X014822Y010118D01*
X014790Y010172D01*
X014762Y010227D01*
X014736Y010284D01*
X014715Y010343D01*
X014698Y010403D01*
X014684Y010464D01*
X014674Y010525D01*
X014668Y010588D01*
X014666Y010650D01*
X015950Y010100D02*
X016350Y010100D01*
X018650Y009400D02*
X018650Y008900D01*
X018900Y008650D01*
X018650Y008400D01*
X018650Y007900D01*
X018900Y007650D01*
X018650Y007400D01*
X018650Y006900D01*
X018900Y006650D01*
X018650Y006400D01*
X018650Y005900D01*
X018900Y005650D01*
X019400Y005650D01*
X019650Y005900D01*
X019650Y006400D01*
X019400Y006650D01*
X019650Y006900D01*
X019650Y007400D01*
X019400Y007650D01*
X019650Y007900D01*
X019650Y008400D01*
X019400Y008650D01*
X019650Y008900D01*
X019650Y009400D01*
X019400Y009650D01*
X018900Y009650D01*
X018650Y009400D01*
X018900Y004650D02*
X018650Y004400D01*
X018650Y003900D01*
X018900Y003650D01*
X018650Y003400D01*
X018650Y002900D01*
X018900Y002650D01*
X018650Y002400D01*
X018650Y001900D01*
X018900Y001650D01*
X018650Y001400D01*
X018650Y000900D01*
X018900Y000650D01*
X019400Y000650D01*
X019650Y000900D01*
X019650Y001400D01*
X019400Y001650D01*
X019650Y001900D01*
X019650Y002400D01*
X019400Y002650D01*
X019650Y002900D01*
X019650Y003400D01*
X019400Y003650D01*
X019650Y003900D01*
X019650Y004400D01*
X019400Y004650D01*
X018900Y004650D01*
X001150Y004400D02*
X001150Y003900D01*
X000900Y003650D01*
X001150Y003400D01*
X001150Y002900D01*
X000900Y002650D01*
X001150Y002400D01*
X001150Y001900D01*
X000900Y001650D01*
X001150Y001400D01*
X001150Y000900D01*
X000900Y000650D01*
X000400Y000650D01*
X000150Y000900D01*
X000150Y001400D01*
X000400Y001650D01*
X000150Y001900D01*
X000150Y002400D01*
X000400Y002650D01*
X000150Y002900D01*
X000150Y003400D01*
X000400Y003650D01*
X000150Y003900D01*
X000150Y004400D01*
X000400Y004650D01*
X000900Y004650D01*
X001150Y004400D01*
X000900Y005650D02*
X000400Y005650D01*
X000150Y005900D01*
X000150Y006400D01*
X000400Y006650D01*
X000150Y006900D01*
X000150Y007400D01*
X000400Y007650D01*
X000150Y007900D01*
X000150Y008400D01*
X000400Y008650D01*
X000150Y008900D01*
X000150Y009400D01*
X000400Y009650D01*
X000900Y009650D01*
X001150Y009400D01*
X001150Y008900D01*
X000900Y008650D01*
X001150Y008400D01*
X001150Y007900D01*
X000900Y007650D01*
X001150Y007400D01*
X001150Y006900D01*
X000900Y006650D01*
X001150Y006400D01*
X001150Y005900D01*
X000900Y005650D01*
X000900Y010650D02*
X000400Y010650D01*
X000150Y010900D01*
X000150Y011400D01*
X000400Y011650D01*
X000150Y011900D01*
X000150Y012400D01*
X000400Y012650D01*
X000150Y012900D01*
X000150Y013400D01*
X000400Y013650D01*
X000150Y013900D01*
X000150Y014400D01*
X000400Y014650D01*
X000900Y014650D01*
X001150Y014400D01*
X001150Y013900D01*
X000900Y013650D01*
X001150Y013400D01*
X001150Y012900D01*
X000900Y012650D01*
X001150Y012400D01*
X001150Y011900D01*
X000900Y011650D01*
X001150Y011400D01*
X001150Y010900D01*
X000900Y010650D01*
D15*
X003150Y011150D02*
X003150Y008150D01*
X004150Y008150D01*
X004150Y011150D01*
X003150Y011150D01*
X008900Y016150D02*
X010150Y016150D01*
X010152Y016106D01*
X010158Y016063D01*
X010167Y016021D01*
X010180Y015979D01*
X010197Y015939D01*
X010217Y015900D01*
X010240Y015863D01*
X010267Y015829D01*
X010296Y015796D01*
X010329Y015767D01*
X010363Y015740D01*
X010400Y015717D01*
X010439Y015697D01*
X010479Y015680D01*
X010521Y015667D01*
X010563Y015658D01*
X010606Y015652D01*
X010650Y015650D01*
X010694Y015652D01*
X010737Y015658D01*
X010779Y015667D01*
X010821Y015680D01*
X010861Y015697D01*
X010900Y015717D01*
X010937Y015740D01*
X010971Y015767D01*
X011004Y015796D01*
X011033Y015829D01*
X011060Y015863D01*
X011083Y015900D01*
X011103Y015939D01*
X011120Y015979D01*
X011133Y016021D01*
X011142Y016063D01*
X011148Y016106D01*
X011150Y016150D01*
X012400Y016150D01*
X012400Y002150D01*
X008900Y002150D01*
X008900Y016150D01*
X006650Y003650D02*
X003150Y003650D01*
X003150Y002650D01*
X006650Y002650D01*
X006650Y003650D01*
X008150Y001525D02*
X011650Y001525D01*
X011650Y000525D01*
X008150Y000525D01*
X008150Y001525D01*
D16*
X016610Y002580D03*
D17*
X015400Y002675D03*
X015400Y006125D03*
D18*
X015300Y005400D03*
X015300Y004400D03*
X015300Y003400D03*
D19*
X015400Y003900D03*
X015400Y004900D03*
D20*
X014400Y007638D02*
X014400Y007662D01*
X006662Y010150D02*
X006638Y010150D01*
X005162Y010150D02*
X005138Y010150D01*
X007400Y016888D02*
X007400Y016912D01*
X001912Y003150D02*
X001888Y003150D01*
D21*
X002205Y003235D02*
X002205Y003285D01*
X002230Y003310D01*
X002205Y003358D02*
X002280Y003358D01*
X002255Y003408D01*
X002255Y003433D01*
X002280Y003458D01*
X002330Y003458D01*
X002355Y003433D01*
X002355Y003383D01*
X002330Y003358D01*
X002330Y003310D02*
X002355Y003285D01*
X002355Y003235D01*
X002330Y003210D01*
X002230Y003210D01*
X002205Y003235D01*
X002205Y003358D02*
X002205Y003458D01*
X004085Y003695D02*
X004085Y003845D01*
X004160Y003845D01*
X004185Y003820D01*
X004185Y003770D01*
X004160Y003745D01*
X004085Y003745D01*
X004135Y003745D02*
X004185Y003695D01*
X004233Y003770D02*
X004333Y003770D01*
X004308Y003695D02*
X004308Y003845D01*
X004233Y003770D01*
X004210Y004445D02*
X004210Y004595D01*
X004160Y004545D01*
X004160Y004445D02*
X004260Y004445D01*
X004307Y004445D02*
X004307Y004595D01*
X004382Y004545D02*
X004307Y004495D01*
X004382Y004445D01*
X004070Y005755D02*
X004095Y005780D01*
X004095Y005830D01*
X004070Y005855D01*
X004045Y005855D01*
X004020Y005830D01*
X004020Y005805D01*
X004020Y005830D02*
X003995Y005855D01*
X003970Y005855D01*
X003945Y005830D01*
X003945Y005780D01*
X003970Y005755D01*
X003970Y005902D02*
X003945Y005927D01*
X003945Y005977D01*
X003970Y006002D01*
X003995Y006002D01*
X004020Y005977D01*
X004045Y006002D01*
X004070Y006002D01*
X004095Y005977D01*
X004095Y005927D01*
X004070Y005902D01*
X004020Y005952D02*
X004020Y005977D01*
X004070Y006050D02*
X003970Y006050D01*
X003945Y006075D01*
X003945Y006125D01*
X003970Y006150D01*
X004070Y006050D01*
X004095Y006075D01*
X004095Y006125D01*
X004070Y006150D01*
X003970Y006150D01*
X003345Y006027D02*
X003345Y005977D01*
X003320Y005952D01*
X003345Y005905D02*
X003295Y005855D01*
X003295Y005880D02*
X003295Y005805D01*
X003345Y005805D02*
X003195Y005805D01*
X003195Y005880D01*
X003220Y005905D01*
X003270Y005905D01*
X003295Y005880D01*
X003220Y005952D02*
X003195Y005977D01*
X003195Y006027D01*
X003220Y006052D01*
X003245Y006052D01*
X003270Y006027D01*
X003295Y006052D01*
X003320Y006052D01*
X003345Y006027D01*
X003270Y006027D02*
X003270Y006002D01*
X003095Y005977D02*
X003045Y005902D01*
X002995Y005977D01*
X002945Y005902D02*
X003095Y005902D01*
X003095Y005855D02*
X003095Y005755D01*
X003095Y005805D02*
X002945Y005805D01*
X002995Y005755D01*
X002345Y005805D02*
X002195Y005805D01*
X002195Y005880D01*
X002220Y005905D01*
X002270Y005905D01*
X002295Y005880D01*
X002295Y005805D01*
X002295Y005855D02*
X002345Y005905D01*
X002345Y005952D02*
X002245Y006052D01*
X002220Y006052D01*
X002195Y006027D01*
X002195Y005977D01*
X002220Y005952D01*
X002345Y005952D02*
X002345Y006052D01*
X004720Y009805D02*
X004820Y009805D01*
X004845Y009830D01*
X004845Y009880D01*
X004820Y009905D01*
X004770Y009952D02*
X004770Y010052D01*
X004845Y010027D02*
X004695Y010027D01*
X004770Y009952D01*
X004720Y009905D02*
X004695Y009880D01*
X004695Y009830D01*
X004720Y009805D01*
X006195Y009830D02*
X006220Y009805D01*
X006320Y009805D01*
X006345Y009830D01*
X006345Y009880D01*
X006320Y009905D01*
X006345Y009952D02*
X006245Y010052D01*
X006220Y010052D01*
X006195Y010027D01*
X006195Y009977D01*
X006220Y009952D01*
X006220Y009905D02*
X006195Y009880D01*
X006195Y009830D01*
X006345Y009952D02*
X006345Y010052D01*
X006945Y010026D02*
X007095Y010026D01*
X007095Y009976D02*
X007095Y010076D01*
X007070Y010123D02*
X007095Y010148D01*
X007095Y010223D01*
X006995Y010223D01*
X007020Y010271D02*
X007020Y010321D01*
X006945Y010271D02*
X006945Y010371D01*
X006945Y010271D02*
X007095Y010271D01*
X007070Y010123D02*
X006995Y010123D01*
X006945Y010026D02*
X006995Y009976D01*
X007070Y009927D02*
X007095Y009927D01*
X007095Y009902D01*
X007070Y009902D01*
X007070Y009927D01*
X007070Y009855D02*
X007095Y009830D01*
X007095Y009780D01*
X007070Y009755D01*
X006970Y009855D01*
X007070Y009855D01*
X007070Y009755D02*
X006970Y009755D01*
X006945Y009780D01*
X006945Y009830D01*
X006970Y009855D01*
X003875Y013205D02*
X003825Y013205D01*
X003800Y013230D01*
X003900Y013330D01*
X003900Y013230D01*
X003875Y013205D01*
X003800Y013230D02*
X003800Y013330D01*
X003825Y013355D01*
X003875Y013355D01*
X003900Y013330D01*
X003752Y013330D02*
X003752Y013305D01*
X003727Y013280D01*
X003752Y013255D01*
X003752Y013230D01*
X003727Y013205D01*
X003677Y013205D01*
X003652Y013230D01*
X003605Y013230D02*
X003580Y013205D01*
X003530Y013205D01*
X003505Y013230D01*
X003555Y013280D02*
X003580Y013280D01*
X003605Y013255D01*
X003605Y013230D01*
X003580Y013280D02*
X003605Y013305D01*
X003605Y013330D01*
X003580Y013355D01*
X003530Y013355D01*
X003505Y013330D01*
X003652Y013330D02*
X003677Y013355D01*
X003727Y013355D01*
X003752Y013330D01*
X003727Y013280D02*
X003702Y013280D01*
X003727Y013955D02*
X003702Y013980D01*
X003727Y013955D02*
X003777Y013955D01*
X003802Y013980D01*
X003802Y014030D01*
X003777Y014055D01*
X003752Y014055D01*
X003702Y014030D01*
X003702Y014105D01*
X003802Y014105D01*
X003655Y014080D02*
X003655Y014030D01*
X003630Y014005D01*
X003555Y014005D01*
X003555Y013955D02*
X003555Y014105D01*
X003630Y014105D01*
X003655Y014080D01*
X003605Y014005D02*
X003655Y013955D01*
X003658Y014695D02*
X003658Y014845D01*
X003608Y014795D01*
X003560Y014770D02*
X003535Y014745D01*
X003460Y014745D01*
X003460Y014695D02*
X003460Y014845D01*
X003535Y014845D01*
X003560Y014820D01*
X003560Y014770D01*
X003510Y014745D02*
X003560Y014695D01*
X003608Y014695D02*
X003708Y014695D01*
X003733Y015445D02*
X003683Y015445D01*
X003658Y015470D01*
X003758Y015570D01*
X003758Y015470D01*
X003733Y015445D01*
X003658Y015470D02*
X003658Y015570D01*
X003683Y015595D01*
X003733Y015595D01*
X003758Y015570D01*
X003610Y015570D02*
X003610Y015545D01*
X003585Y015520D01*
X003610Y015495D01*
X003610Y015470D01*
X003585Y015445D01*
X003535Y015445D01*
X003510Y015470D01*
X003463Y015470D02*
X003438Y015445D01*
X003388Y015445D01*
X003363Y015470D01*
X003413Y015520D02*
X003438Y015520D01*
X003463Y015495D01*
X003463Y015470D01*
X003438Y015520D02*
X003463Y015545D01*
X003463Y015570D01*
X003438Y015595D01*
X003388Y015595D01*
X003363Y015570D01*
X003510Y015570D02*
X003535Y015595D01*
X003585Y015595D01*
X003610Y015570D01*
X003585Y015520D02*
X003560Y015520D01*
X007142Y017220D02*
X007242Y017320D01*
X007242Y017220D01*
X007217Y017195D01*
X007167Y017195D01*
X007142Y017220D01*
X007142Y017320D01*
X007167Y017345D01*
X007217Y017345D01*
X007242Y017320D01*
X007289Y017220D02*
X007314Y017220D01*
X007314Y017195D01*
X007289Y017195D01*
X007289Y017220D01*
X007363Y017195D02*
X007463Y017195D01*
X007413Y017195D02*
X007413Y017345D01*
X007363Y017295D01*
X007510Y017295D02*
X007510Y017220D01*
X007535Y017195D01*
X007610Y017195D01*
X007610Y017295D01*
X007658Y017270D02*
X007708Y017270D01*
X007658Y017345D02*
X007758Y017345D01*
X007658Y017345D02*
X007658Y017195D01*
X007683Y016595D02*
X007708Y016570D01*
X007708Y016545D01*
X007683Y016520D01*
X007708Y016495D01*
X007708Y016470D01*
X007683Y016445D01*
X007633Y016445D01*
X007608Y016470D01*
X007560Y016470D02*
X007535Y016445D01*
X007485Y016445D01*
X007460Y016470D01*
X007460Y016570D01*
X007485Y016595D01*
X007535Y016595D01*
X007560Y016570D01*
X007608Y016570D02*
X007633Y016595D01*
X007683Y016595D01*
X007683Y016520D02*
X007658Y016520D01*
X014080Y008105D02*
X014055Y008080D01*
X014055Y007980D01*
X014080Y007955D01*
X014130Y007955D01*
X014155Y007980D01*
X014202Y007955D02*
X014302Y007955D01*
X014252Y007955D02*
X014252Y008105D01*
X014202Y008055D01*
X014155Y008080D02*
X014130Y008105D01*
X014080Y008105D01*
D22*
X004025Y004150D03*
X003900Y013650D03*
X003400Y015150D03*
D23*
X003650Y006150D03*
X002650Y006150D03*
M02*
