G75*
%MOIN*%
%OFA0B0*%
%FSLAX24Y24*%
%IPPOS*%
%LPD*%
%AMOC8*
5,1,8,0,0,1.08239X$1,22.5*
%
%ADD10R,0.0740X0.0740*%
%ADD11C,0.0740*%
%ADD12C,0.0520*%
%ADD13C,0.0515*%
%ADD14C,0.1122*%
%ADD15C,0.0600*%
%ADD16OC8,0.0520*%
%ADD17OC8,0.0520*%
%ADD18OC8,0.0650*%
%ADD19R,0.0650X0.0650*%
%ADD20C,0.0650*%
%ADD21R,0.0356X0.0356*%
%ADD22C,0.0150*%
%ADD23C,0.0160*%
%ADD24C,0.0100*%
D10*
X000650Y004150D03*
X000650Y009150D03*
X000650Y014150D03*
X019150Y014900D03*
X019150Y009150D03*
X019150Y004150D03*
D11*
X019150Y003150D03*
X019150Y002150D03*
X019150Y001150D03*
X019150Y006150D03*
X019150Y007150D03*
X019150Y008150D03*
X019150Y010900D03*
X019150Y011900D03*
X019150Y012900D03*
X019150Y013900D03*
X000650Y013150D03*
X000650Y012150D03*
X000650Y011150D03*
X000650Y008150D03*
X000650Y007150D03*
X000650Y006150D03*
X000650Y003150D03*
X000650Y002150D03*
X000650Y001150D03*
D12*
X008390Y002650D02*
X008910Y002650D01*
X008910Y003650D02*
X008390Y003650D01*
X008390Y004650D02*
X008910Y004650D01*
X008910Y005650D02*
X008390Y005650D01*
X008390Y006650D02*
X008910Y006650D01*
X008910Y007650D02*
X008390Y007650D01*
X008390Y008650D02*
X008910Y008650D01*
X008910Y009650D02*
X008390Y009650D01*
X008390Y010650D02*
X008910Y010650D01*
X008910Y011650D02*
X008390Y011650D01*
X008390Y012650D02*
X008910Y012650D01*
X008910Y013650D02*
X008390Y013650D01*
X008390Y014650D02*
X008910Y014650D01*
X008910Y015650D02*
X008390Y015650D01*
X012390Y015650D02*
X012910Y015650D01*
X012910Y014650D02*
X012390Y014650D01*
X012390Y013650D02*
X012910Y013650D01*
X012910Y012650D02*
X012390Y012650D01*
X012390Y011650D02*
X012910Y011650D01*
X012910Y010650D02*
X012390Y010650D01*
X012390Y009650D02*
X012910Y009650D01*
X012910Y008650D02*
X012390Y008650D01*
X012390Y007650D02*
X012910Y007650D01*
X012910Y006650D02*
X012390Y006650D01*
X012390Y005650D02*
X012910Y005650D01*
X012910Y004650D02*
X012390Y004650D01*
X012390Y003650D02*
X012910Y003650D01*
X012910Y002650D02*
X012390Y002650D01*
D13*
X017200Y016550D03*
X017570Y017170D03*
X018260Y017170D03*
X018570Y016550D03*
X017900Y016550D03*
D14*
X016463Y018650D03*
X019337Y018650D03*
D15*
X016450Y005400D02*
X015850Y005400D01*
X015850Y004400D02*
X016450Y004400D01*
X016450Y003400D02*
X015850Y003400D01*
D16*
X010650Y018150D03*
X010650Y019150D03*
X008150Y019150D03*
X008150Y018150D03*
X002650Y018150D03*
X002650Y019150D03*
D17*
X003650Y010650D03*
X003650Y009650D03*
X003650Y008650D03*
D18*
X003748Y003150D03*
X006150Y003150D03*
X008650Y001025D03*
X011052Y001025D03*
D19*
X015150Y010650D03*
D20*
X016150Y010650D03*
D21*
X017150Y009650D03*
X018150Y009150D03*
X018150Y011900D03*
X017150Y014900D03*
X015150Y015650D03*
X014400Y014900D03*
X015150Y013900D03*
X013900Y016400D03*
X014400Y016980D03*
X013900Y017650D03*
X011150Y015150D03*
X010650Y015650D03*
X009900Y016400D03*
X011650Y014150D03*
X009900Y013650D03*
X009900Y013150D03*
X009900Y011650D03*
X009900Y010650D03*
X009900Y009150D03*
X010150Y008150D03*
X009650Y007150D03*
X010150Y006650D03*
X010150Y006150D03*
X011150Y004900D03*
X011650Y005650D03*
X011400Y003900D03*
X010150Y002650D03*
X010650Y002150D03*
X009650Y003650D03*
X007400Y001150D03*
X004650Y000650D03*
X004650Y003150D03*
X005900Y004650D03*
X005900Y005150D03*
X005150Y005900D03*
X003650Y005150D03*
X002650Y005150D03*
X001900Y004150D03*
X002650Y003150D03*
X001900Y006400D03*
X004400Y009150D03*
X005150Y009150D03*
X006650Y009150D03*
X005150Y011150D03*
X003650Y011650D03*
X004400Y012650D03*
X005150Y013650D03*
X006650Y014650D03*
X007400Y013650D03*
X006400Y016900D03*
X005900Y018150D03*
X001900Y016400D03*
X001900Y013650D03*
X002650Y013150D03*
X001900Y011150D03*
X013650Y003650D03*
X014150Y004650D03*
X014400Y005400D03*
X014900Y004900D03*
X014900Y002650D03*
X014150Y001650D03*
X013650Y002150D03*
X017650Y005650D03*
X015400Y007650D03*
X013900Y008650D03*
D22*
X015400Y007650D02*
X015650Y007650D01*
X016150Y008900D02*
X017150Y007900D01*
X017150Y004650D01*
X016900Y004400D01*
X016150Y004400D01*
X014400Y005400D02*
X014400Y014900D01*
X014400Y016980D01*
X011650Y014150D02*
X011650Y005650D01*
X011150Y004900D02*
X011150Y015150D01*
X010650Y015650D02*
X010650Y002150D01*
X010150Y002650D02*
X010150Y001400D01*
X010525Y001025D01*
X011052Y001025D01*
X011400Y001650D02*
X011400Y003900D01*
X010150Y002650D02*
X010150Y006150D01*
X010150Y006650D02*
X010150Y008150D01*
X009900Y009150D02*
X009900Y010650D01*
X009900Y011650D02*
X009900Y013150D01*
X009900Y013650D02*
X009900Y016400D01*
X010650Y018150D02*
X009400Y019900D01*
X006150Y019900D01*
X005150Y018900D01*
X005150Y013650D01*
X004400Y012650D02*
X004400Y009150D01*
X005150Y009150D02*
X005150Y005900D01*
X005900Y005150D02*
X005900Y018150D01*
X006400Y017150D02*
X006400Y016900D01*
X006650Y014650D02*
X006650Y009150D01*
X005150Y011150D02*
X004900Y011400D01*
X003650Y011650D02*
X003650Y010650D01*
X001900Y011150D02*
X001900Y013400D01*
X001900Y013650D01*
X001900Y016400D01*
X002650Y013150D02*
X002650Y005150D01*
X002650Y003150D01*
X001900Y004150D02*
X001900Y006400D01*
X004650Y003150D02*
X004650Y000650D01*
X005400Y000900D02*
X005400Y003900D01*
X005900Y004650D01*
X007400Y001150D02*
X007400Y013650D01*
X014150Y004650D02*
X014150Y001650D01*
X013650Y002150D02*
X013650Y003650D01*
X011400Y001650D02*
X012150Y000900D01*
X017650Y000900D01*
X018150Y001400D01*
X018150Y009150D01*
X019150Y008150D02*
X019400Y008150D01*
X019900Y007650D01*
X019900Y000650D01*
X019650Y000400D01*
X005900Y000400D01*
X005400Y000900D01*
X017650Y013900D02*
X017650Y014400D01*
X018150Y014900D01*
X019150Y014900D01*
D23*
X017650Y013900D02*
X017650Y005650D01*
X014900Y004900D02*
X014900Y002650D01*
X009650Y003650D02*
X009650Y007150D01*
X013900Y008650D02*
X013900Y016400D01*
X013900Y017650D01*
X015150Y015650D02*
X015150Y013900D01*
X015150Y010650D01*
X015150Y009900D01*
X016150Y008900D01*
X017150Y009650D02*
X017150Y014900D01*
X018150Y011900D02*
X018150Y009150D01*
D24*
X020150Y000150D02*
X000150Y000150D01*
X000150Y000946D01*
X000192Y000844D01*
X000344Y000692D01*
X000543Y000610D01*
X000757Y000610D01*
X000956Y000692D01*
X001108Y000844D01*
X001190Y001043D01*
X001190Y001257D01*
X001108Y001456D01*
X000956Y001608D01*
X000854Y001650D01*
X000956Y001692D01*
X001108Y001844D01*
X001190Y002043D01*
X001190Y002257D01*
X001108Y002456D01*
X000956Y002608D01*
X000828Y002661D01*
X000850Y002668D01*
X000923Y002705D01*
X000989Y002753D01*
X001047Y002811D01*
X001095Y002877D01*
X001132Y002950D01*
X001157Y003028D01*
X001169Y003100D01*
X000700Y003100D01*
X000700Y003200D01*
X001169Y003200D01*
X001157Y003272D01*
X001132Y003350D01*
X001095Y003423D01*
X001047Y003489D01*
X000989Y003547D01*
X000923Y003595D01*
X000893Y003610D01*
X001090Y003610D01*
X001190Y003710D01*
X001190Y004590D01*
X001090Y004690D01*
X000210Y004690D01*
X000150Y004630D01*
X000150Y005946D01*
X000192Y005844D01*
X000344Y005692D01*
X000543Y005610D01*
X000757Y005610D01*
X000956Y005692D01*
X001108Y005844D01*
X001190Y006043D01*
X001190Y006257D01*
X001552Y006257D01*
X001552Y006159D02*
X001190Y006159D01*
X001190Y006257D02*
X001108Y006456D01*
X000956Y006608D01*
X000854Y006650D01*
X000956Y006692D01*
X001108Y006844D01*
X001190Y007043D01*
X001190Y007257D01*
X001108Y007456D01*
X000956Y007608D01*
X000854Y007650D01*
X000956Y007692D01*
X001108Y007844D01*
X001190Y008043D01*
X001190Y008257D01*
X001108Y008456D01*
X000956Y008608D01*
X000951Y008610D01*
X001090Y008610D01*
X001190Y008710D01*
X001190Y009590D01*
X001090Y009690D01*
X000210Y009690D01*
X000150Y009630D01*
X000150Y010946D01*
X000192Y010844D01*
X000344Y010692D01*
X000543Y010610D01*
X000757Y010610D01*
X000956Y010692D01*
X001108Y010844D01*
X001190Y011043D01*
X001190Y011257D01*
X001108Y011456D01*
X000956Y011608D01*
X000854Y011650D01*
X000956Y011692D01*
X001108Y011844D01*
X001190Y012043D01*
X001190Y012257D01*
X001108Y012456D01*
X000956Y012608D01*
X000854Y012650D01*
X000956Y012692D01*
X001108Y012844D01*
X001190Y013043D01*
X001190Y013257D01*
X001108Y013456D01*
X000956Y013608D01*
X000951Y013610D01*
X001090Y013610D01*
X001190Y013710D01*
X001190Y014590D01*
X001090Y014690D01*
X000210Y014690D01*
X000150Y014630D01*
X000150Y020150D01*
X020150Y020150D01*
X020150Y000150D01*
X000150Y000150D01*
X000150Y000249D02*
X005705Y000249D01*
X005761Y000192D02*
X005851Y000155D01*
X019699Y000155D01*
X019789Y000192D01*
X019858Y000261D01*
X020108Y000511D01*
X020145Y000601D01*
X020145Y007699D01*
X020108Y007789D01*
X020039Y007858D01*
X019690Y008206D01*
X019690Y008257D01*
X019608Y008456D01*
X019456Y008608D01*
X019451Y008610D01*
X019590Y008610D01*
X019690Y008710D01*
X019690Y009590D01*
X019590Y009690D01*
X018710Y009690D01*
X018610Y009590D01*
X018610Y008710D01*
X018710Y008610D01*
X018849Y008610D01*
X018844Y008608D01*
X018692Y008456D01*
X018610Y008257D01*
X018610Y008043D01*
X018692Y007844D01*
X018844Y007692D01*
X018946Y007650D01*
X018844Y007608D01*
X018692Y007456D01*
X018610Y007257D01*
X018610Y007043D01*
X018692Y006844D01*
X018844Y006692D01*
X018946Y006650D01*
X018844Y006608D01*
X018692Y006456D01*
X018610Y006257D01*
X018395Y006257D01*
X018395Y006159D02*
X018610Y006159D01*
X018610Y006257D02*
X018610Y006043D01*
X018692Y005844D01*
X018844Y005692D01*
X019043Y005610D01*
X019257Y005610D01*
X019456Y005692D01*
X019608Y005844D01*
X019655Y005958D01*
X019655Y004625D01*
X019590Y004690D01*
X018710Y004690D01*
X018610Y004590D01*
X018610Y003710D01*
X018710Y003610D01*
X018907Y003610D01*
X018877Y003595D01*
X018811Y003547D01*
X018753Y003489D01*
X018705Y003423D01*
X018668Y003350D01*
X018643Y003272D01*
X018631Y003200D01*
X019100Y003200D01*
X019100Y003100D01*
X018631Y003100D01*
X018643Y003028D01*
X018668Y002950D01*
X018705Y002877D01*
X018753Y002811D01*
X018811Y002753D01*
X018877Y002705D01*
X018950Y002668D01*
X018972Y002661D01*
X018844Y002608D01*
X018692Y002456D01*
X018610Y002257D01*
X018610Y002043D01*
X018692Y001844D01*
X018844Y001692D01*
X018946Y001650D01*
X018844Y001608D01*
X018692Y001456D01*
X018610Y001257D01*
X018610Y001043D01*
X018692Y000844D01*
X018844Y000692D01*
X018958Y000645D01*
X011371Y000645D01*
X011546Y000820D01*
X011546Y001157D01*
X012011Y000692D01*
X012101Y000655D01*
X017699Y000655D01*
X017789Y000692D01*
X017858Y000761D01*
X018358Y001261D01*
X018395Y001351D01*
X018395Y008802D01*
X018399Y008802D01*
X018498Y008901D01*
X018498Y009399D01*
X018400Y009497D01*
X018400Y011553D01*
X018498Y011651D01*
X018498Y012149D01*
X018399Y012248D01*
X017901Y012248D01*
X017900Y012247D01*
X017900Y013950D01*
X017895Y013962D01*
X017895Y014299D01*
X018251Y014655D01*
X018610Y014655D01*
X018610Y014460D01*
X018710Y014360D01*
X018849Y014360D01*
X018844Y014358D01*
X018692Y014206D01*
X018610Y014007D01*
X018610Y013793D01*
X018692Y013594D01*
X018844Y013442D01*
X018972Y013389D01*
X018950Y013382D01*
X018877Y013345D01*
X018811Y013297D01*
X018753Y013239D01*
X018705Y013173D01*
X018668Y013100D01*
X018643Y013022D01*
X018631Y012950D01*
X019100Y012950D01*
X019100Y012850D01*
X018631Y012850D01*
X018643Y012778D01*
X018668Y012700D01*
X018705Y012627D01*
X018753Y012561D01*
X018811Y012503D01*
X018877Y012455D01*
X018950Y012418D01*
X018972Y012411D01*
X018844Y012358D01*
X018692Y012206D01*
X018610Y012007D01*
X018610Y011793D01*
X018692Y011594D01*
X018844Y011442D01*
X018946Y011400D01*
X018844Y011358D01*
X018692Y011206D01*
X018610Y011007D01*
X018610Y010793D01*
X018692Y010594D01*
X018844Y010442D01*
X019043Y010360D01*
X019257Y010360D01*
X019456Y010442D01*
X019608Y010594D01*
X019690Y010793D01*
X019690Y011007D01*
X019608Y011206D01*
X019456Y011358D01*
X019354Y011400D01*
X019456Y011442D01*
X019608Y011594D01*
X019690Y011793D01*
X019690Y012007D01*
X019608Y012206D01*
X019456Y012358D01*
X019328Y012411D01*
X019350Y012418D01*
X019423Y012455D01*
X019489Y012503D01*
X019547Y012561D01*
X019595Y012627D01*
X019632Y012700D01*
X019657Y012778D01*
X019669Y012850D01*
X019200Y012850D01*
X019200Y012950D01*
X019669Y012950D01*
X019657Y013022D01*
X019632Y013100D01*
X019595Y013173D01*
X019547Y013239D01*
X019489Y013297D01*
X019423Y013345D01*
X019350Y013382D01*
X019328Y013389D01*
X019456Y013442D01*
X019608Y013594D01*
X019690Y013793D01*
X019690Y014007D01*
X019608Y014206D01*
X019456Y014358D01*
X019451Y014360D01*
X019590Y014360D01*
X019690Y014460D01*
X019690Y015340D01*
X019590Y015440D01*
X018710Y015440D01*
X018610Y015340D01*
X018610Y015145D01*
X018101Y015145D01*
X018011Y015108D01*
X017942Y015039D01*
X017442Y014539D01*
X017405Y014449D01*
X017405Y013962D01*
X017400Y013950D01*
X017400Y009997D01*
X017400Y014553D01*
X017498Y014651D01*
X017498Y015149D01*
X017399Y015248D01*
X016901Y015248D01*
X016802Y015149D01*
X016802Y014651D01*
X016900Y014553D01*
X016900Y009997D01*
X016802Y009899D01*
X016802Y009401D01*
X016901Y009302D01*
X017399Y009302D01*
X017400Y009303D01*
X017400Y005997D01*
X017395Y005992D01*
X017395Y007949D01*
X017358Y008039D01*
X016367Y009030D01*
X016362Y009042D01*
X015400Y010004D01*
X015400Y010155D01*
X015545Y010155D01*
X015645Y010255D01*
X015645Y011045D01*
X015545Y011145D01*
X015400Y011145D01*
X015400Y013553D01*
X015498Y013651D01*
X015498Y014149D01*
X015400Y014247D01*
X015400Y015303D01*
X015498Y015401D01*
X015498Y015899D01*
X015399Y015998D01*
X014901Y015998D01*
X014802Y015899D01*
X014802Y015401D01*
X014900Y015303D01*
X014900Y014247D01*
X014802Y014149D01*
X014802Y013651D01*
X014900Y013553D01*
X014900Y011145D01*
X014755Y011145D01*
X014655Y011045D01*
X014655Y010255D01*
X014755Y010155D01*
X014900Y010155D01*
X014900Y009850D01*
X014938Y009758D01*
X015008Y009688D01*
X016008Y008688D01*
X016020Y008683D01*
X016905Y007799D01*
X016905Y005530D01*
X016848Y005666D01*
X016716Y005798D01*
X016543Y005870D01*
X015757Y005870D01*
X015584Y005798D01*
X015452Y005666D01*
X015380Y005493D01*
X015380Y005307D01*
X015452Y005134D01*
X015584Y005002D01*
X015757Y004930D01*
X016543Y004930D01*
X016716Y005002D01*
X016848Y005134D01*
X016905Y005270D01*
X016905Y004751D01*
X016834Y004681D01*
X016835Y004681D01*
X016834Y004681D02*
X016716Y004798D01*
X016543Y004870D01*
X015757Y004870D01*
X015584Y004798D01*
X015452Y004666D01*
X015380Y004493D01*
X015380Y004307D01*
X015452Y004134D01*
X015584Y004002D01*
X015757Y003930D01*
X016543Y003930D01*
X016716Y004002D01*
X016848Y004134D01*
X016857Y004155D01*
X016949Y004155D01*
X017039Y004192D01*
X017289Y004442D01*
X017358Y004511D01*
X017395Y004601D01*
X017395Y005308D01*
X017401Y005302D01*
X017899Y005302D01*
X017905Y005308D01*
X017905Y001501D01*
X017549Y001145D01*
X012251Y001145D01*
X011645Y001751D01*
X011645Y003552D01*
X011649Y003552D01*
X011748Y003651D01*
X011748Y004149D01*
X011649Y004248D01*
X011151Y004248D01*
X011052Y004149D01*
X011052Y003651D01*
X011151Y003552D01*
X011155Y003552D01*
X011155Y001601D01*
X011189Y001520D01*
X010847Y001520D01*
X010612Y001285D01*
X010395Y001501D01*
X010395Y001808D01*
X010401Y001802D01*
X010899Y001802D01*
X010998Y001901D01*
X010998Y002399D01*
X010899Y002498D01*
X010895Y002498D01*
X010895Y004558D01*
X010901Y004552D01*
X011399Y004552D01*
X011498Y004651D01*
X011498Y005149D01*
X011399Y005248D01*
X011395Y005248D01*
X011395Y005308D01*
X011401Y005302D01*
X011899Y005302D01*
X011998Y005401D01*
X011998Y005472D01*
X012025Y005406D01*
X012146Y005285D01*
X012304Y005220D01*
X012996Y005220D01*
X013154Y005285D01*
X013275Y005406D01*
X013340Y005564D01*
X013340Y005736D01*
X013275Y005894D01*
X013154Y006015D01*
X012996Y006080D01*
X012304Y006080D01*
X012146Y006015D01*
X012025Y005894D01*
X011998Y005828D01*
X011998Y005899D01*
X011899Y005998D01*
X011895Y005998D01*
X011895Y013802D01*
X011899Y013802D01*
X011998Y013901D01*
X011998Y014399D01*
X011899Y014498D01*
X011401Y014498D01*
X011395Y014492D01*
X011395Y014802D01*
X011399Y014802D01*
X011498Y014901D01*
X011498Y015399D01*
X011399Y015498D01*
X010998Y015498D01*
X010998Y015899D01*
X010899Y015998D01*
X010401Y015998D01*
X010302Y015899D01*
X010302Y015401D01*
X010401Y015302D01*
X010405Y015302D01*
X010405Y008492D01*
X010399Y008498D01*
X009901Y008498D01*
X009802Y008399D01*
X009802Y007901D01*
X009901Y007802D01*
X009905Y007802D01*
X009905Y007492D01*
X009899Y007498D01*
X009401Y007498D01*
X009302Y007399D01*
X009302Y006901D01*
X009400Y006803D01*
X009400Y003997D01*
X009302Y003899D01*
X009302Y003828D01*
X009275Y003894D01*
X009154Y004015D01*
X008996Y004080D01*
X008304Y004080D01*
X008146Y004015D01*
X008025Y003894D01*
X007960Y003736D01*
X007960Y003564D01*
X008025Y003406D01*
X008146Y003285D01*
X008304Y003220D01*
X008996Y003220D01*
X009154Y003285D01*
X009275Y003406D01*
X009302Y003472D01*
X009302Y003401D01*
X009401Y003302D01*
X009170Y003302D01*
X009269Y003401D02*
X009303Y003401D01*
X009401Y003302D02*
X009899Y003302D01*
X009905Y003302D01*
X009905Y003308D02*
X009905Y002998D01*
X009901Y002998D01*
X009802Y002899D01*
X009802Y002401D01*
X009901Y002302D01*
X009905Y002302D01*
X009905Y001351D01*
X009942Y001261D01*
X010011Y001192D01*
X010011Y001192D01*
X010386Y000817D01*
X010476Y000780D01*
X010597Y000780D01*
X010732Y000645D01*
X008941Y000645D01*
X009125Y000828D01*
X009125Y000975D01*
X008700Y000975D01*
X008700Y001075D01*
X008600Y001075D01*
X008600Y001500D01*
X008453Y001500D01*
X008175Y001222D01*
X008175Y001075D01*
X008600Y001075D01*
X008600Y000975D01*
X008175Y000975D01*
X008175Y000828D01*
X008359Y000645D01*
X006001Y000645D01*
X005645Y001001D01*
X005645Y003826D01*
X005962Y004302D01*
X006149Y004302D01*
X006248Y004401D01*
X006248Y004899D01*
X006247Y004900D01*
X006248Y004901D01*
X006248Y005399D01*
X006149Y005498D01*
X006145Y005498D01*
X006145Y017802D01*
X006149Y017802D01*
X006248Y017901D01*
X006248Y018399D01*
X006149Y018498D01*
X005651Y018498D01*
X005552Y018399D01*
X005552Y017901D01*
X005651Y017802D01*
X005655Y017802D01*
X005655Y005498D01*
X005651Y005498D01*
X005552Y005399D01*
X005552Y004901D01*
X005553Y004900D01*
X005552Y004899D01*
X005552Y004570D01*
X005210Y004056D01*
X005192Y004039D01*
X005183Y004016D01*
X005169Y003995D01*
X005164Y003971D01*
X005155Y003949D01*
X005155Y003924D01*
X005150Y003900D01*
X005155Y003876D01*
X005155Y000851D01*
X005192Y000761D01*
X005261Y000692D01*
X005761Y000192D01*
X005607Y000347D02*
X004944Y000347D01*
X004899Y000302D02*
X004998Y000401D01*
X004998Y000899D01*
X004899Y000998D01*
X004895Y000998D01*
X004895Y002802D01*
X004899Y002802D01*
X004998Y002901D01*
X004998Y003399D01*
X004899Y003498D01*
X004401Y003498D01*
X004302Y003399D01*
X004302Y002901D01*
X004401Y002802D01*
X004405Y002802D01*
X004405Y000998D01*
X004401Y000998D01*
X004302Y000899D01*
X004302Y000401D01*
X004401Y000302D01*
X004899Y000302D01*
X004998Y000446D02*
X005508Y000446D01*
X005410Y000544D02*
X004998Y000544D01*
X004998Y000643D02*
X005311Y000643D01*
X005213Y000741D02*
X004998Y000741D01*
X004998Y000840D02*
X005160Y000840D01*
X005155Y000938D02*
X004959Y000938D01*
X004895Y001037D02*
X005155Y001037D01*
X005155Y001135D02*
X004895Y001135D01*
X004895Y001234D02*
X005155Y001234D01*
X005155Y001332D02*
X004895Y001332D01*
X004895Y001431D02*
X005155Y001431D01*
X005155Y001529D02*
X004895Y001529D01*
X004895Y001628D02*
X005155Y001628D01*
X005155Y001726D02*
X004895Y001726D01*
X004895Y001825D02*
X005155Y001825D01*
X005155Y001923D02*
X004895Y001923D01*
X004895Y002022D02*
X005155Y002022D01*
X005155Y002120D02*
X004895Y002120D01*
X004895Y002219D02*
X005155Y002219D01*
X005155Y002317D02*
X004895Y002317D01*
X004895Y002416D02*
X005155Y002416D01*
X005155Y002514D02*
X004895Y002514D01*
X004895Y002613D02*
X005155Y002613D01*
X005155Y002711D02*
X004895Y002711D01*
X004906Y002810D02*
X005155Y002810D01*
X005155Y002908D02*
X004998Y002908D01*
X004998Y003007D02*
X005155Y003007D01*
X005155Y003105D02*
X004998Y003105D01*
X004998Y003204D02*
X005155Y003204D01*
X005155Y003302D02*
X004998Y003302D01*
X004996Y003401D02*
X005155Y003401D01*
X005155Y003499D02*
X004099Y003499D01*
X004001Y003598D02*
X005155Y003598D01*
X005155Y003696D02*
X002895Y003696D01*
X002895Y003598D02*
X003496Y003598D01*
X003543Y003645D02*
X003254Y003355D01*
X003254Y002945D01*
X003543Y002655D01*
X003953Y002655D01*
X004243Y002945D01*
X004243Y003355D01*
X003953Y003645D01*
X003543Y003645D01*
X003398Y003499D02*
X002895Y003499D01*
X002895Y003498D02*
X002895Y004802D01*
X002899Y004802D01*
X002998Y004901D01*
X002998Y005399D01*
X002899Y005498D01*
X002895Y005498D01*
X002895Y012802D01*
X002899Y012802D01*
X002998Y012901D01*
X002998Y013399D01*
X002899Y013498D01*
X002401Y013498D01*
X002302Y013399D01*
X002302Y012901D01*
X002401Y012802D01*
X002405Y012802D01*
X002405Y005498D01*
X002401Y005498D01*
X002302Y005399D01*
X002302Y004901D01*
X002401Y004802D01*
X002405Y004802D01*
X002405Y003498D01*
X002401Y003498D01*
X002302Y003399D01*
X002302Y002901D01*
X002401Y002802D01*
X002899Y002802D01*
X002998Y002901D01*
X002998Y003399D01*
X002899Y003498D01*
X002895Y003498D01*
X002996Y003401D02*
X003299Y003401D01*
X003254Y003302D02*
X002998Y003302D01*
X002998Y003204D02*
X003254Y003204D01*
X003254Y003105D02*
X002998Y003105D01*
X002998Y003007D02*
X003254Y003007D01*
X003291Y002908D02*
X002998Y002908D01*
X002906Y002810D02*
X003389Y002810D01*
X003488Y002711D02*
X000930Y002711D01*
X000944Y002613D02*
X004405Y002613D01*
X004405Y002711D02*
X004009Y002711D01*
X004108Y002810D02*
X004394Y002810D01*
X004302Y002908D02*
X004206Y002908D01*
X004243Y003007D02*
X004302Y003007D01*
X004302Y003105D02*
X004243Y003105D01*
X004243Y003204D02*
X004302Y003204D01*
X004302Y003302D02*
X004243Y003302D01*
X004198Y003401D02*
X004304Y003401D01*
X004405Y002514D02*
X001050Y002514D01*
X001125Y002416D02*
X004405Y002416D01*
X004405Y002317D02*
X001165Y002317D01*
X001190Y002219D02*
X004405Y002219D01*
X004405Y002120D02*
X001190Y002120D01*
X001181Y002022D02*
X004405Y002022D01*
X004405Y001923D02*
X001140Y001923D01*
X001088Y001825D02*
X004405Y001825D01*
X004405Y001726D02*
X000990Y001726D01*
X000908Y001628D02*
X004405Y001628D01*
X004405Y001529D02*
X001035Y001529D01*
X001118Y001431D02*
X004405Y001431D01*
X004405Y001332D02*
X001159Y001332D01*
X001190Y001234D02*
X004405Y001234D01*
X004405Y001135D02*
X001190Y001135D01*
X001187Y001037D02*
X004405Y001037D01*
X004341Y000938D02*
X001147Y000938D01*
X001103Y000840D02*
X004302Y000840D01*
X004302Y000741D02*
X001005Y000741D01*
X000836Y000643D02*
X004302Y000643D01*
X004302Y000544D02*
X000150Y000544D01*
X000150Y000446D02*
X004302Y000446D01*
X004356Y000347D02*
X000150Y000347D01*
X000150Y000643D02*
X000464Y000643D01*
X000295Y000741D02*
X000150Y000741D01*
X000150Y000840D02*
X000197Y000840D01*
X000153Y000938D02*
X000150Y000938D01*
X001045Y002810D02*
X002394Y002810D01*
X002302Y002908D02*
X001110Y002908D01*
X001150Y003007D02*
X002302Y003007D01*
X002302Y003105D02*
X000700Y003105D01*
X001168Y003204D02*
X002302Y003204D01*
X002302Y003302D02*
X001147Y003302D01*
X001106Y003401D02*
X002304Y003401D01*
X002405Y003499D02*
X001036Y003499D01*
X000917Y003598D02*
X002405Y003598D01*
X002405Y003696D02*
X001176Y003696D01*
X001190Y003795D02*
X002405Y003795D01*
X002405Y003893D02*
X002240Y003893D01*
X002248Y003901D02*
X002149Y003802D01*
X001651Y003802D01*
X001552Y003901D01*
X001552Y004399D01*
X001651Y004498D01*
X001655Y004498D01*
X001655Y006052D01*
X001651Y006052D01*
X001552Y006151D01*
X001552Y006649D01*
X001651Y006748D01*
X002149Y006748D01*
X002248Y006649D01*
X002248Y006151D01*
X002149Y006052D01*
X002145Y006052D01*
X002145Y004498D01*
X002149Y004498D01*
X002248Y004399D01*
X002248Y003901D01*
X002248Y003992D02*
X002405Y003992D01*
X002405Y004090D02*
X002248Y004090D01*
X002248Y004189D02*
X002405Y004189D01*
X002405Y004287D02*
X002248Y004287D01*
X002248Y004386D02*
X002405Y004386D01*
X002405Y004484D02*
X002163Y004484D01*
X002145Y004583D02*
X002405Y004583D01*
X002405Y004681D02*
X002145Y004681D01*
X002145Y004780D02*
X002405Y004780D01*
X002325Y004878D02*
X002145Y004878D01*
X002145Y004977D02*
X002302Y004977D01*
X002302Y005075D02*
X002145Y005075D01*
X002145Y005174D02*
X002302Y005174D01*
X002302Y005272D02*
X002145Y005272D01*
X002145Y005371D02*
X002302Y005371D01*
X002372Y005469D02*
X002145Y005469D01*
X002145Y005568D02*
X002405Y005568D01*
X002405Y005666D02*
X002145Y005666D01*
X002145Y005765D02*
X002405Y005765D01*
X002405Y005863D02*
X002145Y005863D01*
X002145Y005962D02*
X002405Y005962D01*
X002405Y006060D02*
X002157Y006060D01*
X002248Y006159D02*
X002405Y006159D01*
X002405Y006257D02*
X002248Y006257D01*
X002248Y006356D02*
X002405Y006356D01*
X002405Y006454D02*
X002248Y006454D01*
X002248Y006553D02*
X002405Y006553D01*
X002405Y006651D02*
X002246Y006651D01*
X002405Y006750D02*
X001013Y006750D01*
X001109Y006848D02*
X002405Y006848D01*
X002405Y006947D02*
X001150Y006947D01*
X001190Y007045D02*
X002405Y007045D01*
X002405Y007144D02*
X001190Y007144D01*
X001190Y007242D02*
X002405Y007242D01*
X002405Y007341D02*
X001156Y007341D01*
X001115Y007439D02*
X002405Y007439D01*
X002405Y007538D02*
X001026Y007538D01*
X000888Y007636D02*
X002405Y007636D01*
X002405Y007735D02*
X000998Y007735D01*
X001097Y007833D02*
X002405Y007833D01*
X002405Y007932D02*
X001144Y007932D01*
X001185Y008030D02*
X002405Y008030D01*
X002405Y008129D02*
X001190Y008129D01*
X001190Y008227D02*
X002405Y008227D01*
X002405Y008326D02*
X001162Y008326D01*
X001121Y008424D02*
X002405Y008424D01*
X002405Y008523D02*
X001041Y008523D01*
X001101Y008621D02*
X002405Y008621D01*
X002405Y008720D02*
X001190Y008720D01*
X001190Y008818D02*
X002405Y008818D01*
X002405Y008917D02*
X001190Y008917D01*
X001190Y009015D02*
X002405Y009015D01*
X002405Y009114D02*
X001190Y009114D01*
X001190Y009212D02*
X002405Y009212D01*
X002405Y009311D02*
X001190Y009311D01*
X001190Y009409D02*
X002405Y009409D01*
X002405Y009508D02*
X001190Y009508D01*
X001174Y009606D02*
X002405Y009606D01*
X002405Y009705D02*
X000150Y009705D01*
X000150Y009803D02*
X002405Y009803D01*
X002405Y009902D02*
X000150Y009902D01*
X000150Y010000D02*
X002405Y010000D01*
X002405Y010099D02*
X000150Y010099D01*
X000150Y010197D02*
X002405Y010197D01*
X002405Y010296D02*
X000150Y010296D01*
X000150Y010394D02*
X002405Y010394D01*
X002405Y010493D02*
X000150Y010493D01*
X000150Y010591D02*
X002405Y010591D01*
X002405Y010690D02*
X000949Y010690D01*
X001052Y010788D02*
X002405Y010788D01*
X002405Y010887D02*
X002233Y010887D01*
X002248Y010901D02*
X002149Y010802D01*
X001651Y010802D01*
X001552Y010901D01*
X001552Y011399D01*
X001651Y011498D01*
X001655Y011498D01*
X001655Y013302D01*
X001651Y013302D01*
X001552Y013401D01*
X001552Y013899D01*
X001651Y013998D01*
X001655Y013998D01*
X001655Y016052D01*
X001651Y016052D01*
X001552Y016151D01*
X001552Y016649D01*
X001651Y016748D01*
X002149Y016748D01*
X002248Y016649D01*
X002248Y016151D01*
X002149Y016052D01*
X002145Y016052D01*
X002145Y013998D01*
X002149Y013998D01*
X002248Y013899D01*
X002248Y013401D01*
X002149Y013302D01*
X002145Y013302D01*
X002145Y011498D01*
X002149Y011498D01*
X002248Y011399D01*
X002248Y010901D01*
X002248Y010985D02*
X002405Y010985D01*
X002405Y011084D02*
X002248Y011084D01*
X002248Y011182D02*
X002405Y011182D01*
X002405Y011281D02*
X002248Y011281D01*
X002248Y011379D02*
X002405Y011379D01*
X002405Y011478D02*
X002169Y011478D01*
X002145Y011576D02*
X002405Y011576D01*
X002405Y011675D02*
X002145Y011675D01*
X002145Y011773D02*
X002405Y011773D01*
X002405Y011872D02*
X002145Y011872D01*
X002145Y011970D02*
X002405Y011970D01*
X002405Y012069D02*
X002145Y012069D01*
X002145Y012167D02*
X002405Y012167D01*
X002405Y012266D02*
X002145Y012266D01*
X002145Y012364D02*
X002405Y012364D01*
X002405Y012463D02*
X002145Y012463D01*
X002145Y012561D02*
X002405Y012561D01*
X002405Y012660D02*
X002145Y012660D01*
X002145Y012758D02*
X002405Y012758D01*
X002347Y012857D02*
X002145Y012857D01*
X002145Y012955D02*
X002302Y012955D01*
X002302Y013054D02*
X002145Y013054D01*
X002145Y013152D02*
X002302Y013152D01*
X002302Y013251D02*
X002145Y013251D01*
X002196Y013349D02*
X002302Y013349D01*
X002351Y013448D02*
X002248Y013448D01*
X002248Y013546D02*
X004802Y013546D01*
X004802Y013448D02*
X002949Y013448D01*
X002998Y013349D02*
X004854Y013349D01*
X004901Y013302D02*
X004802Y013401D01*
X004802Y013899D01*
X004901Y013998D01*
X004905Y013998D01*
X004905Y018949D01*
X004942Y019039D01*
X005942Y020039D01*
X006011Y020108D01*
X006101Y020145D01*
X009372Y020145D01*
X009392Y020150D01*
X009420Y020145D01*
X009449Y020145D01*
X009468Y020137D01*
X009488Y020134D01*
X009512Y020119D01*
X009539Y020108D01*
X009553Y020093D01*
X009571Y020082D01*
X009588Y020059D01*
X009608Y020039D01*
X009616Y020020D01*
X010258Y019120D01*
X010620Y019120D01*
X010620Y019180D01*
X010620Y019560D01*
X010480Y019560D01*
X010240Y019320D01*
X010240Y019180D01*
X010620Y019180D01*
X010680Y019180D01*
X010680Y019560D01*
X010820Y019560D01*
X011060Y019320D01*
X011060Y019180D01*
X010680Y019180D01*
X010680Y019120D01*
X011060Y019120D01*
X011060Y018980D01*
X010820Y018740D01*
X010680Y018740D01*
X010680Y019120D01*
X010620Y019120D01*
X010620Y018740D01*
X010530Y018740D01*
X010644Y018580D01*
X010828Y018580D01*
X011080Y018328D01*
X011080Y017972D01*
X010828Y017720D01*
X010472Y017720D01*
X010220Y017972D01*
X010220Y018328D01*
X010221Y018329D01*
X009274Y019655D01*
X006251Y019655D01*
X005395Y018799D01*
X005395Y013998D01*
X005399Y013998D01*
X005498Y013899D01*
X005498Y013401D01*
X005399Y013302D01*
X004901Y013302D01*
X004802Y013645D02*
X002248Y013645D01*
X002248Y013743D02*
X004802Y013743D01*
X004802Y013842D02*
X002248Y013842D01*
X002207Y013940D02*
X004843Y013940D01*
X004905Y014039D02*
X002145Y014039D01*
X002145Y014137D02*
X004905Y014137D01*
X004905Y014236D02*
X002145Y014236D01*
X002145Y014334D02*
X004905Y014334D01*
X004905Y014433D02*
X002145Y014433D01*
X002145Y014531D02*
X004905Y014531D01*
X004905Y014630D02*
X002145Y014630D01*
X002145Y014728D02*
X004905Y014728D01*
X004905Y014827D02*
X002145Y014827D01*
X002145Y014925D02*
X004905Y014925D01*
X004905Y015024D02*
X002145Y015024D01*
X002145Y015122D02*
X004905Y015122D01*
X004905Y015221D02*
X002145Y015221D01*
X002145Y015319D02*
X004905Y015319D01*
X004905Y015418D02*
X002145Y015418D01*
X002145Y015516D02*
X004905Y015516D01*
X004905Y015615D02*
X002145Y015615D01*
X002145Y015713D02*
X004905Y015713D01*
X004905Y015812D02*
X002145Y015812D01*
X002145Y015910D02*
X004905Y015910D01*
X004905Y016009D02*
X002145Y016009D01*
X002204Y016107D02*
X004905Y016107D01*
X004905Y016206D02*
X002248Y016206D01*
X002248Y016304D02*
X004905Y016304D01*
X004905Y016403D02*
X002248Y016403D01*
X002248Y016501D02*
X004905Y016501D01*
X004905Y016600D02*
X002248Y016600D01*
X002199Y016698D02*
X004905Y016698D01*
X004905Y016797D02*
X000150Y016797D01*
X000150Y016895D02*
X004905Y016895D01*
X004905Y016994D02*
X000150Y016994D01*
X000150Y017092D02*
X004905Y017092D01*
X004905Y017191D02*
X000150Y017191D01*
X000150Y017289D02*
X004905Y017289D01*
X004905Y017388D02*
X000150Y017388D01*
X000150Y017486D02*
X004905Y017486D01*
X004905Y017585D02*
X000150Y017585D01*
X000150Y017683D02*
X004905Y017683D01*
X004905Y017782D02*
X002890Y017782D01*
X002828Y017720D02*
X003080Y017972D01*
X003080Y018328D01*
X002828Y018580D01*
X002472Y018580D01*
X002220Y018328D01*
X002220Y017972D01*
X002472Y017720D01*
X002828Y017720D01*
X002988Y017880D02*
X004905Y017880D01*
X004905Y017979D02*
X003080Y017979D01*
X003080Y018077D02*
X004905Y018077D01*
X004905Y018176D02*
X003080Y018176D01*
X003080Y018274D02*
X004905Y018274D01*
X004905Y018373D02*
X003036Y018373D01*
X002937Y018471D02*
X004905Y018471D01*
X004905Y018570D02*
X002839Y018570D01*
X002820Y018740D02*
X003060Y018980D01*
X003060Y019120D01*
X002680Y019120D01*
X002680Y019180D01*
X002620Y019180D01*
X002620Y019560D01*
X002480Y019560D01*
X002240Y019320D01*
X002240Y019180D01*
X002620Y019180D01*
X002620Y019120D01*
X002240Y019120D01*
X002240Y018980D01*
X002480Y018740D01*
X002620Y018740D01*
X002620Y019120D01*
X002680Y019120D01*
X002680Y018740D01*
X002820Y018740D01*
X002846Y018767D02*
X004905Y018767D01*
X004905Y018865D02*
X002945Y018865D01*
X003043Y018964D02*
X004911Y018964D01*
X004966Y019062D02*
X003060Y019062D01*
X003060Y019180D02*
X003060Y019320D01*
X002820Y019560D01*
X002680Y019560D01*
X002680Y019180D01*
X003060Y019180D01*
X003060Y019259D02*
X005163Y019259D01*
X005261Y019358D02*
X003022Y019358D01*
X002924Y019456D02*
X005360Y019456D01*
X005458Y019555D02*
X002825Y019555D01*
X002680Y019555D02*
X002620Y019555D01*
X002620Y019456D02*
X002680Y019456D01*
X002680Y019358D02*
X002620Y019358D01*
X002620Y019259D02*
X002680Y019259D01*
X002680Y019161D02*
X005064Y019161D01*
X005462Y018865D02*
X007855Y018865D01*
X007757Y018964D02*
X005560Y018964D01*
X005659Y019062D02*
X007740Y019062D01*
X007740Y019120D02*
X007740Y018980D01*
X007980Y018740D01*
X008120Y018740D01*
X008120Y019120D01*
X007740Y019120D01*
X007740Y019180D02*
X008120Y019180D01*
X008120Y019560D01*
X007980Y019560D01*
X007740Y019320D01*
X007740Y019180D01*
X007740Y019259D02*
X005856Y019259D01*
X005954Y019358D02*
X007778Y019358D01*
X007876Y019456D02*
X006053Y019456D01*
X006151Y019555D02*
X007975Y019555D01*
X008120Y019555D02*
X008180Y019555D01*
X008180Y019560D02*
X008180Y019180D01*
X008120Y019180D01*
X008120Y019120D01*
X008180Y019120D01*
X008180Y019180D01*
X008560Y019180D01*
X008560Y019320D01*
X008320Y019560D01*
X008180Y019560D01*
X008180Y019456D02*
X008120Y019456D01*
X008120Y019358D02*
X008180Y019358D01*
X008180Y019259D02*
X008120Y019259D01*
X008120Y019161D02*
X005757Y019161D01*
X005557Y019653D02*
X000150Y019653D01*
X000150Y019555D02*
X002475Y019555D01*
X002376Y019456D02*
X000150Y019456D01*
X000150Y019358D02*
X002278Y019358D01*
X002240Y019259D02*
X000150Y019259D01*
X000150Y019161D02*
X002620Y019161D01*
X002620Y019062D02*
X002680Y019062D01*
X002680Y018964D02*
X002620Y018964D01*
X002620Y018865D02*
X002680Y018865D01*
X002680Y018767D02*
X002620Y018767D01*
X002454Y018767D02*
X000150Y018767D01*
X000150Y018865D02*
X002355Y018865D01*
X002257Y018964D02*
X000150Y018964D01*
X000150Y019062D02*
X002240Y019062D01*
X002461Y018570D02*
X000150Y018570D01*
X000150Y018668D02*
X004905Y018668D01*
X005395Y018668D02*
X009979Y018668D01*
X010049Y018570D02*
X008339Y018570D01*
X008328Y018580D02*
X008580Y018328D01*
X008580Y017972D01*
X008328Y017720D01*
X007972Y017720D01*
X007720Y017972D01*
X007720Y018328D01*
X007972Y018580D01*
X008328Y018580D01*
X008437Y018471D02*
X010120Y018471D01*
X010190Y018373D02*
X008536Y018373D01*
X008580Y018274D02*
X010220Y018274D01*
X010220Y018176D02*
X008580Y018176D01*
X008580Y018077D02*
X010220Y018077D01*
X010220Y017979D02*
X008580Y017979D01*
X008488Y017880D02*
X010312Y017880D01*
X010410Y017782D02*
X008390Y017782D01*
X007910Y017782D02*
X006145Y017782D01*
X006145Y017683D02*
X013552Y017683D01*
X013552Y017585D02*
X006145Y017585D01*
X006145Y017486D02*
X013552Y017486D01*
X013552Y017401D02*
X013650Y017303D01*
X013650Y016747D01*
X013552Y016649D01*
X013552Y016151D01*
X013650Y016053D01*
X013650Y008997D01*
X013552Y008899D01*
X013552Y008401D01*
X013651Y008302D01*
X014149Y008302D01*
X014155Y008308D01*
X014155Y005748D01*
X014151Y005748D01*
X014052Y005649D01*
X014052Y005151D01*
X014151Y005052D01*
X014552Y005052D01*
X014552Y004651D01*
X014650Y004553D01*
X014650Y002997D01*
X014552Y002899D01*
X014552Y002401D01*
X014651Y002302D01*
X015149Y002302D01*
X015248Y002401D01*
X015248Y002899D01*
X015150Y002997D01*
X015150Y004553D01*
X015248Y004651D01*
X015248Y005149D01*
X015149Y005248D01*
X014748Y005248D01*
X014748Y005649D01*
X014649Y005748D01*
X014645Y005748D01*
X014645Y014552D01*
X014649Y014552D01*
X014748Y014651D01*
X014748Y015149D01*
X014649Y015248D01*
X014645Y015248D01*
X014645Y016632D01*
X014649Y016632D01*
X014748Y016731D01*
X014748Y017229D01*
X014649Y017328D01*
X014175Y017328D01*
X014248Y017401D01*
X014248Y017899D01*
X014149Y017998D01*
X013651Y017998D01*
X013552Y017899D01*
X013552Y017401D01*
X013566Y017388D02*
X006145Y017388D01*
X006145Y017289D02*
X013650Y017289D01*
X013650Y017191D02*
X006145Y017191D01*
X006145Y017092D02*
X013650Y017092D01*
X013650Y016994D02*
X006145Y016994D01*
X006145Y016895D02*
X013650Y016895D01*
X013650Y016797D02*
X006145Y016797D01*
X006145Y016698D02*
X009601Y016698D01*
X009552Y016649D02*
X009552Y016151D01*
X009651Y016052D01*
X009655Y016052D01*
X009655Y013998D01*
X009651Y013998D01*
X009552Y013899D01*
X009552Y013401D01*
X009553Y013400D01*
X009552Y013399D01*
X009552Y012901D01*
X009651Y012802D01*
X009655Y012802D01*
X009655Y011998D01*
X009651Y011998D01*
X009552Y011899D01*
X009552Y011401D01*
X009651Y011302D01*
X010149Y011302D01*
X010248Y011401D01*
X010248Y011899D01*
X010149Y011998D01*
X010145Y011998D01*
X010145Y012802D01*
X010149Y012802D01*
X010248Y012901D01*
X010248Y013399D01*
X010247Y013400D01*
X010248Y013401D01*
X010248Y013899D01*
X010149Y013998D01*
X010145Y013998D01*
X010145Y016052D01*
X010149Y016052D01*
X010248Y016151D01*
X010248Y016649D01*
X010149Y016748D01*
X009651Y016748D01*
X009552Y016649D01*
X009552Y016600D02*
X006145Y016600D01*
X006145Y016501D02*
X009552Y016501D01*
X009552Y016403D02*
X006145Y016403D01*
X006145Y016304D02*
X009552Y016304D01*
X009552Y016206D02*
X006145Y016206D01*
X006145Y016107D02*
X009596Y016107D01*
X009655Y016009D02*
X009160Y016009D01*
X009154Y016015D02*
X008996Y016080D01*
X008304Y016080D01*
X008146Y016015D01*
X008025Y015894D01*
X007960Y015736D01*
X007960Y015564D01*
X008025Y015406D01*
X008146Y015285D01*
X008304Y015220D01*
X008996Y015220D01*
X009154Y015285D01*
X009275Y015406D01*
X009340Y015564D01*
X009340Y015736D01*
X009275Y015894D01*
X009154Y016015D01*
X009258Y015910D02*
X009655Y015910D01*
X009655Y015812D02*
X009309Y015812D01*
X009340Y015713D02*
X009655Y015713D01*
X009655Y015615D02*
X009340Y015615D01*
X009320Y015516D02*
X009655Y015516D01*
X009655Y015418D02*
X009279Y015418D01*
X009187Y015319D02*
X009655Y015319D01*
X009655Y015221D02*
X008997Y015221D01*
X008996Y015080D02*
X009154Y015015D01*
X009275Y014894D01*
X009340Y014736D01*
X009340Y014564D01*
X009275Y014406D01*
X009154Y014285D01*
X008996Y014220D01*
X008304Y014220D01*
X008146Y014285D01*
X008025Y014406D01*
X007960Y014564D01*
X007960Y014736D01*
X008025Y014894D01*
X008146Y015015D01*
X008304Y015080D01*
X008996Y015080D01*
X009132Y015024D02*
X009655Y015024D01*
X009655Y015122D02*
X006145Y015122D01*
X006145Y015024D02*
X008168Y015024D01*
X008057Y014925D02*
X006972Y014925D01*
X006998Y014899D02*
X006899Y014998D01*
X006401Y014998D01*
X006302Y014899D01*
X006302Y014401D01*
X006401Y014302D01*
X006405Y014302D01*
X006405Y009498D01*
X006401Y009498D01*
X006302Y009399D01*
X006302Y008901D01*
X006401Y008802D01*
X006899Y008802D01*
X006998Y008901D01*
X006998Y009399D01*
X006899Y009498D01*
X006895Y009498D01*
X006895Y014302D01*
X006899Y014302D01*
X006998Y014401D01*
X006998Y014899D01*
X006998Y014827D02*
X007998Y014827D01*
X007960Y014728D02*
X006998Y014728D01*
X006998Y014630D02*
X007960Y014630D01*
X007974Y014531D02*
X006998Y014531D01*
X006998Y014433D02*
X008015Y014433D01*
X008098Y014334D02*
X006931Y014334D01*
X006895Y014236D02*
X008267Y014236D01*
X008304Y014080D02*
X008146Y014015D01*
X008025Y013894D01*
X007960Y013736D01*
X007960Y013564D01*
X008025Y013406D01*
X008146Y013285D01*
X008304Y013220D01*
X008996Y013220D01*
X009154Y013285D01*
X009275Y013406D01*
X009340Y013564D01*
X009340Y013736D01*
X009275Y013894D01*
X009154Y014015D01*
X008996Y014080D01*
X008304Y014080D01*
X008204Y014039D02*
X006895Y014039D01*
X006895Y014137D02*
X009655Y014137D01*
X009655Y014039D02*
X009096Y014039D01*
X009228Y013940D02*
X009593Y013940D01*
X009552Y013842D02*
X009296Y013842D01*
X009337Y013743D02*
X009552Y013743D01*
X009552Y013645D02*
X009340Y013645D01*
X009332Y013546D02*
X009552Y013546D01*
X009552Y013448D02*
X009292Y013448D01*
X009217Y013349D02*
X009552Y013349D01*
X009552Y013251D02*
X009069Y013251D01*
X008996Y013080D02*
X009154Y013015D01*
X009275Y012894D01*
X009340Y012736D01*
X009340Y012564D01*
X009275Y012406D01*
X009154Y012285D01*
X008996Y012220D01*
X008304Y012220D01*
X008146Y012285D01*
X008025Y012406D01*
X007960Y012564D01*
X007960Y012736D01*
X008025Y012894D01*
X008146Y013015D01*
X008304Y013080D01*
X008996Y013080D01*
X009060Y013054D02*
X009552Y013054D01*
X009552Y013152D02*
X007645Y013152D01*
X007645Y013054D02*
X008240Y013054D01*
X008087Y012955D02*
X007645Y012955D01*
X007645Y012857D02*
X008010Y012857D01*
X007969Y012758D02*
X007645Y012758D01*
X007645Y012660D02*
X007960Y012660D01*
X007961Y012561D02*
X007645Y012561D01*
X007645Y012463D02*
X008002Y012463D01*
X008068Y012364D02*
X007645Y012364D01*
X007645Y012266D02*
X008194Y012266D01*
X008277Y012069D02*
X007645Y012069D01*
X007645Y012167D02*
X009655Y012167D01*
X009655Y012069D02*
X009023Y012069D01*
X008996Y012080D02*
X009154Y012015D01*
X009275Y011894D01*
X009340Y011736D01*
X009340Y011564D01*
X009275Y011406D01*
X009154Y011285D01*
X008996Y011220D01*
X008304Y011220D01*
X008146Y011285D01*
X008025Y011406D01*
X007960Y011564D01*
X007960Y011736D01*
X008025Y011894D01*
X008146Y012015D01*
X008304Y012080D01*
X008996Y012080D01*
X009106Y012266D02*
X009655Y012266D01*
X009655Y012364D02*
X009232Y012364D01*
X009298Y012463D02*
X009655Y012463D01*
X009655Y012561D02*
X009339Y012561D01*
X009340Y012660D02*
X009655Y012660D01*
X009655Y012758D02*
X009331Y012758D01*
X009290Y012857D02*
X009597Y012857D01*
X009552Y012955D02*
X009213Y012955D01*
X010145Y012758D02*
X010405Y012758D01*
X010405Y012660D02*
X010145Y012660D01*
X010145Y012561D02*
X010405Y012561D01*
X010405Y012463D02*
X010145Y012463D01*
X010145Y012364D02*
X010405Y012364D01*
X010405Y012266D02*
X010145Y012266D01*
X010145Y012167D02*
X010405Y012167D01*
X010405Y012069D02*
X010145Y012069D01*
X010177Y011970D02*
X010405Y011970D01*
X010405Y011872D02*
X010248Y011872D01*
X010248Y011773D02*
X010405Y011773D01*
X010405Y011675D02*
X010248Y011675D01*
X010248Y011576D02*
X010405Y011576D01*
X010405Y011478D02*
X010248Y011478D01*
X010226Y011379D02*
X010405Y011379D01*
X010405Y011281D02*
X009142Y011281D01*
X009247Y011379D02*
X009574Y011379D01*
X009552Y011478D02*
X009304Y011478D01*
X009340Y011576D02*
X009552Y011576D01*
X009552Y011675D02*
X009340Y011675D01*
X009325Y011773D02*
X009552Y011773D01*
X009552Y011872D02*
X009284Y011872D01*
X009198Y011970D02*
X009623Y011970D01*
X009651Y010998D02*
X009552Y010899D01*
X009552Y010401D01*
X009651Y010302D01*
X009655Y010302D01*
X009655Y009498D01*
X009651Y009498D01*
X009552Y009399D01*
X009552Y008901D01*
X009651Y008802D01*
X010149Y008802D01*
X010248Y008901D01*
X010248Y009399D01*
X010149Y009498D01*
X010145Y009498D01*
X010145Y010302D01*
X010149Y010302D01*
X010248Y010401D01*
X010248Y010899D01*
X010149Y010998D01*
X009651Y010998D01*
X009638Y010985D02*
X009183Y010985D01*
X009154Y011015D02*
X008996Y011080D01*
X008304Y011080D01*
X008146Y011015D01*
X008025Y010894D01*
X007960Y010736D01*
X007960Y010564D01*
X008025Y010406D01*
X008146Y010285D01*
X008304Y010220D01*
X008996Y010220D01*
X009154Y010285D01*
X009275Y010406D01*
X009340Y010564D01*
X009340Y010736D01*
X009275Y010894D01*
X009154Y011015D01*
X009278Y010887D02*
X009552Y010887D01*
X009552Y010788D02*
X009318Y010788D01*
X009340Y010690D02*
X009552Y010690D01*
X009552Y010591D02*
X009340Y010591D01*
X009310Y010493D02*
X009552Y010493D01*
X009559Y010394D02*
X009262Y010394D01*
X009164Y010296D02*
X009655Y010296D01*
X009655Y010197D02*
X007645Y010197D01*
X007645Y010099D02*
X009655Y010099D01*
X009655Y010000D02*
X009126Y010000D01*
X009125Y010001D02*
X009067Y010030D01*
X009006Y010050D01*
X008942Y010060D01*
X008680Y010060D01*
X008680Y009680D01*
X008620Y009680D01*
X008620Y009620D01*
X008680Y009620D01*
X008680Y009240D01*
X008942Y009240D01*
X009006Y009250D01*
X009067Y009270D01*
X009125Y009299D01*
X009177Y009337D01*
X009223Y009383D01*
X009261Y009435D01*
X009290Y009493D01*
X009310Y009554D01*
X009320Y009618D01*
X009320Y009620D01*
X008680Y009620D01*
X008680Y009680D01*
X009320Y009680D01*
X009320Y009682D01*
X009310Y009746D01*
X009290Y009807D01*
X009261Y009865D01*
X009223Y009917D01*
X009177Y009963D01*
X009125Y010001D01*
X009234Y009902D02*
X009655Y009902D01*
X009655Y009803D02*
X009291Y009803D01*
X009317Y009705D02*
X009655Y009705D01*
X009655Y009606D02*
X009318Y009606D01*
X009295Y009508D02*
X009655Y009508D01*
X009562Y009409D02*
X009242Y009409D01*
X009140Y009311D02*
X009552Y009311D01*
X009552Y009212D02*
X007645Y009212D01*
X007645Y009114D02*
X009552Y009114D01*
X009552Y009015D02*
X009153Y009015D01*
X009154Y009015D02*
X008996Y009080D01*
X008304Y009080D01*
X008146Y009015D01*
X008025Y008894D01*
X007960Y008736D01*
X007960Y008564D01*
X008025Y008406D01*
X008146Y008285D01*
X008304Y008220D01*
X008996Y008220D01*
X009154Y008285D01*
X009275Y008406D01*
X009340Y008564D01*
X009340Y008736D01*
X009275Y008894D01*
X009154Y009015D01*
X009252Y008917D02*
X009552Y008917D01*
X009635Y008818D02*
X009306Y008818D01*
X009340Y008720D02*
X010405Y008720D01*
X010405Y008818D02*
X010165Y008818D01*
X010248Y008917D02*
X010405Y008917D01*
X010405Y009015D02*
X010248Y009015D01*
X010248Y009114D02*
X010405Y009114D01*
X010405Y009212D02*
X010248Y009212D01*
X010248Y009311D02*
X010405Y009311D01*
X010405Y009409D02*
X010238Y009409D01*
X010145Y009508D02*
X010405Y009508D01*
X010405Y009606D02*
X010145Y009606D01*
X010145Y009705D02*
X010405Y009705D01*
X010405Y009803D02*
X010145Y009803D01*
X010145Y009902D02*
X010405Y009902D01*
X010405Y010000D02*
X010145Y010000D01*
X010145Y010099D02*
X010405Y010099D01*
X010405Y010197D02*
X010145Y010197D01*
X010145Y010296D02*
X010405Y010296D01*
X010405Y010394D02*
X010241Y010394D01*
X010248Y010493D02*
X010405Y010493D01*
X010405Y010591D02*
X010248Y010591D01*
X010248Y010690D02*
X010405Y010690D01*
X010405Y010788D02*
X010248Y010788D01*
X010248Y010887D02*
X010405Y010887D01*
X010405Y010985D02*
X010162Y010985D01*
X010405Y011084D02*
X007645Y011084D01*
X007645Y011182D02*
X010405Y011182D01*
X011895Y011182D02*
X013650Y011182D01*
X013650Y011084D02*
X011895Y011084D01*
X011895Y010985D02*
X012117Y010985D01*
X012146Y011015D02*
X012025Y010894D01*
X011960Y010736D01*
X011960Y010564D01*
X012025Y010406D01*
X012146Y010285D01*
X012304Y010220D01*
X012996Y010220D01*
X013154Y010285D01*
X013275Y010406D01*
X013340Y010564D01*
X013340Y010736D01*
X013275Y010894D01*
X013154Y011015D01*
X012996Y011080D01*
X012304Y011080D01*
X012146Y011015D01*
X012022Y010887D02*
X011895Y010887D01*
X011895Y010788D02*
X011982Y010788D01*
X011960Y010690D02*
X011895Y010690D01*
X011895Y010591D02*
X011960Y010591D01*
X011990Y010493D02*
X011895Y010493D01*
X011895Y010394D02*
X012038Y010394D01*
X012136Y010296D02*
X011895Y010296D01*
X011895Y010197D02*
X013650Y010197D01*
X013650Y010099D02*
X011895Y010099D01*
X011895Y010000D02*
X012132Y010000D01*
X012146Y010015D02*
X012025Y009894D01*
X011960Y009736D01*
X011960Y009564D01*
X012025Y009406D01*
X012146Y009285D01*
X012304Y009220D01*
X012996Y009220D01*
X013154Y009285D01*
X013275Y009406D01*
X013340Y009564D01*
X013340Y009736D01*
X013275Y009894D01*
X013154Y010015D01*
X012996Y010080D01*
X012304Y010080D01*
X012146Y010015D01*
X012033Y009902D02*
X011895Y009902D01*
X011895Y009803D02*
X011988Y009803D01*
X011960Y009705D02*
X011895Y009705D01*
X011895Y009606D02*
X011960Y009606D01*
X011983Y009508D02*
X011895Y009508D01*
X011895Y009409D02*
X012024Y009409D01*
X012121Y009311D02*
X011895Y009311D01*
X011895Y009212D02*
X013650Y009212D01*
X013650Y009114D02*
X011895Y009114D01*
X011895Y009015D02*
X012147Y009015D01*
X012146Y009015D02*
X012025Y008894D01*
X011960Y008736D01*
X011960Y008564D01*
X012025Y008406D01*
X012146Y008285D01*
X012304Y008220D01*
X012996Y008220D01*
X013154Y008285D01*
X013275Y008406D01*
X013340Y008564D01*
X013340Y008736D01*
X013275Y008894D01*
X013154Y009015D01*
X012996Y009080D01*
X012304Y009080D01*
X012146Y009015D01*
X012048Y008917D02*
X011895Y008917D01*
X011895Y008818D02*
X011994Y008818D01*
X011960Y008720D02*
X011895Y008720D01*
X011895Y008621D02*
X011960Y008621D01*
X011977Y008523D02*
X011895Y008523D01*
X011895Y008424D02*
X012018Y008424D01*
X012106Y008326D02*
X011895Y008326D01*
X011895Y008227D02*
X012287Y008227D01*
X012304Y008080D02*
X012146Y008015D01*
X012025Y007894D01*
X011960Y007736D01*
X011960Y007564D01*
X012025Y007406D01*
X012146Y007285D01*
X012304Y007220D01*
X012996Y007220D01*
X013154Y007285D01*
X013275Y007406D01*
X013340Y007564D01*
X013340Y007736D01*
X013275Y007894D01*
X013154Y008015D01*
X012996Y008080D01*
X012304Y008080D01*
X012184Y008030D02*
X011895Y008030D01*
X011895Y007932D02*
X012063Y007932D01*
X012000Y007833D02*
X011895Y007833D01*
X011895Y007735D02*
X011960Y007735D01*
X011960Y007636D02*
X011895Y007636D01*
X011895Y007538D02*
X011971Y007538D01*
X012012Y007439D02*
X011895Y007439D01*
X011895Y007341D02*
X012091Y007341D01*
X012251Y007242D02*
X011895Y007242D01*
X011895Y007144D02*
X014155Y007144D01*
X014155Y007242D02*
X013049Y007242D01*
X013209Y007341D02*
X014155Y007341D01*
X014155Y007439D02*
X013288Y007439D01*
X013329Y007538D02*
X014155Y007538D01*
X014155Y007636D02*
X013340Y007636D01*
X013340Y007735D02*
X014155Y007735D01*
X014155Y007833D02*
X013300Y007833D01*
X013237Y007932D02*
X014155Y007932D01*
X014155Y008030D02*
X013116Y008030D01*
X013013Y008227D02*
X014155Y008227D01*
X014155Y008129D02*
X011895Y008129D01*
X011895Y007045D02*
X012279Y007045D01*
X012294Y007050D02*
X012233Y007030D01*
X012175Y007001D01*
X012123Y006963D01*
X012077Y006917D01*
X012039Y006865D01*
X012010Y006807D01*
X011990Y006746D01*
X011980Y006682D01*
X011980Y006680D01*
X012620Y006680D01*
X012620Y006620D01*
X012680Y006620D01*
X012680Y006240D01*
X012942Y006240D01*
X013006Y006250D01*
X013067Y006270D01*
X013125Y006299D01*
X013177Y006337D01*
X013223Y006383D01*
X013261Y006435D01*
X013290Y006493D01*
X013310Y006554D01*
X013320Y006618D01*
X013320Y006620D01*
X012680Y006620D01*
X012680Y006680D01*
X012620Y006680D01*
X012620Y007060D01*
X012358Y007060D01*
X012294Y007050D01*
X012107Y006947D02*
X011895Y006947D01*
X011895Y006848D02*
X012031Y006848D01*
X011991Y006750D02*
X011895Y006750D01*
X011895Y006651D02*
X012620Y006651D01*
X012620Y006620D02*
X011980Y006620D01*
X011980Y006618D01*
X011990Y006554D01*
X012010Y006493D01*
X012039Y006435D01*
X012077Y006383D01*
X012123Y006337D01*
X012175Y006299D01*
X012233Y006270D01*
X012294Y006250D01*
X012358Y006240D01*
X012620Y006240D01*
X012620Y006620D01*
X012620Y006553D02*
X012680Y006553D01*
X012680Y006651D02*
X014155Y006651D01*
X014155Y006553D02*
X013310Y006553D01*
X013270Y006454D02*
X014155Y006454D01*
X014155Y006356D02*
X013195Y006356D01*
X013028Y006257D02*
X014155Y006257D01*
X014155Y006159D02*
X011895Y006159D01*
X011895Y006257D02*
X012272Y006257D01*
X012105Y006356D02*
X011895Y006356D01*
X011895Y006454D02*
X012030Y006454D01*
X011990Y006553D02*
X011895Y006553D01*
X011895Y006060D02*
X012256Y006060D01*
X012093Y005962D02*
X011935Y005962D01*
X011998Y005863D02*
X012013Y005863D01*
X011998Y005469D02*
X011999Y005469D01*
X011967Y005371D02*
X012061Y005371D01*
X012179Y005272D02*
X011395Y005272D01*
X011473Y005174D02*
X014052Y005174D01*
X014052Y005272D02*
X013121Y005272D01*
X013239Y005371D02*
X014052Y005371D01*
X014052Y005469D02*
X013301Y005469D01*
X013340Y005568D02*
X014052Y005568D01*
X014069Y005666D02*
X013340Y005666D01*
X013328Y005765D02*
X014155Y005765D01*
X014155Y005863D02*
X013287Y005863D01*
X013207Y005962D02*
X014155Y005962D01*
X014155Y006060D02*
X013044Y006060D01*
X012680Y006257D02*
X012620Y006257D01*
X012620Y006356D02*
X012680Y006356D01*
X012680Y006454D02*
X012620Y006454D01*
X012680Y006680D02*
X013320Y006680D01*
X013320Y006682D01*
X013310Y006746D01*
X013290Y006807D01*
X013261Y006865D01*
X013223Y006917D01*
X013177Y006963D01*
X013125Y007001D01*
X013067Y007030D01*
X013006Y007050D01*
X012942Y007060D01*
X012680Y007060D01*
X012680Y006680D01*
X012680Y006750D02*
X012620Y006750D01*
X012620Y006848D02*
X012680Y006848D01*
X012680Y006947D02*
X012620Y006947D01*
X012620Y007045D02*
X012680Y007045D01*
X013021Y007045D02*
X014155Y007045D01*
X014155Y006947D02*
X013193Y006947D01*
X013269Y006848D02*
X014155Y006848D01*
X014155Y006750D02*
X013309Y006750D01*
X014645Y006750D02*
X016905Y006750D01*
X016905Y006848D02*
X014645Y006848D01*
X014645Y006947D02*
X016905Y006947D01*
X016905Y007045D02*
X014645Y007045D01*
X014645Y007144D02*
X016905Y007144D01*
X016905Y007242D02*
X014645Y007242D01*
X014645Y007341D02*
X016905Y007341D01*
X016905Y007439D02*
X014645Y007439D01*
X014645Y007538D02*
X016905Y007538D01*
X016905Y007636D02*
X014645Y007636D01*
X014645Y007735D02*
X016905Y007735D01*
X016870Y007833D02*
X014645Y007833D01*
X014645Y007932D02*
X016772Y007932D01*
X016673Y008030D02*
X014645Y008030D01*
X014645Y008129D02*
X016575Y008129D01*
X016476Y008227D02*
X014645Y008227D01*
X014645Y008326D02*
X016378Y008326D01*
X016279Y008424D02*
X014645Y008424D01*
X014645Y008523D02*
X016181Y008523D01*
X016082Y008621D02*
X014645Y008621D01*
X014645Y008720D02*
X015977Y008720D01*
X015878Y008818D02*
X014645Y008818D01*
X014645Y008917D02*
X015780Y008917D01*
X015681Y009015D02*
X014645Y009015D01*
X014645Y009114D02*
X015583Y009114D01*
X015484Y009212D02*
X014645Y009212D01*
X014645Y009311D02*
X015386Y009311D01*
X015287Y009409D02*
X014645Y009409D01*
X014645Y009508D02*
X015189Y009508D01*
X015090Y009606D02*
X014645Y009606D01*
X014645Y009705D02*
X014992Y009705D01*
X014920Y009803D02*
X014645Y009803D01*
X014645Y009902D02*
X014900Y009902D01*
X014900Y010000D02*
X014645Y010000D01*
X014645Y010099D02*
X014900Y010099D01*
X014713Y010197D02*
X014645Y010197D01*
X014645Y010296D02*
X014655Y010296D01*
X014645Y010394D02*
X014655Y010394D01*
X014645Y010493D02*
X014655Y010493D01*
X014645Y010591D02*
X014655Y010591D01*
X014645Y010690D02*
X014655Y010690D01*
X014645Y010788D02*
X014655Y010788D01*
X014645Y010887D02*
X014655Y010887D01*
X014645Y010985D02*
X014655Y010985D01*
X014645Y011084D02*
X014693Y011084D01*
X014645Y011182D02*
X014900Y011182D01*
X014900Y011281D02*
X014645Y011281D01*
X014645Y011379D02*
X014900Y011379D01*
X014900Y011478D02*
X014645Y011478D01*
X014645Y011576D02*
X014900Y011576D01*
X014900Y011675D02*
X014645Y011675D01*
X014645Y011773D02*
X014900Y011773D01*
X014900Y011872D02*
X014645Y011872D01*
X014645Y011970D02*
X014900Y011970D01*
X014900Y012069D02*
X014645Y012069D01*
X014645Y012167D02*
X014900Y012167D01*
X014900Y012266D02*
X014645Y012266D01*
X014645Y012364D02*
X014900Y012364D01*
X014900Y012463D02*
X014645Y012463D01*
X014645Y012561D02*
X014900Y012561D01*
X014900Y012660D02*
X014645Y012660D01*
X014645Y012758D02*
X014900Y012758D01*
X014900Y012857D02*
X014645Y012857D01*
X014645Y012955D02*
X014900Y012955D01*
X014900Y013054D02*
X014645Y013054D01*
X014645Y013152D02*
X014900Y013152D01*
X014900Y013251D02*
X014645Y013251D01*
X014645Y013349D02*
X014900Y013349D01*
X014900Y013448D02*
X014645Y013448D01*
X014645Y013546D02*
X014900Y013546D01*
X014809Y013645D02*
X014645Y013645D01*
X014645Y013743D02*
X014802Y013743D01*
X014802Y013842D02*
X014645Y013842D01*
X014645Y013940D02*
X014802Y013940D01*
X014802Y014039D02*
X014645Y014039D01*
X014645Y014137D02*
X014802Y014137D01*
X014889Y014236D02*
X014645Y014236D01*
X014645Y014334D02*
X014900Y014334D01*
X014900Y014433D02*
X014645Y014433D01*
X014645Y014531D02*
X014900Y014531D01*
X014900Y014630D02*
X014726Y014630D01*
X014748Y014728D02*
X014900Y014728D01*
X014900Y014827D02*
X014748Y014827D01*
X014748Y014925D02*
X014900Y014925D01*
X014900Y015024D02*
X014748Y015024D01*
X014748Y015122D02*
X014900Y015122D01*
X014900Y015221D02*
X014676Y015221D01*
X014645Y015319D02*
X014884Y015319D01*
X014802Y015418D02*
X014645Y015418D01*
X014645Y015516D02*
X014802Y015516D01*
X014802Y015615D02*
X014645Y015615D01*
X014645Y015713D02*
X014802Y015713D01*
X014802Y015812D02*
X014645Y015812D01*
X014645Y015910D02*
X014813Y015910D01*
X014645Y016009D02*
X020150Y016009D01*
X020150Y016107D02*
X014645Y016107D01*
X014645Y016206D02*
X016981Y016206D01*
X016986Y016201D02*
X017044Y016172D01*
X017105Y016153D01*
X017168Y016143D01*
X017171Y016143D01*
X017171Y016521D01*
X016793Y016521D01*
X016793Y016518D01*
X016803Y016455D01*
X016822Y016394D01*
X016851Y016336D01*
X016889Y016285D01*
X016935Y016239D01*
X016986Y016201D01*
X016875Y016304D02*
X014645Y016304D01*
X014645Y016403D02*
X016819Y016403D01*
X016795Y016501D02*
X014645Y016501D01*
X014645Y016600D02*
X016795Y016600D01*
X016793Y016582D02*
X016793Y016579D01*
X017171Y016579D01*
X017171Y016957D01*
X017168Y016957D01*
X017105Y016947D01*
X017044Y016928D01*
X016986Y016899D01*
X016935Y016861D01*
X016889Y016815D01*
X016851Y016764D01*
X016822Y016706D01*
X016803Y016645D01*
X016793Y016582D01*
X016820Y016698D02*
X014715Y016698D01*
X014748Y016797D02*
X016875Y016797D01*
X016982Y016895D02*
X014748Y016895D01*
X014748Y016994D02*
X017180Y016994D01*
X017208Y016928D02*
X017229Y016907D01*
X017229Y016579D01*
X017171Y016579D01*
X017171Y016521D01*
X017229Y016521D01*
X017229Y016143D01*
X017232Y016143D01*
X017295Y016153D01*
X017356Y016172D01*
X017414Y016201D01*
X017465Y016239D01*
X017511Y016285D01*
X017534Y016316D01*
X017538Y016308D01*
X017658Y016188D01*
X017815Y016123D01*
X017985Y016123D01*
X018142Y016188D01*
X018235Y016280D01*
X018328Y016188D01*
X018485Y016123D01*
X018655Y016123D01*
X018812Y016188D01*
X018932Y016308D01*
X018997Y016465D01*
X018997Y016635D01*
X018932Y016792D01*
X018812Y016912D01*
X018655Y016977D01*
X018643Y016977D01*
X018687Y017085D01*
X018687Y017255D01*
X018622Y017412D01*
X018502Y017532D01*
X018345Y017597D01*
X018175Y017597D01*
X018018Y017532D01*
X017915Y017430D01*
X017812Y017532D01*
X017655Y017597D01*
X017485Y017597D01*
X017328Y017532D01*
X017208Y017412D01*
X017143Y017255D01*
X017143Y017085D01*
X017208Y016928D01*
X017229Y016895D02*
X017171Y016895D01*
X017171Y016797D02*
X017229Y016797D01*
X017229Y016698D02*
X017171Y016698D01*
X017171Y016600D02*
X017229Y016600D01*
X017229Y016501D02*
X017171Y016501D01*
X017171Y016403D02*
X017229Y016403D01*
X017229Y016304D02*
X017171Y016304D01*
X017171Y016206D02*
X017229Y016206D01*
X017419Y016206D02*
X017640Y016206D01*
X017541Y016304D02*
X017525Y016304D01*
X018160Y016206D02*
X018310Y016206D01*
X018830Y016206D02*
X020150Y016206D01*
X020150Y016304D02*
X018929Y016304D01*
X018972Y016403D02*
X020150Y016403D01*
X020150Y016501D02*
X018997Y016501D01*
X018997Y016600D02*
X020150Y016600D01*
X020150Y016698D02*
X018971Y016698D01*
X018928Y016797D02*
X020150Y016797D01*
X020150Y016895D02*
X018830Y016895D01*
X018650Y016994D02*
X020150Y016994D01*
X020150Y017092D02*
X018687Y017092D01*
X018687Y017191D02*
X020150Y017191D01*
X020150Y017289D02*
X018673Y017289D01*
X018633Y017388D02*
X020150Y017388D01*
X020150Y017486D02*
X018549Y017486D01*
X018376Y017585D02*
X020150Y017585D01*
X020150Y017683D02*
X014248Y017683D01*
X014248Y017585D02*
X017454Y017585D01*
X017281Y017486D02*
X014248Y017486D01*
X014234Y017388D02*
X017197Y017388D01*
X017157Y017289D02*
X014688Y017289D01*
X014748Y017191D02*
X017143Y017191D01*
X017143Y017092D02*
X014748Y017092D01*
X014248Y017782D02*
X020150Y017782D01*
X020150Y017880D02*
X014248Y017880D01*
X014168Y017979D02*
X016174Y017979D01*
X016049Y018030D02*
X016318Y017919D01*
X016608Y017919D01*
X016877Y018030D01*
X017083Y018236D01*
X017194Y018505D01*
X017194Y018795D01*
X017083Y019064D01*
X016877Y019270D01*
X016608Y019381D01*
X016318Y019381D01*
X016049Y019270D01*
X015843Y019064D01*
X015732Y018795D01*
X015732Y018505D01*
X015843Y018236D01*
X016049Y018030D01*
X016002Y018077D02*
X011080Y018077D01*
X011080Y017979D02*
X013632Y017979D01*
X013552Y017880D02*
X010988Y017880D01*
X010890Y017782D02*
X013552Y017782D01*
X013601Y016698D02*
X010199Y016698D01*
X010248Y016600D02*
X013552Y016600D01*
X013552Y016501D02*
X010248Y016501D01*
X010248Y016403D02*
X013552Y016403D01*
X013552Y016304D02*
X010248Y016304D01*
X010248Y016206D02*
X013552Y016206D01*
X013596Y016107D02*
X010204Y016107D01*
X010145Y016009D02*
X012140Y016009D01*
X012146Y016015D02*
X012025Y015894D01*
X011960Y015736D01*
X011960Y015564D01*
X012025Y015406D01*
X012146Y015285D01*
X012304Y015220D01*
X012996Y015220D01*
X013154Y015285D01*
X013275Y015406D01*
X013340Y015564D01*
X013340Y015736D01*
X013275Y015894D01*
X013154Y016015D01*
X012996Y016080D01*
X012304Y016080D01*
X012146Y016015D01*
X012042Y015910D02*
X010987Y015910D01*
X010998Y015812D02*
X011991Y015812D01*
X011960Y015713D02*
X010998Y015713D01*
X010998Y015615D02*
X011960Y015615D01*
X011980Y015516D02*
X010998Y015516D01*
X011479Y015418D02*
X012021Y015418D01*
X012113Y015319D02*
X011498Y015319D01*
X011498Y015221D02*
X012303Y015221D01*
X012358Y015060D02*
X012294Y015050D01*
X012233Y015030D01*
X012175Y015001D01*
X012123Y014963D01*
X012077Y014917D01*
X012039Y014865D01*
X012010Y014807D01*
X011990Y014746D01*
X011980Y014682D01*
X011980Y014680D01*
X012620Y014680D01*
X012620Y014620D01*
X012680Y014620D01*
X012680Y014240D01*
X012942Y014240D01*
X013006Y014250D01*
X013067Y014270D01*
X013125Y014299D01*
X013177Y014337D01*
X013223Y014383D01*
X013261Y014435D01*
X013290Y014493D01*
X013310Y014554D01*
X013320Y014618D01*
X013320Y014620D01*
X012680Y014620D01*
X012680Y014680D01*
X012620Y014680D01*
X012620Y015060D01*
X012358Y015060D01*
X012220Y015024D02*
X011498Y015024D01*
X011498Y015122D02*
X013650Y015122D01*
X013650Y015024D02*
X013080Y015024D01*
X013067Y015030D02*
X013006Y015050D01*
X012942Y015060D01*
X012680Y015060D01*
X012680Y014680D01*
X013320Y014680D01*
X013320Y014682D01*
X013310Y014746D01*
X013290Y014807D01*
X013261Y014865D01*
X013223Y014917D01*
X013177Y014963D01*
X013125Y015001D01*
X013067Y015030D01*
X013215Y014925D02*
X013650Y014925D01*
X013650Y014827D02*
X013280Y014827D01*
X013313Y014728D02*
X013650Y014728D01*
X013650Y014630D02*
X012680Y014630D01*
X012620Y014630D02*
X011395Y014630D01*
X011395Y014728D02*
X011987Y014728D01*
X012020Y014827D02*
X011423Y014827D01*
X011498Y014925D02*
X012085Y014925D01*
X011980Y014620D02*
X011980Y014618D01*
X011990Y014554D01*
X012010Y014493D01*
X012039Y014435D01*
X012077Y014383D01*
X012123Y014337D01*
X012175Y014299D01*
X012233Y014270D01*
X012294Y014250D01*
X012358Y014240D01*
X012620Y014240D01*
X012620Y014620D01*
X011980Y014620D01*
X011997Y014531D02*
X011395Y014531D01*
X011964Y014433D02*
X012041Y014433D01*
X011998Y014334D02*
X012127Y014334D01*
X011998Y014236D02*
X013650Y014236D01*
X013650Y014334D02*
X013173Y014334D01*
X013259Y014433D02*
X013650Y014433D01*
X013650Y014531D02*
X013303Y014531D01*
X013650Y014137D02*
X011998Y014137D01*
X011998Y014039D02*
X012204Y014039D01*
X012146Y014015D02*
X012304Y014080D01*
X012996Y014080D01*
X013154Y014015D01*
X013275Y013894D01*
X013340Y013736D01*
X013340Y013564D01*
X013275Y013406D01*
X013154Y013285D01*
X012996Y013220D01*
X012304Y013220D01*
X012146Y013285D01*
X012025Y013406D01*
X011960Y013564D01*
X011960Y013736D01*
X012025Y013894D01*
X012146Y014015D01*
X012072Y013940D02*
X011998Y013940D01*
X012004Y013842D02*
X011938Y013842D01*
X011963Y013743D02*
X011895Y013743D01*
X011895Y013645D02*
X011960Y013645D01*
X011968Y013546D02*
X011895Y013546D01*
X011895Y013448D02*
X012008Y013448D01*
X012083Y013349D02*
X011895Y013349D01*
X011895Y013251D02*
X012231Y013251D01*
X012304Y013080D02*
X012146Y013015D01*
X012025Y012894D01*
X011960Y012736D01*
X011960Y012564D01*
X012025Y012406D01*
X012146Y012285D01*
X012304Y012220D01*
X012996Y012220D01*
X013154Y012285D01*
X013275Y012406D01*
X013340Y012564D01*
X013340Y012736D01*
X013275Y012894D01*
X013154Y013015D01*
X012996Y013080D01*
X012304Y013080D01*
X012240Y013054D02*
X011895Y013054D01*
X011895Y013152D02*
X013650Y013152D01*
X013650Y013054D02*
X013060Y013054D01*
X013213Y012955D02*
X013650Y012955D01*
X013650Y012857D02*
X013290Y012857D01*
X013331Y012758D02*
X013650Y012758D01*
X013650Y012660D02*
X013340Y012660D01*
X013339Y012561D02*
X013650Y012561D01*
X013650Y012463D02*
X013298Y012463D01*
X013232Y012364D02*
X013650Y012364D01*
X013650Y012266D02*
X013106Y012266D01*
X013023Y012069D02*
X013650Y012069D01*
X013650Y012167D02*
X011895Y012167D01*
X011895Y012069D02*
X012277Y012069D01*
X012304Y012080D02*
X012146Y012015D01*
X012025Y011894D01*
X011960Y011736D01*
X011960Y011564D01*
X012025Y011406D01*
X012146Y011285D01*
X012304Y011220D01*
X012996Y011220D01*
X013154Y011285D01*
X013275Y011406D01*
X013340Y011564D01*
X013340Y011736D01*
X013275Y011894D01*
X013154Y012015D01*
X012996Y012080D01*
X012304Y012080D01*
X012194Y012266D02*
X011895Y012266D01*
X011895Y012364D02*
X012068Y012364D01*
X012002Y012463D02*
X011895Y012463D01*
X011895Y012561D02*
X011961Y012561D01*
X011960Y012660D02*
X011895Y012660D01*
X011895Y012758D02*
X011969Y012758D01*
X012010Y012857D02*
X011895Y012857D01*
X011895Y012955D02*
X012087Y012955D01*
X012102Y011970D02*
X011895Y011970D01*
X011895Y011872D02*
X012016Y011872D01*
X011975Y011773D02*
X011895Y011773D01*
X011895Y011675D02*
X011960Y011675D01*
X011960Y011576D02*
X011895Y011576D01*
X011895Y011478D02*
X011996Y011478D01*
X012053Y011379D02*
X011895Y011379D01*
X011895Y011281D02*
X012158Y011281D01*
X013142Y011281D02*
X013650Y011281D01*
X013650Y011379D02*
X013247Y011379D01*
X013304Y011478D02*
X013650Y011478D01*
X013650Y011576D02*
X013340Y011576D01*
X013340Y011675D02*
X013650Y011675D01*
X013650Y011773D02*
X013325Y011773D01*
X013284Y011872D02*
X013650Y011872D01*
X013650Y011970D02*
X013198Y011970D01*
X013183Y010985D02*
X013650Y010985D01*
X013650Y010887D02*
X013278Y010887D01*
X013318Y010788D02*
X013650Y010788D01*
X013650Y010690D02*
X013340Y010690D01*
X013340Y010591D02*
X013650Y010591D01*
X013650Y010493D02*
X013310Y010493D01*
X013262Y010394D02*
X013650Y010394D01*
X013650Y010296D02*
X013164Y010296D01*
X013168Y010000D02*
X013650Y010000D01*
X013650Y009902D02*
X013267Y009902D01*
X013312Y009803D02*
X013650Y009803D01*
X013650Y009705D02*
X013340Y009705D01*
X013340Y009606D02*
X013650Y009606D01*
X013650Y009508D02*
X013317Y009508D01*
X013276Y009409D02*
X013650Y009409D01*
X013650Y009311D02*
X013179Y009311D01*
X013153Y009015D02*
X013650Y009015D01*
X013570Y008917D02*
X013252Y008917D01*
X013306Y008818D02*
X013552Y008818D01*
X013552Y008720D02*
X013340Y008720D01*
X013340Y008621D02*
X013552Y008621D01*
X013552Y008523D02*
X013323Y008523D01*
X013282Y008424D02*
X013552Y008424D01*
X013628Y008326D02*
X013194Y008326D01*
X014645Y006651D02*
X016905Y006651D01*
X016905Y006553D02*
X014645Y006553D01*
X014645Y006454D02*
X016905Y006454D01*
X016905Y006356D02*
X014645Y006356D01*
X014645Y006257D02*
X016905Y006257D01*
X016905Y006159D02*
X014645Y006159D01*
X014645Y006060D02*
X016905Y006060D01*
X016905Y005962D02*
X014645Y005962D01*
X014645Y005863D02*
X015740Y005863D01*
X015550Y005765D02*
X014645Y005765D01*
X014731Y005666D02*
X015451Y005666D01*
X015411Y005568D02*
X014748Y005568D01*
X014748Y005469D02*
X015380Y005469D01*
X015380Y005371D02*
X014748Y005371D01*
X014748Y005272D02*
X015394Y005272D01*
X015435Y005174D02*
X015223Y005174D01*
X015248Y005075D02*
X015510Y005075D01*
X015644Y004977D02*
X015248Y004977D01*
X015248Y004878D02*
X016905Y004878D01*
X016905Y004780D02*
X016735Y004780D01*
X016656Y004977D02*
X016905Y004977D01*
X016905Y005075D02*
X016790Y005075D01*
X016865Y005174D02*
X016905Y005174D01*
X016889Y005568D02*
X016905Y005568D01*
X016905Y005666D02*
X016849Y005666D01*
X016905Y005765D02*
X016750Y005765D01*
X016905Y005863D02*
X016560Y005863D01*
X017395Y006060D02*
X017400Y006060D01*
X017395Y006159D02*
X017400Y006159D01*
X017395Y006257D02*
X017400Y006257D01*
X017395Y006356D02*
X017400Y006356D01*
X017395Y006454D02*
X017400Y006454D01*
X017395Y006553D02*
X017400Y006553D01*
X017395Y006651D02*
X017400Y006651D01*
X017395Y006750D02*
X017400Y006750D01*
X017395Y006848D02*
X017400Y006848D01*
X017395Y006947D02*
X017400Y006947D01*
X017395Y007045D02*
X017400Y007045D01*
X017395Y007144D02*
X017400Y007144D01*
X017395Y007242D02*
X017400Y007242D01*
X017395Y007341D02*
X017400Y007341D01*
X017395Y007439D02*
X017400Y007439D01*
X017395Y007538D02*
X017400Y007538D01*
X017395Y007636D02*
X017400Y007636D01*
X017395Y007735D02*
X017400Y007735D01*
X017395Y007833D02*
X017400Y007833D01*
X017395Y007932D02*
X017400Y007932D01*
X017400Y008030D02*
X017361Y008030D01*
X017400Y008129D02*
X017268Y008129D01*
X017169Y008227D02*
X017400Y008227D01*
X017400Y008326D02*
X017071Y008326D01*
X016972Y008424D02*
X017400Y008424D01*
X017400Y008523D02*
X016874Y008523D01*
X016775Y008621D02*
X017400Y008621D01*
X017400Y008720D02*
X016677Y008720D01*
X016578Y008818D02*
X017400Y008818D01*
X017400Y008917D02*
X016480Y008917D01*
X016381Y009015D02*
X017400Y009015D01*
X017400Y009114D02*
X016290Y009114D01*
X016192Y009212D02*
X017400Y009212D01*
X016893Y009311D02*
X016093Y009311D01*
X015995Y009409D02*
X016802Y009409D01*
X016802Y009508D02*
X015896Y009508D01*
X015798Y009606D02*
X016802Y009606D01*
X016802Y009705D02*
X015699Y009705D01*
X015601Y009803D02*
X016802Y009803D01*
X016805Y009902D02*
X015502Y009902D01*
X015404Y010000D02*
X016900Y010000D01*
X016900Y010099D02*
X015400Y010099D01*
X015587Y010197D02*
X016007Y010197D01*
X016039Y010187D02*
X016113Y010175D01*
X016131Y010175D01*
X016131Y010631D01*
X016169Y010631D01*
X016169Y010669D01*
X016625Y010669D01*
X016625Y010687D01*
X016613Y010761D01*
X016590Y010832D01*
X016556Y010899D01*
X016512Y010959D01*
X016459Y011012D01*
X016399Y011056D01*
X016332Y011090D01*
X016261Y011113D01*
X016187Y011125D01*
X016169Y011125D01*
X016169Y010669D01*
X016131Y010669D01*
X016131Y011125D01*
X016113Y011125D01*
X016039Y011113D01*
X015968Y011090D01*
X015901Y011056D01*
X015841Y011012D01*
X015788Y010959D01*
X015744Y010899D01*
X015710Y010832D01*
X015687Y010761D01*
X015675Y010687D01*
X015675Y010669D01*
X016131Y010669D01*
X016131Y010631D01*
X015675Y010631D01*
X015675Y010613D01*
X015687Y010539D01*
X015710Y010468D01*
X015744Y010401D01*
X015788Y010341D01*
X015841Y010288D01*
X015901Y010244D01*
X015968Y010210D01*
X016039Y010187D01*
X016131Y010197D02*
X016169Y010197D01*
X016169Y010175D02*
X016187Y010175D01*
X016261Y010187D01*
X016332Y010210D01*
X016399Y010244D01*
X016459Y010288D01*
X016512Y010341D01*
X016556Y010401D01*
X016590Y010468D01*
X016613Y010539D01*
X016625Y010613D01*
X016625Y010631D01*
X016169Y010631D01*
X016169Y010175D01*
X016169Y010296D02*
X016131Y010296D01*
X016131Y010394D02*
X016169Y010394D01*
X016169Y010493D02*
X016131Y010493D01*
X016131Y010591D02*
X016169Y010591D01*
X016169Y010690D02*
X016131Y010690D01*
X016131Y010788D02*
X016169Y010788D01*
X016169Y010887D02*
X016131Y010887D01*
X016131Y010985D02*
X016169Y010985D01*
X016169Y011084D02*
X016131Y011084D01*
X015955Y011084D02*
X015607Y011084D01*
X015645Y010985D02*
X015813Y010985D01*
X015737Y010887D02*
X015645Y010887D01*
X015645Y010788D02*
X015695Y010788D01*
X015675Y010690D02*
X015645Y010690D01*
X015645Y010591D02*
X015678Y010591D01*
X015702Y010493D02*
X015645Y010493D01*
X015645Y010394D02*
X015749Y010394D01*
X015833Y010296D02*
X015645Y010296D01*
X016293Y010197D02*
X016900Y010197D01*
X016900Y010296D02*
X016467Y010296D01*
X016551Y010394D02*
X016900Y010394D01*
X016900Y010493D02*
X016598Y010493D01*
X016622Y010591D02*
X016900Y010591D01*
X016900Y010690D02*
X016625Y010690D01*
X016605Y010788D02*
X016900Y010788D01*
X016900Y010887D02*
X016563Y010887D01*
X016487Y010985D02*
X016900Y010985D01*
X016900Y011084D02*
X016345Y011084D01*
X016900Y011182D02*
X015400Y011182D01*
X015400Y011281D02*
X016900Y011281D01*
X016900Y011379D02*
X015400Y011379D01*
X015400Y011478D02*
X016900Y011478D01*
X016900Y011576D02*
X015400Y011576D01*
X015400Y011675D02*
X016900Y011675D01*
X016900Y011773D02*
X015400Y011773D01*
X015400Y011872D02*
X016900Y011872D01*
X016900Y011970D02*
X015400Y011970D01*
X015400Y012069D02*
X016900Y012069D01*
X016900Y012167D02*
X015400Y012167D01*
X015400Y012266D02*
X016900Y012266D01*
X016900Y012364D02*
X015400Y012364D01*
X015400Y012463D02*
X016900Y012463D01*
X016900Y012561D02*
X015400Y012561D01*
X015400Y012660D02*
X016900Y012660D01*
X016900Y012758D02*
X015400Y012758D01*
X015400Y012857D02*
X016900Y012857D01*
X016900Y012955D02*
X015400Y012955D01*
X015400Y013054D02*
X016900Y013054D01*
X016900Y013152D02*
X015400Y013152D01*
X015400Y013251D02*
X016900Y013251D01*
X016900Y013349D02*
X015400Y013349D01*
X015400Y013448D02*
X016900Y013448D01*
X016900Y013546D02*
X015400Y013546D01*
X015491Y013645D02*
X016900Y013645D01*
X016900Y013743D02*
X015498Y013743D01*
X015498Y013842D02*
X016900Y013842D01*
X016900Y013940D02*
X015498Y013940D01*
X015498Y014039D02*
X016900Y014039D01*
X016900Y014137D02*
X015498Y014137D01*
X015411Y014236D02*
X016900Y014236D01*
X016900Y014334D02*
X015400Y014334D01*
X015400Y014433D02*
X016900Y014433D01*
X016900Y014531D02*
X015400Y014531D01*
X015400Y014630D02*
X016824Y014630D01*
X016802Y014728D02*
X015400Y014728D01*
X015400Y014827D02*
X016802Y014827D01*
X016802Y014925D02*
X015400Y014925D01*
X015400Y015024D02*
X016802Y015024D01*
X016802Y015122D02*
X015400Y015122D01*
X015400Y015221D02*
X016874Y015221D01*
X017426Y015221D02*
X018610Y015221D01*
X018610Y015319D02*
X015416Y015319D01*
X015498Y015418D02*
X018687Y015418D01*
X018046Y015122D02*
X017498Y015122D01*
X017498Y015024D02*
X017927Y015024D01*
X017829Y014925D02*
X017498Y014925D01*
X017498Y014827D02*
X017730Y014827D01*
X017632Y014728D02*
X017498Y014728D01*
X017476Y014630D02*
X017533Y014630D01*
X017439Y014531D02*
X017400Y014531D01*
X017400Y014433D02*
X017405Y014433D01*
X017400Y014334D02*
X017405Y014334D01*
X017400Y014236D02*
X017405Y014236D01*
X017400Y014137D02*
X017405Y014137D01*
X017400Y014039D02*
X017405Y014039D01*
X017400Y013940D02*
X017400Y013940D01*
X017400Y013842D02*
X017400Y013842D01*
X017400Y013743D02*
X017400Y013743D01*
X017400Y013645D02*
X017400Y013645D01*
X017400Y013546D02*
X017400Y013546D01*
X017400Y013448D02*
X017400Y013448D01*
X017400Y013349D02*
X017400Y013349D01*
X017400Y013251D02*
X017400Y013251D01*
X017400Y013152D02*
X017400Y013152D01*
X017400Y013054D02*
X017400Y013054D01*
X017400Y012955D02*
X017400Y012955D01*
X017400Y012857D02*
X017400Y012857D01*
X017400Y012758D02*
X017400Y012758D01*
X017400Y012660D02*
X017400Y012660D01*
X017400Y012561D02*
X017400Y012561D01*
X017400Y012463D02*
X017400Y012463D01*
X017400Y012364D02*
X017400Y012364D01*
X017400Y012266D02*
X017400Y012266D01*
X017400Y012167D02*
X017400Y012167D01*
X017400Y012069D02*
X017400Y012069D01*
X017400Y011970D02*
X017400Y011970D01*
X017400Y011872D02*
X017400Y011872D01*
X017400Y011773D02*
X017400Y011773D01*
X017400Y011675D02*
X017400Y011675D01*
X017400Y011576D02*
X017400Y011576D01*
X017400Y011478D02*
X017400Y011478D01*
X017400Y011379D02*
X017400Y011379D01*
X017400Y011281D02*
X017400Y011281D01*
X017400Y011182D02*
X017400Y011182D01*
X017400Y011084D02*
X017400Y011084D01*
X017400Y010985D02*
X017400Y010985D01*
X017400Y010887D02*
X017400Y010887D01*
X017400Y010788D02*
X017400Y010788D01*
X017400Y010690D02*
X017400Y010690D01*
X017400Y010591D02*
X017400Y010591D01*
X017400Y010493D02*
X017400Y010493D01*
X017400Y010394D02*
X017400Y010394D01*
X017400Y010296D02*
X017400Y010296D01*
X017400Y010197D02*
X017400Y010197D01*
X017400Y010099D02*
X017400Y010099D01*
X017400Y010000D02*
X017400Y010000D01*
X017400Y009997D02*
X017400Y009997D01*
X018400Y010000D02*
X020150Y010000D01*
X020150Y009902D02*
X018400Y009902D01*
X018400Y009803D02*
X020150Y009803D01*
X020150Y009705D02*
X018400Y009705D01*
X018400Y009606D02*
X018626Y009606D01*
X018610Y009508D02*
X018400Y009508D01*
X018488Y009409D02*
X018610Y009409D01*
X018610Y009311D02*
X018498Y009311D01*
X018498Y009212D02*
X018610Y009212D01*
X018610Y009114D02*
X018498Y009114D01*
X018498Y009015D02*
X018610Y009015D01*
X018610Y008917D02*
X018498Y008917D01*
X018415Y008818D02*
X018610Y008818D01*
X018610Y008720D02*
X018395Y008720D01*
X018395Y008621D02*
X018699Y008621D01*
X018759Y008523D02*
X018395Y008523D01*
X018395Y008424D02*
X018679Y008424D01*
X018638Y008326D02*
X018395Y008326D01*
X018395Y008227D02*
X018610Y008227D01*
X018610Y008129D02*
X018395Y008129D01*
X018395Y008030D02*
X018615Y008030D01*
X018656Y007932D02*
X018395Y007932D01*
X018395Y007833D02*
X018703Y007833D01*
X018802Y007735D02*
X018395Y007735D01*
X018395Y007636D02*
X018912Y007636D01*
X018774Y007538D02*
X018395Y007538D01*
X018395Y007439D02*
X018685Y007439D01*
X018644Y007341D02*
X018395Y007341D01*
X018395Y007242D02*
X018610Y007242D01*
X018610Y007144D02*
X018395Y007144D01*
X018395Y007045D02*
X018610Y007045D01*
X018650Y006947D02*
X018395Y006947D01*
X018395Y006848D02*
X018691Y006848D01*
X018787Y006750D02*
X018395Y006750D01*
X018395Y006651D02*
X018944Y006651D01*
X018789Y006553D02*
X018395Y006553D01*
X018395Y006454D02*
X018691Y006454D01*
X018651Y006356D02*
X018395Y006356D01*
X018395Y006060D02*
X018610Y006060D01*
X018644Y005962D02*
X018395Y005962D01*
X018395Y005863D02*
X018684Y005863D01*
X018772Y005765D02*
X018395Y005765D01*
X018395Y005666D02*
X018907Y005666D01*
X019393Y005666D02*
X019655Y005666D01*
X019655Y005568D02*
X018395Y005568D01*
X018395Y005469D02*
X019655Y005469D01*
X019655Y005371D02*
X018395Y005371D01*
X018395Y005272D02*
X019655Y005272D01*
X019655Y005174D02*
X018395Y005174D01*
X018395Y005075D02*
X019655Y005075D01*
X019655Y004977D02*
X018395Y004977D01*
X018395Y004878D02*
X019655Y004878D01*
X019655Y004780D02*
X018395Y004780D01*
X018395Y004681D02*
X018701Y004681D01*
X018610Y004583D02*
X018395Y004583D01*
X018395Y004484D02*
X018610Y004484D01*
X018610Y004386D02*
X018395Y004386D01*
X018395Y004287D02*
X018610Y004287D01*
X018610Y004189D02*
X018395Y004189D01*
X018395Y004090D02*
X018610Y004090D01*
X018610Y003992D02*
X018395Y003992D01*
X018395Y003893D02*
X018610Y003893D01*
X018610Y003795D02*
X018395Y003795D01*
X018395Y003696D02*
X018624Y003696D01*
X018764Y003499D02*
X018395Y003499D01*
X018395Y003401D02*
X018694Y003401D01*
X018653Y003302D02*
X018395Y003302D01*
X018395Y003204D02*
X018632Y003204D01*
X018650Y003007D02*
X018395Y003007D01*
X018395Y003105D02*
X019100Y003105D01*
X018755Y002810D02*
X018395Y002810D01*
X018395Y002908D02*
X018690Y002908D01*
X018870Y002711D02*
X018395Y002711D01*
X018395Y002613D02*
X018856Y002613D01*
X018750Y002514D02*
X018395Y002514D01*
X018395Y002416D02*
X018675Y002416D01*
X018635Y002317D02*
X018395Y002317D01*
X018395Y002219D02*
X018610Y002219D01*
X018610Y002120D02*
X018395Y002120D01*
X018395Y002022D02*
X018619Y002022D01*
X018660Y001923D02*
X018395Y001923D01*
X018395Y001825D02*
X018712Y001825D01*
X018810Y001726D02*
X018395Y001726D01*
X018395Y001628D02*
X018892Y001628D01*
X018765Y001529D02*
X018395Y001529D01*
X018395Y001431D02*
X018682Y001431D01*
X018641Y001332D02*
X018387Y001332D01*
X018330Y001234D02*
X018610Y001234D01*
X018610Y001135D02*
X018231Y001135D01*
X018133Y001037D02*
X018613Y001037D01*
X018653Y000938D02*
X018034Y000938D01*
X017936Y000840D02*
X018697Y000840D01*
X018795Y000741D02*
X017837Y000741D01*
X017637Y001234D02*
X012163Y001234D01*
X012064Y001332D02*
X013871Y001332D01*
X013901Y001302D02*
X014399Y001302D01*
X014498Y001401D01*
X014498Y001899D01*
X014399Y001998D01*
X014395Y001998D01*
X014395Y004302D01*
X014399Y004302D01*
X014498Y004401D01*
X014498Y004899D01*
X014399Y004998D01*
X013901Y004998D01*
X013802Y004899D01*
X013802Y004401D01*
X013901Y004302D01*
X013905Y004302D01*
X013905Y003992D01*
X013899Y003998D01*
X013401Y003998D01*
X013302Y003899D01*
X013302Y003828D01*
X013275Y003894D01*
X013154Y004015D01*
X012996Y004080D01*
X012304Y004080D01*
X012146Y004015D01*
X012025Y003894D01*
X011960Y003736D01*
X011960Y003564D01*
X012025Y003406D01*
X012146Y003285D01*
X012304Y003220D01*
X012996Y003220D01*
X013154Y003285D01*
X013275Y003406D01*
X013302Y003472D01*
X013302Y003401D01*
X013401Y003302D01*
X013170Y003302D01*
X013269Y003401D02*
X013303Y003401D01*
X013401Y003302D02*
X013405Y003302D01*
X013405Y002498D01*
X013401Y002498D01*
X013302Y002399D01*
X013302Y001901D01*
X013401Y001802D01*
X013802Y001802D01*
X013802Y001401D01*
X013901Y001302D01*
X013802Y001431D02*
X011966Y001431D01*
X011867Y001529D02*
X013802Y001529D01*
X013802Y001628D02*
X011769Y001628D01*
X011670Y001726D02*
X013802Y001726D01*
X013379Y001825D02*
X011645Y001825D01*
X011645Y001923D02*
X013302Y001923D01*
X013302Y002022D02*
X011645Y002022D01*
X011645Y002120D02*
X013302Y002120D01*
X013302Y002219D02*
X011645Y002219D01*
X011645Y002317D02*
X012115Y002317D01*
X012146Y002285D02*
X012304Y002220D01*
X012996Y002220D01*
X013154Y002285D01*
X013275Y002406D01*
X013340Y002564D01*
X013340Y002736D01*
X013275Y002894D01*
X013154Y003015D01*
X012996Y003080D01*
X012304Y003080D01*
X012146Y003015D01*
X012025Y002894D01*
X011960Y002736D01*
X011960Y002564D01*
X012025Y002406D01*
X012146Y002285D01*
X012022Y002416D02*
X011645Y002416D01*
X011645Y002514D02*
X011981Y002514D01*
X011960Y002613D02*
X011645Y002613D01*
X011645Y002711D02*
X011960Y002711D01*
X011991Y002810D02*
X011645Y002810D01*
X011645Y002908D02*
X012040Y002908D01*
X012138Y003007D02*
X011645Y003007D01*
X011645Y003105D02*
X013405Y003105D01*
X013405Y003007D02*
X013162Y003007D01*
X013260Y002908D02*
X013405Y002908D01*
X013405Y002810D02*
X013309Y002810D01*
X013340Y002711D02*
X013405Y002711D01*
X013405Y002613D02*
X013340Y002613D01*
X013319Y002514D02*
X013405Y002514D01*
X013319Y002416D02*
X013278Y002416D01*
X013302Y002317D02*
X013185Y002317D01*
X013405Y003204D02*
X011645Y003204D01*
X011645Y003302D02*
X012130Y003302D01*
X012031Y003401D02*
X011645Y003401D01*
X011645Y003499D02*
X011987Y003499D01*
X011960Y003598D02*
X011694Y003598D01*
X011748Y003696D02*
X011960Y003696D01*
X011984Y003795D02*
X011748Y003795D01*
X011748Y003893D02*
X012025Y003893D01*
X012123Y003992D02*
X011748Y003992D01*
X011748Y004090D02*
X013905Y004090D01*
X013905Y004189D02*
X011708Y004189D01*
X012025Y004406D02*
X011960Y004564D01*
X011960Y004736D01*
X012025Y004894D01*
X012146Y005015D01*
X012304Y005080D01*
X012996Y005080D01*
X013154Y005015D01*
X013275Y004894D01*
X013340Y004736D01*
X013340Y004564D01*
X013275Y004406D01*
X013154Y004285D01*
X012996Y004220D01*
X012304Y004220D01*
X012146Y004285D01*
X012025Y004406D01*
X012046Y004386D02*
X010895Y004386D01*
X010895Y004484D02*
X011993Y004484D01*
X011960Y004583D02*
X011429Y004583D01*
X011498Y004681D02*
X011960Y004681D01*
X011978Y004780D02*
X011498Y004780D01*
X011498Y004878D02*
X012019Y004878D01*
X012108Y004977D02*
X011498Y004977D01*
X011498Y005075D02*
X012292Y005075D01*
X013008Y005075D02*
X014128Y005075D01*
X013880Y004977D02*
X013192Y004977D01*
X013281Y004878D02*
X013802Y004878D01*
X013802Y004780D02*
X013322Y004780D01*
X013340Y004681D02*
X013802Y004681D01*
X013802Y004583D02*
X013340Y004583D01*
X013307Y004484D02*
X013802Y004484D01*
X013818Y004386D02*
X013254Y004386D01*
X013155Y004287D02*
X013905Y004287D01*
X014395Y004287D02*
X014650Y004287D01*
X014650Y004189D02*
X014395Y004189D01*
X014395Y004090D02*
X014650Y004090D01*
X014650Y003992D02*
X014395Y003992D01*
X014395Y003893D02*
X014650Y003893D01*
X014650Y003795D02*
X014395Y003795D01*
X014395Y003696D02*
X014650Y003696D01*
X014650Y003598D02*
X014395Y003598D01*
X014395Y003499D02*
X014650Y003499D01*
X014650Y003401D02*
X014395Y003401D01*
X014395Y003302D02*
X014650Y003302D01*
X014650Y003204D02*
X014395Y003204D01*
X014395Y003105D02*
X014650Y003105D01*
X014650Y003007D02*
X014395Y003007D01*
X014395Y002908D02*
X014561Y002908D01*
X014552Y002810D02*
X014395Y002810D01*
X014395Y002711D02*
X014552Y002711D01*
X014552Y002613D02*
X014395Y002613D01*
X014395Y002514D02*
X014552Y002514D01*
X014552Y002416D02*
X014395Y002416D01*
X014395Y002317D02*
X014636Y002317D01*
X014395Y002219D02*
X017905Y002219D01*
X017905Y002317D02*
X015164Y002317D01*
X015248Y002416D02*
X017905Y002416D01*
X017905Y002514D02*
X015248Y002514D01*
X015248Y002613D02*
X017905Y002613D01*
X017905Y002711D02*
X015248Y002711D01*
X015248Y002810D02*
X017905Y002810D01*
X017905Y002908D02*
X015239Y002908D01*
X015150Y003007D02*
X015631Y003007D01*
X015614Y003015D02*
X015677Y002983D01*
X015745Y002961D01*
X015815Y002950D01*
X016100Y002950D01*
X016100Y003350D01*
X016200Y003350D01*
X016200Y003450D01*
X016100Y003450D01*
X016100Y003850D01*
X015815Y003850D01*
X015745Y003839D01*
X015677Y003817D01*
X015614Y003785D01*
X015557Y003743D01*
X015507Y003693D01*
X015465Y003636D01*
X015433Y003573D01*
X015411Y003505D01*
X015402Y003450D01*
X016100Y003450D01*
X016100Y003350D01*
X015402Y003350D01*
X015411Y003295D01*
X015433Y003227D01*
X015465Y003164D01*
X015507Y003107D01*
X015557Y003057D01*
X015614Y003015D01*
X015509Y003105D02*
X015150Y003105D01*
X015150Y003204D02*
X015445Y003204D01*
X015410Y003302D02*
X015150Y003302D01*
X015150Y003401D02*
X016100Y003401D01*
X016100Y003499D02*
X016200Y003499D01*
X016200Y003450D02*
X016200Y003850D01*
X016485Y003850D01*
X016555Y003839D01*
X016623Y003817D01*
X016686Y003785D01*
X016743Y003743D01*
X016793Y003693D01*
X016835Y003636D01*
X016867Y003573D01*
X016889Y003505D01*
X016898Y003450D01*
X016200Y003450D01*
X016200Y003401D02*
X017905Y003401D01*
X017905Y003499D02*
X016890Y003499D01*
X016854Y003598D02*
X017905Y003598D01*
X017905Y003696D02*
X016790Y003696D01*
X016667Y003795D02*
X017905Y003795D01*
X017905Y003893D02*
X015150Y003893D01*
X015150Y003795D02*
X015633Y003795D01*
X015510Y003696D02*
X015150Y003696D01*
X015150Y003598D02*
X015446Y003598D01*
X015410Y003499D02*
X015150Y003499D01*
X015150Y003992D02*
X015608Y003992D01*
X015495Y004090D02*
X015150Y004090D01*
X015150Y004189D02*
X015429Y004189D01*
X015388Y004287D02*
X015150Y004287D01*
X015150Y004386D02*
X015380Y004386D01*
X015380Y004484D02*
X015150Y004484D01*
X015179Y004583D02*
X015417Y004583D01*
X015466Y004681D02*
X015248Y004681D01*
X015248Y004780D02*
X015565Y004780D01*
X014650Y004484D02*
X014498Y004484D01*
X014498Y004583D02*
X014621Y004583D01*
X014552Y004681D02*
X014498Y004681D01*
X014498Y004780D02*
X014552Y004780D01*
X014552Y004878D02*
X014498Y004878D01*
X014552Y004977D02*
X014420Y004977D01*
X014482Y004386D02*
X014650Y004386D01*
X013395Y003992D02*
X013177Y003992D01*
X013275Y003893D02*
X013302Y003893D01*
X012145Y004287D02*
X010895Y004287D01*
X010895Y004189D02*
X011092Y004189D01*
X011052Y004090D02*
X010895Y004090D01*
X010895Y003992D02*
X011052Y003992D01*
X011052Y003893D02*
X010895Y003893D01*
X010895Y003795D02*
X011052Y003795D01*
X011052Y003696D02*
X010895Y003696D01*
X010895Y003598D02*
X011106Y003598D01*
X011155Y003499D02*
X010895Y003499D01*
X010895Y003401D02*
X011155Y003401D01*
X011155Y003302D02*
X010895Y003302D01*
X010895Y003204D02*
X011155Y003204D01*
X011155Y003105D02*
X010895Y003105D01*
X010895Y003007D02*
X011155Y003007D01*
X011155Y002908D02*
X010895Y002908D01*
X010895Y002810D02*
X011155Y002810D01*
X011155Y002711D02*
X010895Y002711D01*
X010895Y002613D02*
X011155Y002613D01*
X011155Y002514D02*
X010895Y002514D01*
X010981Y002416D02*
X011155Y002416D01*
X011155Y002317D02*
X010998Y002317D01*
X010998Y002219D02*
X011155Y002219D01*
X011155Y002120D02*
X010998Y002120D01*
X010998Y002022D02*
X011155Y002022D01*
X011155Y001923D02*
X010998Y001923D01*
X010921Y001825D02*
X011155Y001825D01*
X011155Y001726D02*
X010395Y001726D01*
X010395Y001628D02*
X011155Y001628D01*
X011185Y001529D02*
X010395Y001529D01*
X010466Y001431D02*
X010757Y001431D01*
X010659Y001332D02*
X010564Y001332D01*
X010167Y001037D02*
X008700Y001037D01*
X008700Y001075D02*
X009125Y001075D01*
X009125Y001222D01*
X008847Y001500D01*
X008700Y001500D01*
X008700Y001075D01*
X008700Y001135D02*
X008600Y001135D01*
X008600Y001037D02*
X007748Y001037D01*
X007748Y001135D02*
X008175Y001135D01*
X008187Y001234D02*
X007748Y001234D01*
X007748Y001332D02*
X008286Y001332D01*
X008384Y001431D02*
X007716Y001431D01*
X007748Y001399D02*
X007649Y001498D01*
X007645Y001498D01*
X007645Y013302D01*
X007649Y013302D01*
X007748Y013401D01*
X007748Y013899D01*
X007649Y013998D01*
X007151Y013998D01*
X007052Y013899D01*
X007052Y013401D01*
X007151Y013302D01*
X007155Y013302D01*
X007155Y001498D01*
X007151Y001498D01*
X007052Y001399D01*
X007052Y000901D01*
X007151Y000802D01*
X007649Y000802D01*
X007748Y000901D01*
X007748Y001399D01*
X007645Y001529D02*
X009905Y001529D01*
X009905Y001431D02*
X008916Y001431D01*
X009014Y001332D02*
X009913Y001332D01*
X009970Y001234D02*
X009113Y001234D01*
X009125Y001135D02*
X010069Y001135D01*
X010266Y000938D02*
X009125Y000938D01*
X009125Y000840D02*
X010364Y000840D01*
X010636Y000741D02*
X009037Y000741D01*
X008700Y001234D02*
X008600Y001234D01*
X008600Y001332D02*
X008700Y001332D01*
X008700Y001431D02*
X008600Y001431D01*
X008175Y000938D02*
X007748Y000938D01*
X007686Y000840D02*
X008175Y000840D01*
X008263Y000741D02*
X005905Y000741D01*
X005807Y000840D02*
X007114Y000840D01*
X007052Y000938D02*
X005708Y000938D01*
X005645Y001037D02*
X007052Y001037D01*
X007052Y001135D02*
X005645Y001135D01*
X005645Y001234D02*
X007052Y001234D01*
X007052Y001332D02*
X005645Y001332D01*
X005645Y001431D02*
X007084Y001431D01*
X007155Y001529D02*
X005645Y001529D01*
X005645Y001628D02*
X007155Y001628D01*
X007155Y001726D02*
X005645Y001726D01*
X005645Y001825D02*
X007155Y001825D01*
X007155Y001923D02*
X005645Y001923D01*
X005645Y002022D02*
X007155Y002022D01*
X007155Y002120D02*
X005645Y002120D01*
X005645Y002219D02*
X007155Y002219D01*
X007155Y002317D02*
X005645Y002317D01*
X005645Y002416D02*
X007155Y002416D01*
X007155Y002514D02*
X005645Y002514D01*
X005645Y002613D02*
X007155Y002613D01*
X007155Y002711D02*
X006382Y002711D01*
X006347Y002675D02*
X006625Y002953D01*
X006625Y003100D01*
X006200Y003100D01*
X006200Y003200D01*
X006625Y003200D01*
X006625Y003347D01*
X006347Y003625D01*
X006200Y003625D01*
X006200Y003200D01*
X006100Y003200D01*
X006100Y003625D01*
X005953Y003625D01*
X005675Y003347D01*
X005675Y003200D01*
X006100Y003200D01*
X006100Y003100D01*
X006200Y003100D01*
X006200Y002675D01*
X006347Y002675D01*
X006200Y002711D02*
X006100Y002711D01*
X006100Y002675D02*
X006100Y003100D01*
X005675Y003100D01*
X005675Y002953D01*
X005953Y002675D01*
X006100Y002675D01*
X006100Y002810D02*
X006200Y002810D01*
X006200Y002908D02*
X006100Y002908D01*
X006100Y003007D02*
X006200Y003007D01*
X006200Y003105D02*
X007155Y003105D01*
X007155Y003007D02*
X006625Y003007D01*
X006579Y002908D02*
X007155Y002908D01*
X007155Y002810D02*
X006481Y002810D01*
X006625Y003204D02*
X007155Y003204D01*
X007155Y003302D02*
X006625Y003302D01*
X006571Y003401D02*
X007155Y003401D01*
X007155Y003499D02*
X006472Y003499D01*
X006374Y003598D02*
X007155Y003598D01*
X007155Y003696D02*
X005645Y003696D01*
X005645Y003598D02*
X005926Y003598D01*
X005828Y003499D02*
X005645Y003499D01*
X005645Y003401D02*
X005729Y003401D01*
X005675Y003302D02*
X005645Y003302D01*
X005645Y003204D02*
X005675Y003204D01*
X005645Y003105D02*
X006100Y003105D01*
X006100Y003204D02*
X006200Y003204D01*
X006200Y003302D02*
X006100Y003302D01*
X006100Y003401D02*
X006200Y003401D01*
X006200Y003499D02*
X006100Y003499D01*
X006100Y003598D02*
X006200Y003598D01*
X005690Y003893D02*
X007155Y003893D01*
X007155Y003795D02*
X005645Y003795D01*
X005755Y003992D02*
X007155Y003992D01*
X007155Y004090D02*
X005821Y004090D01*
X005887Y004189D02*
X007155Y004189D01*
X007155Y004287D02*
X005952Y004287D01*
X006232Y004386D02*
X007155Y004386D01*
X007155Y004484D02*
X006248Y004484D01*
X006248Y004583D02*
X007155Y004583D01*
X007155Y004681D02*
X006248Y004681D01*
X006248Y004780D02*
X007155Y004780D01*
X007155Y004878D02*
X006248Y004878D01*
X006248Y004977D02*
X007155Y004977D01*
X007155Y005075D02*
X006248Y005075D01*
X006248Y005174D02*
X007155Y005174D01*
X007155Y005272D02*
X006248Y005272D01*
X006248Y005371D02*
X007155Y005371D01*
X007155Y005469D02*
X006178Y005469D01*
X006145Y005568D02*
X007155Y005568D01*
X007155Y005666D02*
X006145Y005666D01*
X006145Y005765D02*
X007155Y005765D01*
X007155Y005863D02*
X006145Y005863D01*
X006145Y005962D02*
X007155Y005962D01*
X007155Y006060D02*
X006145Y006060D01*
X006145Y006159D02*
X007155Y006159D01*
X007155Y006257D02*
X006145Y006257D01*
X006145Y006356D02*
X007155Y006356D01*
X007155Y006454D02*
X006145Y006454D01*
X006145Y006553D02*
X007155Y006553D01*
X007155Y006651D02*
X006145Y006651D01*
X006145Y006750D02*
X007155Y006750D01*
X007155Y006848D02*
X006145Y006848D01*
X006145Y006947D02*
X007155Y006947D01*
X007155Y007045D02*
X006145Y007045D01*
X006145Y007144D02*
X007155Y007144D01*
X007155Y007242D02*
X006145Y007242D01*
X006145Y007341D02*
X007155Y007341D01*
X007155Y007439D02*
X006145Y007439D01*
X006145Y007538D02*
X007155Y007538D01*
X007155Y007636D02*
X006145Y007636D01*
X006145Y007735D02*
X007155Y007735D01*
X007155Y007833D02*
X006145Y007833D01*
X006145Y007932D02*
X007155Y007932D01*
X007155Y008030D02*
X006145Y008030D01*
X006145Y008129D02*
X007155Y008129D01*
X007155Y008227D02*
X006145Y008227D01*
X006145Y008326D02*
X007155Y008326D01*
X007155Y008424D02*
X006145Y008424D01*
X006145Y008523D02*
X007155Y008523D01*
X007155Y008621D02*
X006145Y008621D01*
X006145Y008720D02*
X007155Y008720D01*
X007155Y008818D02*
X006915Y008818D01*
X006998Y008917D02*
X007155Y008917D01*
X007155Y009015D02*
X006998Y009015D01*
X006998Y009114D02*
X007155Y009114D01*
X007155Y009212D02*
X006998Y009212D01*
X006998Y009311D02*
X007155Y009311D01*
X007155Y009409D02*
X006988Y009409D01*
X006895Y009508D02*
X007155Y009508D01*
X007155Y009606D02*
X006895Y009606D01*
X006895Y009705D02*
X007155Y009705D01*
X007155Y009803D02*
X006895Y009803D01*
X006895Y009902D02*
X007155Y009902D01*
X007155Y010000D02*
X006895Y010000D01*
X006895Y010099D02*
X007155Y010099D01*
X007155Y010197D02*
X006895Y010197D01*
X006895Y010296D02*
X007155Y010296D01*
X007155Y010394D02*
X006895Y010394D01*
X006895Y010493D02*
X007155Y010493D01*
X007155Y010591D02*
X006895Y010591D01*
X006895Y010690D02*
X007155Y010690D01*
X007155Y010788D02*
X006895Y010788D01*
X006895Y010887D02*
X007155Y010887D01*
X007155Y010985D02*
X006895Y010985D01*
X006895Y011084D02*
X007155Y011084D01*
X007155Y011182D02*
X006895Y011182D01*
X006895Y011281D02*
X007155Y011281D01*
X007155Y011379D02*
X006895Y011379D01*
X006895Y011478D02*
X007155Y011478D01*
X007155Y011576D02*
X006895Y011576D01*
X006895Y011675D02*
X007155Y011675D01*
X007155Y011773D02*
X006895Y011773D01*
X006895Y011872D02*
X007155Y011872D01*
X007155Y011970D02*
X006895Y011970D01*
X006895Y012069D02*
X007155Y012069D01*
X007155Y012167D02*
X006895Y012167D01*
X006895Y012266D02*
X007155Y012266D01*
X007155Y012364D02*
X006895Y012364D01*
X006895Y012463D02*
X007155Y012463D01*
X007155Y012561D02*
X006895Y012561D01*
X006895Y012660D02*
X007155Y012660D01*
X007155Y012758D02*
X006895Y012758D01*
X006895Y012857D02*
X007155Y012857D01*
X007155Y012955D02*
X006895Y012955D01*
X006895Y013054D02*
X007155Y013054D01*
X007155Y013152D02*
X006895Y013152D01*
X006895Y013251D02*
X007155Y013251D01*
X007104Y013349D02*
X006895Y013349D01*
X006895Y013448D02*
X007052Y013448D01*
X007052Y013546D02*
X006895Y013546D01*
X006895Y013645D02*
X007052Y013645D01*
X007052Y013743D02*
X006895Y013743D01*
X006895Y013842D02*
X007052Y013842D01*
X007093Y013940D02*
X006895Y013940D01*
X006405Y013940D02*
X006145Y013940D01*
X006145Y013842D02*
X006405Y013842D01*
X006405Y013743D02*
X006145Y013743D01*
X006145Y013645D02*
X006405Y013645D01*
X006405Y013546D02*
X006145Y013546D01*
X006145Y013448D02*
X006405Y013448D01*
X006405Y013349D02*
X006145Y013349D01*
X006145Y013251D02*
X006405Y013251D01*
X006405Y013152D02*
X006145Y013152D01*
X006145Y013054D02*
X006405Y013054D01*
X006405Y012955D02*
X006145Y012955D01*
X006145Y012857D02*
X006405Y012857D01*
X006405Y012758D02*
X006145Y012758D01*
X006145Y012660D02*
X006405Y012660D01*
X006405Y012561D02*
X006145Y012561D01*
X006145Y012463D02*
X006405Y012463D01*
X006405Y012364D02*
X006145Y012364D01*
X006145Y012266D02*
X006405Y012266D01*
X006405Y012167D02*
X006145Y012167D01*
X006145Y012069D02*
X006405Y012069D01*
X006405Y011970D02*
X006145Y011970D01*
X006145Y011872D02*
X006405Y011872D01*
X006405Y011773D02*
X006145Y011773D01*
X006145Y011675D02*
X006405Y011675D01*
X006405Y011576D02*
X006145Y011576D01*
X006145Y011478D02*
X006405Y011478D01*
X006405Y011379D02*
X006145Y011379D01*
X006145Y011281D02*
X006405Y011281D01*
X006405Y011182D02*
X006145Y011182D01*
X006145Y011084D02*
X006405Y011084D01*
X006405Y010985D02*
X006145Y010985D01*
X006145Y010887D02*
X006405Y010887D01*
X006405Y010788D02*
X006145Y010788D01*
X006145Y010690D02*
X006405Y010690D01*
X006405Y010591D02*
X006145Y010591D01*
X006145Y010493D02*
X006405Y010493D01*
X006405Y010394D02*
X006145Y010394D01*
X006145Y010296D02*
X006405Y010296D01*
X006405Y010197D02*
X006145Y010197D01*
X006145Y010099D02*
X006405Y010099D01*
X006405Y010000D02*
X006145Y010000D01*
X006145Y009902D02*
X006405Y009902D01*
X006405Y009803D02*
X006145Y009803D01*
X006145Y009705D02*
X006405Y009705D01*
X006405Y009606D02*
X006145Y009606D01*
X006145Y009508D02*
X006405Y009508D01*
X006312Y009409D02*
X006145Y009409D01*
X006145Y009311D02*
X006302Y009311D01*
X006302Y009212D02*
X006145Y009212D01*
X006145Y009114D02*
X006302Y009114D01*
X006302Y009015D02*
X006145Y009015D01*
X006145Y008917D02*
X006302Y008917D01*
X006385Y008818D02*
X006145Y008818D01*
X005655Y008818D02*
X005415Y008818D01*
X005399Y008802D02*
X005498Y008901D01*
X005498Y009399D01*
X005399Y009498D01*
X004901Y009498D01*
X004802Y009399D01*
X004802Y008901D01*
X004901Y008802D01*
X004905Y008802D01*
X004905Y006248D01*
X004901Y006248D01*
X004802Y006149D01*
X004802Y005651D01*
X004901Y005552D01*
X005399Y005552D01*
X005498Y005651D01*
X005498Y006149D01*
X005399Y006248D01*
X005395Y006248D01*
X005395Y008802D01*
X005399Y008802D01*
X005395Y008720D02*
X005655Y008720D01*
X005655Y008621D02*
X005395Y008621D01*
X005395Y008523D02*
X005655Y008523D01*
X005655Y008424D02*
X005395Y008424D01*
X005395Y008326D02*
X005655Y008326D01*
X005655Y008227D02*
X005395Y008227D01*
X005395Y008129D02*
X005655Y008129D01*
X005655Y008030D02*
X005395Y008030D01*
X005395Y007932D02*
X005655Y007932D01*
X005655Y007833D02*
X005395Y007833D01*
X005395Y007735D02*
X005655Y007735D01*
X005655Y007636D02*
X005395Y007636D01*
X005395Y007538D02*
X005655Y007538D01*
X005655Y007439D02*
X005395Y007439D01*
X005395Y007341D02*
X005655Y007341D01*
X005655Y007242D02*
X005395Y007242D01*
X005395Y007144D02*
X005655Y007144D01*
X005655Y007045D02*
X005395Y007045D01*
X005395Y006947D02*
X005655Y006947D01*
X005655Y006848D02*
X005395Y006848D01*
X005395Y006750D02*
X005655Y006750D01*
X005655Y006651D02*
X005395Y006651D01*
X005395Y006553D02*
X005655Y006553D01*
X005655Y006454D02*
X005395Y006454D01*
X005395Y006356D02*
X005655Y006356D01*
X005655Y006257D02*
X005395Y006257D01*
X005488Y006159D02*
X005655Y006159D01*
X005655Y006060D02*
X005498Y006060D01*
X005498Y005962D02*
X005655Y005962D01*
X005655Y005863D02*
X005498Y005863D01*
X005498Y005765D02*
X005655Y005765D01*
X005655Y005666D02*
X005498Y005666D01*
X005414Y005568D02*
X005655Y005568D01*
X005622Y005469D02*
X003928Y005469D01*
X003899Y005498D02*
X003998Y005399D01*
X003998Y004901D01*
X003899Y004802D01*
X003401Y004802D01*
X003302Y004901D01*
X003302Y005399D01*
X003401Y005498D01*
X003899Y005498D01*
X003998Y005371D02*
X005552Y005371D01*
X005552Y005272D02*
X003998Y005272D01*
X003998Y005174D02*
X005552Y005174D01*
X005552Y005075D02*
X003998Y005075D01*
X003998Y004977D02*
X005552Y004977D01*
X005552Y004878D02*
X003975Y004878D01*
X003325Y004878D02*
X002975Y004878D01*
X002998Y004977D02*
X003302Y004977D01*
X003302Y005075D02*
X002998Y005075D01*
X002998Y005174D02*
X003302Y005174D01*
X003302Y005272D02*
X002998Y005272D01*
X002998Y005371D02*
X003302Y005371D01*
X003372Y005469D02*
X002928Y005469D01*
X002895Y005568D02*
X004886Y005568D01*
X004802Y005666D02*
X002895Y005666D01*
X002895Y005765D02*
X004802Y005765D01*
X004802Y005863D02*
X002895Y005863D01*
X002895Y005962D02*
X004802Y005962D01*
X004802Y006060D02*
X002895Y006060D01*
X002895Y006159D02*
X004812Y006159D01*
X004905Y006257D02*
X002895Y006257D01*
X002895Y006356D02*
X004905Y006356D01*
X004905Y006454D02*
X002895Y006454D01*
X002895Y006553D02*
X004905Y006553D01*
X004905Y006651D02*
X002895Y006651D01*
X002895Y006750D02*
X004905Y006750D01*
X004905Y006848D02*
X002895Y006848D01*
X002895Y006947D02*
X004905Y006947D01*
X004905Y007045D02*
X002895Y007045D01*
X002895Y007144D02*
X004905Y007144D01*
X004905Y007242D02*
X002895Y007242D01*
X002895Y007341D02*
X004905Y007341D01*
X004905Y007439D02*
X002895Y007439D01*
X002895Y007538D02*
X004905Y007538D01*
X004905Y007636D02*
X002895Y007636D01*
X002895Y007735D02*
X004905Y007735D01*
X004905Y007833D02*
X002895Y007833D01*
X002895Y007932D02*
X004905Y007932D01*
X004905Y008030D02*
X002895Y008030D01*
X002895Y008129D02*
X004905Y008129D01*
X004905Y008227D02*
X003835Y008227D01*
X003828Y008220D02*
X004080Y008472D01*
X004080Y008828D01*
X003828Y009080D01*
X003472Y009080D01*
X003220Y008828D01*
X003220Y008472D01*
X003472Y008220D01*
X003828Y008220D01*
X003934Y008326D02*
X004905Y008326D01*
X004905Y008424D02*
X004032Y008424D01*
X004080Y008523D02*
X004905Y008523D01*
X004905Y008621D02*
X004080Y008621D01*
X004080Y008720D02*
X004905Y008720D01*
X004885Y008818D02*
X004665Y008818D01*
X004649Y008802D02*
X004748Y008901D01*
X004748Y009399D01*
X004649Y009498D01*
X004645Y009498D01*
X004645Y012302D01*
X004649Y012302D01*
X004748Y012401D01*
X004748Y012899D01*
X004649Y012998D01*
X004151Y012998D01*
X004052Y012899D01*
X004052Y012401D01*
X004151Y012302D01*
X004155Y012302D01*
X004155Y009498D01*
X004151Y009498D01*
X004052Y009399D01*
X004052Y008901D01*
X004151Y008802D01*
X004649Y008802D01*
X004748Y008917D02*
X004802Y008917D01*
X004802Y009015D02*
X004748Y009015D01*
X004748Y009114D02*
X004802Y009114D01*
X004802Y009212D02*
X004748Y009212D01*
X004748Y009311D02*
X004802Y009311D01*
X004812Y009409D02*
X004738Y009409D01*
X004645Y009508D02*
X005655Y009508D01*
X005655Y009606D02*
X004645Y009606D01*
X004645Y009705D02*
X005655Y009705D01*
X005655Y009803D02*
X004645Y009803D01*
X004645Y009902D02*
X005655Y009902D01*
X005655Y010000D02*
X004645Y010000D01*
X004645Y010099D02*
X005655Y010099D01*
X005655Y010197D02*
X004645Y010197D01*
X004645Y010296D02*
X005655Y010296D01*
X005655Y010394D02*
X004645Y010394D01*
X004645Y010493D02*
X005655Y010493D01*
X005655Y010591D02*
X004645Y010591D01*
X004645Y010690D02*
X005655Y010690D01*
X005655Y010788D02*
X004645Y010788D01*
X004645Y010887D02*
X005655Y010887D01*
X005655Y010985D02*
X004645Y010985D01*
X004645Y011084D02*
X005655Y011084D01*
X005655Y011182D02*
X004645Y011182D01*
X004645Y011281D02*
X005655Y011281D01*
X005655Y011379D02*
X004645Y011379D01*
X004645Y011478D02*
X005655Y011478D01*
X005655Y011576D02*
X004645Y011576D01*
X004645Y011675D02*
X005655Y011675D01*
X005655Y011773D02*
X004645Y011773D01*
X004645Y011872D02*
X005655Y011872D01*
X005655Y011970D02*
X004645Y011970D01*
X004645Y012069D02*
X005655Y012069D01*
X005655Y012167D02*
X004645Y012167D01*
X004645Y012266D02*
X005655Y012266D01*
X005655Y012364D02*
X004711Y012364D01*
X004748Y012463D02*
X005655Y012463D01*
X005655Y012561D02*
X004748Y012561D01*
X004748Y012660D02*
X005655Y012660D01*
X005655Y012758D02*
X004748Y012758D01*
X004748Y012857D02*
X005655Y012857D01*
X005655Y012955D02*
X004692Y012955D01*
X004108Y012955D02*
X002998Y012955D01*
X002998Y013054D02*
X005655Y013054D01*
X005655Y013152D02*
X002998Y013152D01*
X002998Y013251D02*
X005655Y013251D01*
X005655Y013349D02*
X005446Y013349D01*
X005498Y013448D02*
X005655Y013448D01*
X005655Y013546D02*
X005498Y013546D01*
X005498Y013645D02*
X005655Y013645D01*
X005655Y013743D02*
X005498Y013743D01*
X005498Y013842D02*
X005655Y013842D01*
X005655Y013940D02*
X005457Y013940D01*
X005395Y014039D02*
X005655Y014039D01*
X005655Y014137D02*
X005395Y014137D01*
X005395Y014236D02*
X005655Y014236D01*
X005655Y014334D02*
X005395Y014334D01*
X005395Y014433D02*
X005655Y014433D01*
X005655Y014531D02*
X005395Y014531D01*
X005395Y014630D02*
X005655Y014630D01*
X005655Y014728D02*
X005395Y014728D01*
X005395Y014827D02*
X005655Y014827D01*
X005655Y014925D02*
X005395Y014925D01*
X005395Y015024D02*
X005655Y015024D01*
X005655Y015122D02*
X005395Y015122D01*
X005395Y015221D02*
X005655Y015221D01*
X005655Y015319D02*
X005395Y015319D01*
X005395Y015418D02*
X005655Y015418D01*
X005655Y015516D02*
X005395Y015516D01*
X005395Y015615D02*
X005655Y015615D01*
X005655Y015713D02*
X005395Y015713D01*
X005395Y015812D02*
X005655Y015812D01*
X005655Y015910D02*
X005395Y015910D01*
X005395Y016009D02*
X005655Y016009D01*
X005655Y016107D02*
X005395Y016107D01*
X005395Y016206D02*
X005655Y016206D01*
X005655Y016304D02*
X005395Y016304D01*
X005395Y016403D02*
X005655Y016403D01*
X005655Y016501D02*
X005395Y016501D01*
X005395Y016600D02*
X005655Y016600D01*
X005655Y016698D02*
X005395Y016698D01*
X005395Y016797D02*
X005655Y016797D01*
X005655Y016895D02*
X005395Y016895D01*
X005395Y016994D02*
X005655Y016994D01*
X005655Y017092D02*
X005395Y017092D01*
X005395Y017191D02*
X005655Y017191D01*
X005655Y017289D02*
X005395Y017289D01*
X005395Y017388D02*
X005655Y017388D01*
X005655Y017486D02*
X005395Y017486D01*
X005395Y017585D02*
X005655Y017585D01*
X005655Y017683D02*
X005395Y017683D01*
X005395Y017782D02*
X005655Y017782D01*
X005573Y017880D02*
X005395Y017880D01*
X005395Y017979D02*
X005552Y017979D01*
X005552Y018077D02*
X005395Y018077D01*
X005395Y018176D02*
X005552Y018176D01*
X005552Y018274D02*
X005395Y018274D01*
X005395Y018373D02*
X005552Y018373D01*
X005624Y018471D02*
X005395Y018471D01*
X005395Y018570D02*
X007961Y018570D01*
X007863Y018471D02*
X006176Y018471D01*
X006248Y018373D02*
X007764Y018373D01*
X007720Y018274D02*
X006248Y018274D01*
X006248Y018176D02*
X007720Y018176D01*
X007720Y018077D02*
X006248Y018077D01*
X006248Y017979D02*
X007720Y017979D01*
X007812Y017880D02*
X006227Y017880D01*
X005395Y018767D02*
X007954Y018767D01*
X008120Y018767D02*
X008180Y018767D01*
X008180Y018740D02*
X008320Y018740D01*
X008560Y018980D01*
X008560Y019120D01*
X008180Y019120D01*
X008180Y018740D01*
X008180Y018865D02*
X008120Y018865D01*
X008120Y018964D02*
X008180Y018964D01*
X008180Y019062D02*
X008120Y019062D01*
X008180Y019161D02*
X009627Y019161D01*
X009557Y019259D02*
X008560Y019259D01*
X008522Y019358D02*
X009486Y019358D01*
X009416Y019456D02*
X008424Y019456D01*
X008325Y019555D02*
X009346Y019555D01*
X009275Y019653D02*
X006250Y019653D01*
X005951Y020047D02*
X000150Y020047D01*
X000150Y019949D02*
X005852Y019949D01*
X005754Y019850D02*
X000150Y019850D01*
X000150Y019752D02*
X005655Y019752D01*
X008346Y018767D02*
X009909Y018767D01*
X009838Y018865D02*
X008445Y018865D01*
X008543Y018964D02*
X009768Y018964D01*
X009697Y019062D02*
X008560Y019062D01*
X009737Y019850D02*
X020150Y019850D01*
X020150Y019752D02*
X009807Y019752D01*
X009877Y019653D02*
X020150Y019653D01*
X020150Y019555D02*
X010825Y019555D01*
X010924Y019456D02*
X020150Y019456D01*
X020150Y019358D02*
X019539Y019358D01*
X019482Y019381D02*
X019751Y019270D01*
X019957Y019064D01*
X020068Y018795D01*
X020068Y018505D01*
X019957Y018236D01*
X019751Y018030D01*
X019482Y017919D01*
X019192Y017919D01*
X018923Y018030D01*
X018717Y018236D01*
X018606Y018505D01*
X018606Y018795D01*
X018717Y019064D01*
X018923Y019270D01*
X019192Y019381D01*
X019482Y019381D01*
X019135Y019358D02*
X016665Y019358D01*
X016888Y019259D02*
X018912Y019259D01*
X018814Y019161D02*
X016986Y019161D01*
X017084Y019062D02*
X018716Y019062D01*
X018676Y018964D02*
X017124Y018964D01*
X017165Y018865D02*
X018635Y018865D01*
X018606Y018767D02*
X017194Y018767D01*
X017194Y018668D02*
X018606Y018668D01*
X018606Y018570D02*
X017194Y018570D01*
X017180Y018471D02*
X018620Y018471D01*
X018661Y018373D02*
X017139Y018373D01*
X017099Y018274D02*
X018701Y018274D01*
X018778Y018176D02*
X017022Y018176D01*
X016924Y018077D02*
X018876Y018077D01*
X019048Y017979D02*
X016752Y017979D01*
X015904Y018176D02*
X011080Y018176D01*
X011080Y018274D02*
X015827Y018274D01*
X015787Y018373D02*
X011036Y018373D01*
X010937Y018471D02*
X015746Y018471D01*
X015732Y018570D02*
X010839Y018570D01*
X010846Y018767D02*
X015732Y018767D01*
X015732Y018668D02*
X010581Y018668D01*
X010620Y018767D02*
X010680Y018767D01*
X010680Y018865D02*
X010620Y018865D01*
X010620Y018964D02*
X010680Y018964D01*
X010680Y019062D02*
X010620Y019062D01*
X010620Y019161D02*
X010229Y019161D01*
X010240Y019259D02*
X010159Y019259D01*
X010089Y019358D02*
X010278Y019358D01*
X010376Y019456D02*
X010018Y019456D01*
X009948Y019555D02*
X010475Y019555D01*
X010620Y019555D02*
X010680Y019555D01*
X010680Y019456D02*
X010620Y019456D01*
X010620Y019358D02*
X010680Y019358D01*
X010680Y019259D02*
X010620Y019259D01*
X010680Y019161D02*
X015940Y019161D01*
X016038Y019259D02*
X011060Y019259D01*
X011022Y019358D02*
X016261Y019358D01*
X015842Y019062D02*
X011060Y019062D01*
X011043Y018964D02*
X015802Y018964D01*
X015761Y018865D02*
X010945Y018865D01*
X009666Y019949D02*
X020150Y019949D01*
X020150Y020047D02*
X009599Y020047D01*
X009417Y020146D02*
X020150Y020146D01*
X020150Y019259D02*
X019762Y019259D01*
X019860Y019161D02*
X020150Y019161D01*
X020150Y019062D02*
X019958Y019062D01*
X019998Y018964D02*
X020150Y018964D01*
X020150Y018865D02*
X020039Y018865D01*
X020068Y018767D02*
X020150Y018767D01*
X020150Y018668D02*
X020068Y018668D01*
X020068Y018570D02*
X020150Y018570D01*
X020150Y018471D02*
X020054Y018471D01*
X020013Y018373D02*
X020150Y018373D01*
X020150Y018274D02*
X019973Y018274D01*
X019896Y018176D02*
X020150Y018176D01*
X020150Y018077D02*
X019798Y018077D01*
X019626Y017979D02*
X020150Y017979D01*
X018144Y017585D02*
X017686Y017585D01*
X017859Y017486D02*
X017971Y017486D01*
X019613Y015418D02*
X020150Y015418D01*
X020150Y015516D02*
X015498Y015516D01*
X015498Y015615D02*
X020150Y015615D01*
X020150Y015713D02*
X015498Y015713D01*
X015498Y015812D02*
X020150Y015812D01*
X020150Y015910D02*
X015487Y015910D01*
X013650Y015910D02*
X013258Y015910D01*
X013309Y015812D02*
X013650Y015812D01*
X013650Y015713D02*
X013340Y015713D01*
X013340Y015615D02*
X013650Y015615D01*
X013650Y015516D02*
X013320Y015516D01*
X013279Y015418D02*
X013650Y015418D01*
X013650Y015319D02*
X013187Y015319D01*
X012997Y015221D02*
X013650Y015221D01*
X013650Y016009D02*
X013160Y016009D01*
X012680Y015024D02*
X012620Y015024D01*
X012620Y014925D02*
X012680Y014925D01*
X012680Y014827D02*
X012620Y014827D01*
X012620Y014728D02*
X012680Y014728D01*
X012680Y014531D02*
X012620Y014531D01*
X012620Y014433D02*
X012680Y014433D01*
X012680Y014334D02*
X012620Y014334D01*
X013096Y014039D02*
X013650Y014039D01*
X013650Y013940D02*
X013228Y013940D01*
X013296Y013842D02*
X013650Y013842D01*
X013650Y013743D02*
X013337Y013743D01*
X013340Y013645D02*
X013650Y013645D01*
X013650Y013546D02*
X013332Y013546D01*
X013292Y013448D02*
X013650Y013448D01*
X013650Y013349D02*
X013217Y013349D01*
X013069Y013251D02*
X013650Y013251D01*
X010405Y013251D02*
X010248Y013251D01*
X010248Y013349D02*
X010405Y013349D01*
X010405Y013448D02*
X010248Y013448D01*
X010248Y013546D02*
X010405Y013546D01*
X010405Y013645D02*
X010248Y013645D01*
X010248Y013743D02*
X010405Y013743D01*
X010405Y013842D02*
X010248Y013842D01*
X010207Y013940D02*
X010405Y013940D01*
X010405Y014039D02*
X010145Y014039D01*
X010145Y014137D02*
X010405Y014137D01*
X010405Y014236D02*
X010145Y014236D01*
X010145Y014334D02*
X010405Y014334D01*
X010405Y014433D02*
X010145Y014433D01*
X010145Y014531D02*
X010405Y014531D01*
X010405Y014630D02*
X010145Y014630D01*
X010145Y014728D02*
X010405Y014728D01*
X010405Y014827D02*
X010145Y014827D01*
X010145Y014925D02*
X010405Y014925D01*
X010405Y015024D02*
X010145Y015024D01*
X010145Y015122D02*
X010405Y015122D01*
X010405Y015221D02*
X010145Y015221D01*
X010145Y015319D02*
X010384Y015319D01*
X010302Y015418D02*
X010145Y015418D01*
X010145Y015516D02*
X010302Y015516D01*
X010302Y015615D02*
X010145Y015615D01*
X010145Y015713D02*
X010302Y015713D01*
X010302Y015812D02*
X010145Y015812D01*
X010145Y015910D02*
X010313Y015910D01*
X009655Y014925D02*
X009243Y014925D01*
X009302Y014827D02*
X009655Y014827D01*
X009655Y014728D02*
X009340Y014728D01*
X009340Y014630D02*
X009655Y014630D01*
X009655Y014531D02*
X009326Y014531D01*
X009285Y014433D02*
X009655Y014433D01*
X009655Y014334D02*
X009202Y014334D01*
X009033Y014236D02*
X009655Y014236D01*
X010248Y013152D02*
X010405Y013152D01*
X010405Y013054D02*
X010248Y013054D01*
X010248Y012955D02*
X010405Y012955D01*
X010405Y012857D02*
X010203Y012857D01*
X008231Y013251D02*
X007645Y013251D01*
X007696Y013349D02*
X008083Y013349D01*
X008008Y013448D02*
X007748Y013448D01*
X007748Y013546D02*
X007968Y013546D01*
X007960Y013645D02*
X007748Y013645D01*
X007748Y013743D02*
X007963Y013743D01*
X008004Y013842D02*
X007748Y013842D01*
X007707Y013940D02*
X008072Y013940D01*
X008303Y015221D02*
X006145Y015221D01*
X006145Y015319D02*
X008113Y015319D01*
X008021Y015418D02*
X006145Y015418D01*
X006145Y015516D02*
X007980Y015516D01*
X007960Y015615D02*
X006145Y015615D01*
X006145Y015713D02*
X007960Y015713D01*
X007991Y015812D02*
X006145Y015812D01*
X006145Y015910D02*
X008042Y015910D01*
X008140Y016009D02*
X006145Y016009D01*
X006145Y014925D02*
X006328Y014925D01*
X006302Y014827D02*
X006145Y014827D01*
X006145Y014728D02*
X006302Y014728D01*
X006302Y014630D02*
X006145Y014630D01*
X006145Y014531D02*
X006302Y014531D01*
X006302Y014433D02*
X006145Y014433D01*
X006145Y014334D02*
X006369Y014334D01*
X006405Y014236D02*
X006145Y014236D01*
X006145Y014137D02*
X006405Y014137D01*
X006405Y014039D02*
X006145Y014039D01*
X004089Y012364D02*
X002895Y012364D01*
X002895Y012266D02*
X004155Y012266D01*
X004155Y012167D02*
X002895Y012167D01*
X002895Y012069D02*
X004155Y012069D01*
X004155Y011970D02*
X003927Y011970D01*
X003899Y011998D02*
X003998Y011899D01*
X003998Y011401D01*
X003899Y011302D01*
X003895Y011302D01*
X003895Y011013D01*
X004080Y010828D01*
X004080Y010472D01*
X003828Y010220D01*
X003472Y010220D01*
X003220Y010472D01*
X003220Y010828D01*
X003405Y011013D01*
X003405Y011302D01*
X003401Y011302D01*
X003302Y011401D01*
X003302Y011899D01*
X003401Y011998D01*
X003899Y011998D01*
X003998Y011872D02*
X004155Y011872D01*
X004155Y011773D02*
X003998Y011773D01*
X003998Y011675D02*
X004155Y011675D01*
X004155Y011576D02*
X003998Y011576D01*
X003998Y011478D02*
X004155Y011478D01*
X004155Y011379D02*
X003976Y011379D01*
X003895Y011281D02*
X004155Y011281D01*
X004155Y011182D02*
X003895Y011182D01*
X003895Y011084D02*
X004155Y011084D01*
X004155Y010985D02*
X003923Y010985D01*
X004022Y010887D02*
X004155Y010887D01*
X004155Y010788D02*
X004080Y010788D01*
X004080Y010690D02*
X004155Y010690D01*
X004155Y010591D02*
X004080Y010591D01*
X004080Y010493D02*
X004155Y010493D01*
X004155Y010394D02*
X004002Y010394D01*
X003904Y010296D02*
X004155Y010296D01*
X004155Y010197D02*
X002895Y010197D01*
X002895Y010099D02*
X004155Y010099D01*
X004155Y010000D02*
X003880Y010000D01*
X003820Y010060D02*
X004060Y009820D01*
X004060Y009680D01*
X003680Y009680D01*
X003620Y009680D01*
X003620Y009620D01*
X003240Y009620D01*
X003240Y009480D01*
X003480Y009240D01*
X003620Y009240D01*
X003620Y009620D01*
X003680Y009620D01*
X003680Y009240D01*
X003820Y009240D01*
X004060Y009480D01*
X004060Y009620D01*
X003680Y009620D01*
X003680Y009680D01*
X003680Y010060D01*
X003820Y010060D01*
X003680Y010000D02*
X003620Y010000D01*
X003620Y010060D02*
X003480Y010060D01*
X003240Y009820D01*
X003240Y009680D01*
X003620Y009680D01*
X003620Y010060D01*
X003620Y009902D02*
X003680Y009902D01*
X003680Y009803D02*
X003620Y009803D01*
X003620Y009705D02*
X003680Y009705D01*
X003680Y009606D02*
X003620Y009606D01*
X003620Y009508D02*
X003680Y009508D01*
X003680Y009409D02*
X003620Y009409D01*
X003620Y009311D02*
X003680Y009311D01*
X003890Y009311D02*
X004052Y009311D01*
X004062Y009409D02*
X003989Y009409D01*
X004060Y009508D02*
X004155Y009508D01*
X004155Y009606D02*
X004060Y009606D01*
X004060Y009705D02*
X004155Y009705D01*
X004155Y009803D02*
X004060Y009803D01*
X003978Y009902D02*
X004155Y009902D01*
X004052Y009212D02*
X002895Y009212D01*
X002895Y009114D02*
X004052Y009114D01*
X004052Y009015D02*
X003893Y009015D01*
X003992Y008917D02*
X004052Y008917D01*
X004080Y008818D02*
X004135Y008818D01*
X003465Y008227D02*
X002895Y008227D01*
X002895Y008326D02*
X003366Y008326D01*
X003268Y008424D02*
X002895Y008424D01*
X002895Y008523D02*
X003220Y008523D01*
X003220Y008621D02*
X002895Y008621D01*
X002895Y008720D02*
X003220Y008720D01*
X003220Y008818D02*
X002895Y008818D01*
X002895Y008917D02*
X003308Y008917D01*
X003407Y009015D02*
X002895Y009015D01*
X002895Y009311D02*
X003410Y009311D01*
X003311Y009409D02*
X002895Y009409D01*
X002895Y009508D02*
X003240Y009508D01*
X003240Y009606D02*
X002895Y009606D01*
X002895Y009705D02*
X003240Y009705D01*
X003240Y009803D02*
X002895Y009803D01*
X002895Y009902D02*
X003322Y009902D01*
X003420Y010000D02*
X002895Y010000D01*
X002895Y010296D02*
X003396Y010296D01*
X003298Y010394D02*
X002895Y010394D01*
X002895Y010493D02*
X003220Y010493D01*
X003220Y010591D02*
X002895Y010591D01*
X002895Y010690D02*
X003220Y010690D01*
X003220Y010788D02*
X002895Y010788D01*
X002895Y010887D02*
X003278Y010887D01*
X003377Y010985D02*
X002895Y010985D01*
X002895Y011084D02*
X003405Y011084D01*
X003405Y011182D02*
X002895Y011182D01*
X002895Y011281D02*
X003405Y011281D01*
X003324Y011379D02*
X002895Y011379D01*
X002895Y011478D02*
X003302Y011478D01*
X003302Y011576D02*
X002895Y011576D01*
X002895Y011675D02*
X003302Y011675D01*
X003302Y011773D02*
X002895Y011773D01*
X002895Y011872D02*
X003302Y011872D01*
X003373Y011970D02*
X002895Y011970D01*
X002895Y012463D02*
X004052Y012463D01*
X004052Y012561D02*
X002895Y012561D01*
X002895Y012660D02*
X004052Y012660D01*
X004052Y012758D02*
X002895Y012758D01*
X002953Y012857D02*
X004052Y012857D01*
X001655Y012857D02*
X001113Y012857D01*
X001154Y012955D02*
X001655Y012955D01*
X001655Y013054D02*
X001190Y013054D01*
X001190Y013152D02*
X001655Y013152D01*
X001655Y013251D02*
X001190Y013251D01*
X001152Y013349D02*
X001604Y013349D01*
X001552Y013448D02*
X001111Y013448D01*
X001018Y013546D02*
X001552Y013546D01*
X001552Y013645D02*
X001125Y013645D01*
X001190Y013743D02*
X001552Y013743D01*
X001552Y013842D02*
X001190Y013842D01*
X001190Y013940D02*
X001593Y013940D01*
X001655Y014039D02*
X001190Y014039D01*
X001190Y014137D02*
X001655Y014137D01*
X001655Y014236D02*
X001190Y014236D01*
X001190Y014334D02*
X001655Y014334D01*
X001655Y014433D02*
X001190Y014433D01*
X001190Y014531D02*
X001655Y014531D01*
X001655Y014630D02*
X001151Y014630D01*
X001655Y014728D02*
X000150Y014728D01*
X000150Y014827D02*
X001655Y014827D01*
X001655Y014925D02*
X000150Y014925D01*
X000150Y015024D02*
X001655Y015024D01*
X001655Y015122D02*
X000150Y015122D01*
X000150Y015221D02*
X001655Y015221D01*
X001655Y015319D02*
X000150Y015319D01*
X000150Y015418D02*
X001655Y015418D01*
X001655Y015516D02*
X000150Y015516D01*
X000150Y015615D02*
X001655Y015615D01*
X001655Y015713D02*
X000150Y015713D01*
X000150Y015812D02*
X001655Y015812D01*
X001655Y015910D02*
X000150Y015910D01*
X000150Y016009D02*
X001655Y016009D01*
X001596Y016107D02*
X000150Y016107D01*
X000150Y016206D02*
X001552Y016206D01*
X001552Y016304D02*
X000150Y016304D01*
X000150Y016403D02*
X001552Y016403D01*
X001552Y016501D02*
X000150Y016501D01*
X000150Y016600D02*
X001552Y016600D01*
X001601Y016698D02*
X000150Y016698D01*
X000150Y017782D02*
X002410Y017782D01*
X002312Y017880D02*
X000150Y017880D01*
X000150Y017979D02*
X002220Y017979D01*
X002220Y018077D02*
X000150Y018077D01*
X000150Y018176D02*
X002220Y018176D01*
X002220Y018274D02*
X000150Y018274D01*
X000150Y018373D02*
X002264Y018373D01*
X002363Y018471D02*
X000150Y018471D01*
X000150Y020146D02*
X009374Y020146D01*
X001655Y012758D02*
X001022Y012758D01*
X000877Y012660D02*
X001655Y012660D01*
X001655Y012561D02*
X001003Y012561D01*
X001101Y012463D02*
X001655Y012463D01*
X001655Y012364D02*
X001146Y012364D01*
X001187Y012266D02*
X001655Y012266D01*
X001655Y012167D02*
X001190Y012167D01*
X001190Y012069D02*
X001655Y012069D01*
X001655Y011970D02*
X001160Y011970D01*
X001119Y011872D02*
X001655Y011872D01*
X001655Y011773D02*
X001037Y011773D01*
X000913Y011675D02*
X001655Y011675D01*
X001655Y011576D02*
X000988Y011576D01*
X001086Y011478D02*
X001631Y011478D01*
X001552Y011379D02*
X001140Y011379D01*
X001180Y011281D02*
X001552Y011281D01*
X001552Y011182D02*
X001190Y011182D01*
X001190Y011084D02*
X001552Y011084D01*
X001552Y010985D02*
X001166Y010985D01*
X001125Y010887D02*
X001567Y010887D01*
X000351Y010690D02*
X000150Y010690D01*
X000150Y010788D02*
X000248Y010788D01*
X000175Y010887D02*
X000150Y010887D01*
X000856Y006651D02*
X001554Y006651D01*
X001552Y006553D02*
X001011Y006553D01*
X001109Y006454D02*
X001552Y006454D01*
X001552Y006356D02*
X001149Y006356D01*
X001190Y006060D02*
X001643Y006060D01*
X001655Y005962D02*
X001156Y005962D01*
X001116Y005863D02*
X001655Y005863D01*
X001655Y005765D02*
X001028Y005765D01*
X000893Y005666D02*
X001655Y005666D01*
X001655Y005568D02*
X000150Y005568D01*
X000150Y005666D02*
X000407Y005666D01*
X000272Y005765D02*
X000150Y005765D01*
X000150Y005863D02*
X000184Y005863D01*
X000150Y005469D02*
X001655Y005469D01*
X001655Y005371D02*
X000150Y005371D01*
X000150Y005272D02*
X001655Y005272D01*
X001655Y005174D02*
X000150Y005174D01*
X000150Y005075D02*
X001655Y005075D01*
X001655Y004977D02*
X000150Y004977D01*
X000150Y004878D02*
X001655Y004878D01*
X001655Y004780D02*
X000150Y004780D01*
X000150Y004681D02*
X000201Y004681D01*
X001099Y004681D02*
X001655Y004681D01*
X001655Y004583D02*
X001190Y004583D01*
X001190Y004484D02*
X001637Y004484D01*
X001552Y004386D02*
X001190Y004386D01*
X001190Y004287D02*
X001552Y004287D01*
X001552Y004189D02*
X001190Y004189D01*
X001190Y004090D02*
X001552Y004090D01*
X001552Y003992D02*
X001190Y003992D01*
X001190Y003893D02*
X001560Y003893D01*
X002895Y003893D02*
X005152Y003893D01*
X005155Y003795D02*
X002895Y003795D01*
X002895Y003992D02*
X005168Y003992D01*
X005232Y004090D02*
X002895Y004090D01*
X002895Y004189D02*
X005298Y004189D01*
X005364Y004287D02*
X002895Y004287D01*
X002895Y004386D02*
X005429Y004386D01*
X005495Y004484D02*
X002895Y004484D01*
X002895Y004583D02*
X005552Y004583D01*
X005552Y004681D02*
X002895Y004681D01*
X002895Y004780D02*
X005552Y004780D01*
X005645Y003007D02*
X005675Y003007D01*
X005645Y002908D02*
X005721Y002908D01*
X005645Y002810D02*
X005819Y002810D01*
X005918Y002711D02*
X005645Y002711D01*
X007645Y002711D02*
X007960Y002711D01*
X007960Y002736D02*
X007960Y002564D01*
X008025Y002406D01*
X008146Y002285D01*
X008304Y002220D01*
X008996Y002220D01*
X009154Y002285D01*
X009275Y002406D01*
X009340Y002564D01*
X009340Y002736D01*
X009275Y002894D01*
X009154Y003015D01*
X008996Y003080D01*
X008304Y003080D01*
X008146Y003015D01*
X008025Y002894D01*
X007960Y002736D01*
X007991Y002810D02*
X007645Y002810D01*
X007645Y002908D02*
X008040Y002908D01*
X008138Y003007D02*
X007645Y003007D01*
X007645Y003105D02*
X009905Y003105D01*
X009905Y003007D02*
X009162Y003007D01*
X009260Y002908D02*
X009811Y002908D01*
X009802Y002810D02*
X009309Y002810D01*
X009340Y002711D02*
X009802Y002711D01*
X009802Y002613D02*
X009340Y002613D01*
X009319Y002514D02*
X009802Y002514D01*
X009802Y002416D02*
X009278Y002416D01*
X009185Y002317D02*
X009886Y002317D01*
X009905Y002219D02*
X007645Y002219D01*
X007645Y002317D02*
X008115Y002317D01*
X008022Y002416D02*
X007645Y002416D01*
X007645Y002514D02*
X007981Y002514D01*
X007960Y002613D02*
X007645Y002613D01*
X007645Y002120D02*
X009905Y002120D01*
X009905Y002022D02*
X007645Y002022D01*
X007645Y001923D02*
X009905Y001923D01*
X009905Y001825D02*
X007645Y001825D01*
X007645Y001726D02*
X009905Y001726D01*
X009905Y001628D02*
X007645Y001628D01*
X007645Y003204D02*
X009905Y003204D01*
X009899Y003302D02*
X009905Y003308D01*
X009302Y003893D02*
X009275Y003893D01*
X009177Y003992D02*
X009395Y003992D01*
X009400Y004090D02*
X007645Y004090D01*
X007645Y003992D02*
X008123Y003992D01*
X008025Y003893D02*
X007645Y003893D01*
X007645Y003795D02*
X007984Y003795D01*
X007960Y003696D02*
X007645Y003696D01*
X007645Y003598D02*
X007960Y003598D01*
X007987Y003499D02*
X007645Y003499D01*
X007645Y003401D02*
X008031Y003401D01*
X008130Y003302D02*
X007645Y003302D01*
X007645Y004189D02*
X009400Y004189D01*
X009400Y004287D02*
X009155Y004287D01*
X009154Y004285D02*
X009275Y004406D01*
X009340Y004564D01*
X009340Y004736D01*
X009275Y004894D01*
X009154Y005015D01*
X008996Y005080D01*
X008304Y005080D01*
X008146Y005015D01*
X008025Y004894D01*
X007960Y004736D01*
X007960Y004564D01*
X008025Y004406D01*
X008146Y004285D01*
X008304Y004220D01*
X008996Y004220D01*
X009154Y004285D01*
X009254Y004386D02*
X009400Y004386D01*
X009400Y004484D02*
X009307Y004484D01*
X009340Y004583D02*
X009400Y004583D01*
X009400Y004681D02*
X009340Y004681D01*
X009322Y004780D02*
X009400Y004780D01*
X009400Y004878D02*
X009281Y004878D01*
X009192Y004977D02*
X009400Y004977D01*
X009400Y005075D02*
X009008Y005075D01*
X008996Y005220D02*
X009154Y005285D01*
X009275Y005406D01*
X009340Y005564D01*
X009340Y005736D01*
X009275Y005894D01*
X009154Y006015D01*
X008996Y006080D01*
X008304Y006080D01*
X008146Y006015D01*
X008025Y005894D01*
X007960Y005736D01*
X007960Y005564D01*
X008025Y005406D01*
X008146Y005285D01*
X008304Y005220D01*
X008996Y005220D01*
X009121Y005272D02*
X009400Y005272D01*
X009400Y005174D02*
X007645Y005174D01*
X007645Y005272D02*
X008179Y005272D01*
X008061Y005371D02*
X007645Y005371D01*
X007645Y005469D02*
X007999Y005469D01*
X007960Y005568D02*
X007645Y005568D01*
X007645Y005666D02*
X007960Y005666D01*
X007972Y005765D02*
X007645Y005765D01*
X007645Y005863D02*
X008013Y005863D01*
X008093Y005962D02*
X007645Y005962D01*
X007645Y006060D02*
X008256Y006060D01*
X008304Y006220D02*
X008996Y006220D01*
X009154Y006285D01*
X009275Y006406D01*
X009340Y006564D01*
X009340Y006736D01*
X009275Y006894D01*
X009154Y007015D01*
X008996Y007080D01*
X008304Y007080D01*
X008146Y007015D01*
X008025Y006894D01*
X007960Y006736D01*
X007960Y006564D01*
X008025Y006406D01*
X008146Y006285D01*
X008304Y006220D01*
X008215Y006257D02*
X007645Y006257D01*
X007645Y006159D02*
X009400Y006159D01*
X009400Y006257D02*
X009085Y006257D01*
X009224Y006356D02*
X009400Y006356D01*
X009400Y006454D02*
X009294Y006454D01*
X009335Y006553D02*
X009400Y006553D01*
X009400Y006651D02*
X009340Y006651D01*
X009334Y006750D02*
X009400Y006750D01*
X009355Y006848D02*
X009294Y006848D01*
X009302Y006947D02*
X009222Y006947D01*
X009302Y007045D02*
X009080Y007045D01*
X008996Y007220D02*
X009154Y007285D01*
X009275Y007406D01*
X009340Y007564D01*
X009340Y007736D01*
X009275Y007894D01*
X009154Y008015D01*
X008996Y008080D01*
X008304Y008080D01*
X008146Y008015D01*
X008025Y007894D01*
X007960Y007736D01*
X007960Y007564D01*
X008025Y007406D01*
X008146Y007285D01*
X008304Y007220D01*
X008996Y007220D01*
X009049Y007242D02*
X009302Y007242D01*
X009302Y007144D02*
X007645Y007144D01*
X007645Y007242D02*
X008251Y007242D01*
X008091Y007341D02*
X007645Y007341D01*
X007645Y007439D02*
X008012Y007439D01*
X007971Y007538D02*
X007645Y007538D01*
X007645Y007636D02*
X007960Y007636D01*
X007960Y007735D02*
X007645Y007735D01*
X007645Y007833D02*
X008000Y007833D01*
X008063Y007932D02*
X007645Y007932D01*
X007645Y008030D02*
X008184Y008030D01*
X008287Y008227D02*
X007645Y008227D01*
X007645Y008129D02*
X009802Y008129D01*
X009802Y008227D02*
X009013Y008227D01*
X009194Y008326D02*
X009802Y008326D01*
X009827Y008424D02*
X009282Y008424D01*
X009323Y008523D02*
X010405Y008523D01*
X010405Y008621D02*
X009340Y008621D01*
X009116Y008030D02*
X009802Y008030D01*
X009802Y007932D02*
X009237Y007932D01*
X009300Y007833D02*
X009870Y007833D01*
X009905Y007735D02*
X009340Y007735D01*
X009340Y007636D02*
X009905Y007636D01*
X009905Y007538D02*
X009329Y007538D01*
X009342Y007439D02*
X009288Y007439D01*
X009302Y007341D02*
X009209Y007341D01*
X008220Y007045D02*
X007645Y007045D01*
X007645Y006947D02*
X008078Y006947D01*
X008006Y006848D02*
X007645Y006848D01*
X007645Y006750D02*
X007966Y006750D01*
X007960Y006651D02*
X007645Y006651D01*
X007645Y006553D02*
X007965Y006553D01*
X008006Y006454D02*
X007645Y006454D01*
X007645Y006356D02*
X008076Y006356D01*
X009044Y006060D02*
X009400Y006060D01*
X009400Y005962D02*
X009207Y005962D01*
X009287Y005863D02*
X009400Y005863D01*
X009400Y005765D02*
X009328Y005765D01*
X009340Y005666D02*
X009400Y005666D01*
X009400Y005568D02*
X009340Y005568D01*
X009301Y005469D02*
X009400Y005469D01*
X009400Y005371D02*
X009239Y005371D01*
X008292Y005075D02*
X007645Y005075D01*
X007645Y004977D02*
X008108Y004977D01*
X008019Y004878D02*
X007645Y004878D01*
X007645Y004780D02*
X007978Y004780D01*
X007960Y004681D02*
X007645Y004681D01*
X007645Y004583D02*
X007960Y004583D01*
X007993Y004484D02*
X007645Y004484D01*
X007645Y004386D02*
X008046Y004386D01*
X008145Y004287D02*
X007645Y004287D01*
X011546Y001135D02*
X011569Y001135D01*
X011546Y001037D02*
X011667Y001037D01*
X011766Y000938D02*
X011546Y000938D01*
X011546Y000840D02*
X011864Y000840D01*
X011963Y000741D02*
X011467Y000741D01*
X014395Y002022D02*
X017905Y002022D01*
X017905Y002120D02*
X014395Y002120D01*
X014474Y001923D02*
X017905Y001923D01*
X017905Y001825D02*
X014498Y001825D01*
X014498Y001726D02*
X017905Y001726D01*
X017905Y001628D02*
X014498Y001628D01*
X014498Y001529D02*
X017905Y001529D01*
X017834Y001431D02*
X014498Y001431D01*
X014429Y001332D02*
X017736Y001332D01*
X017905Y003007D02*
X016669Y003007D01*
X016686Y003015D02*
X016743Y003057D01*
X016793Y003107D01*
X016835Y003164D01*
X016867Y003227D01*
X016889Y003295D01*
X016898Y003350D01*
X016200Y003350D01*
X016200Y002950D01*
X016485Y002950D01*
X016555Y002961D01*
X016623Y002983D01*
X016686Y003015D01*
X016791Y003105D02*
X017905Y003105D01*
X017905Y003204D02*
X016855Y003204D01*
X016890Y003302D02*
X017905Y003302D01*
X018395Y003598D02*
X018883Y003598D01*
X017905Y003992D02*
X016692Y003992D01*
X016805Y004090D02*
X017905Y004090D01*
X017905Y004189D02*
X017030Y004189D01*
X017133Y004287D02*
X017905Y004287D01*
X017905Y004386D02*
X017232Y004386D01*
X017330Y004484D02*
X017905Y004484D01*
X017905Y004583D02*
X017387Y004583D01*
X017395Y004681D02*
X017905Y004681D01*
X017905Y004780D02*
X017395Y004780D01*
X017395Y004878D02*
X017905Y004878D01*
X017905Y004977D02*
X017395Y004977D01*
X017395Y005075D02*
X017905Y005075D01*
X017905Y005174D02*
X017395Y005174D01*
X017395Y005272D02*
X017905Y005272D01*
X019528Y005765D02*
X019655Y005765D01*
X019655Y005863D02*
X019616Y005863D01*
X020145Y005863D02*
X020150Y005863D01*
X020145Y005765D02*
X020150Y005765D01*
X020145Y005666D02*
X020150Y005666D01*
X020145Y005568D02*
X020150Y005568D01*
X020145Y005469D02*
X020150Y005469D01*
X020145Y005371D02*
X020150Y005371D01*
X020145Y005272D02*
X020150Y005272D01*
X020145Y005174D02*
X020150Y005174D01*
X020145Y005075D02*
X020150Y005075D01*
X020145Y004977D02*
X020150Y004977D01*
X020145Y004878D02*
X020150Y004878D01*
X020145Y004780D02*
X020150Y004780D01*
X020145Y004681D02*
X020150Y004681D01*
X020145Y004583D02*
X020150Y004583D01*
X020145Y004484D02*
X020150Y004484D01*
X020145Y004386D02*
X020150Y004386D01*
X020145Y004287D02*
X020150Y004287D01*
X020145Y004189D02*
X020150Y004189D01*
X020145Y004090D02*
X020150Y004090D01*
X020145Y003992D02*
X020150Y003992D01*
X020145Y003893D02*
X020150Y003893D01*
X020145Y003795D02*
X020150Y003795D01*
X020145Y003696D02*
X020150Y003696D01*
X020145Y003598D02*
X020150Y003598D01*
X020145Y003499D02*
X020150Y003499D01*
X020145Y003401D02*
X020150Y003401D01*
X020145Y003302D02*
X020150Y003302D01*
X020145Y003204D02*
X020150Y003204D01*
X020145Y003105D02*
X020150Y003105D01*
X020145Y003007D02*
X020150Y003007D01*
X020145Y002908D02*
X020150Y002908D01*
X020145Y002810D02*
X020150Y002810D01*
X020145Y002711D02*
X020150Y002711D01*
X020145Y002613D02*
X020150Y002613D01*
X020145Y002514D02*
X020150Y002514D01*
X020145Y002416D02*
X020150Y002416D01*
X020145Y002317D02*
X020150Y002317D01*
X020145Y002219D02*
X020150Y002219D01*
X020145Y002120D02*
X020150Y002120D01*
X020145Y002022D02*
X020150Y002022D01*
X020145Y001923D02*
X020150Y001923D01*
X020145Y001825D02*
X020150Y001825D01*
X020145Y001726D02*
X020150Y001726D01*
X020145Y001628D02*
X020150Y001628D01*
X020145Y001529D02*
X020150Y001529D01*
X020145Y001431D02*
X020150Y001431D01*
X020145Y001332D02*
X020150Y001332D01*
X020145Y001234D02*
X020150Y001234D01*
X020145Y001135D02*
X020150Y001135D01*
X020145Y001037D02*
X020150Y001037D01*
X020145Y000938D02*
X020150Y000938D01*
X020145Y000840D02*
X020150Y000840D01*
X020145Y000741D02*
X020150Y000741D01*
X020145Y000643D02*
X020150Y000643D01*
X020150Y000544D02*
X020121Y000544D01*
X020150Y000446D02*
X020042Y000446D01*
X019943Y000347D02*
X020150Y000347D01*
X020150Y000249D02*
X019845Y000249D01*
X016200Y003007D02*
X016100Y003007D01*
X016100Y003105D02*
X016200Y003105D01*
X016200Y003204D02*
X016100Y003204D01*
X016100Y003302D02*
X016200Y003302D01*
X016200Y003598D02*
X016100Y003598D01*
X016100Y003696D02*
X016200Y003696D01*
X016200Y003795D02*
X016100Y003795D01*
X019599Y004681D02*
X019655Y004681D01*
X020145Y005962D02*
X020150Y005962D01*
X020145Y006060D02*
X020150Y006060D01*
X020145Y006159D02*
X020150Y006159D01*
X020145Y006257D02*
X020150Y006257D01*
X020145Y006356D02*
X020150Y006356D01*
X020145Y006454D02*
X020150Y006454D01*
X020145Y006553D02*
X020150Y006553D01*
X020145Y006651D02*
X020150Y006651D01*
X020145Y006750D02*
X020150Y006750D01*
X020145Y006848D02*
X020150Y006848D01*
X020145Y006947D02*
X020150Y006947D01*
X020145Y007045D02*
X020150Y007045D01*
X020145Y007144D02*
X020150Y007144D01*
X020145Y007242D02*
X020150Y007242D01*
X020145Y007341D02*
X020150Y007341D01*
X020145Y007439D02*
X020150Y007439D01*
X020145Y007538D02*
X020150Y007538D01*
X020145Y007636D02*
X020150Y007636D01*
X020150Y007735D02*
X020130Y007735D01*
X020150Y007833D02*
X020063Y007833D01*
X020150Y007932D02*
X019965Y007932D01*
X019866Y008030D02*
X020150Y008030D01*
X020150Y008129D02*
X019768Y008129D01*
X019690Y008227D02*
X020150Y008227D01*
X020150Y008326D02*
X019662Y008326D01*
X019621Y008424D02*
X020150Y008424D01*
X020150Y008523D02*
X019541Y008523D01*
X019601Y008621D02*
X020150Y008621D01*
X020150Y008720D02*
X019690Y008720D01*
X019690Y008818D02*
X020150Y008818D01*
X020150Y008917D02*
X019690Y008917D01*
X019690Y009015D02*
X020150Y009015D01*
X020150Y009114D02*
X019690Y009114D01*
X019690Y009212D02*
X020150Y009212D01*
X020150Y009311D02*
X019690Y009311D01*
X019690Y009409D02*
X020150Y009409D01*
X020150Y009508D02*
X019690Y009508D01*
X019674Y009606D02*
X020150Y009606D01*
X020150Y010099D02*
X018400Y010099D01*
X018400Y010197D02*
X020150Y010197D01*
X020150Y010296D02*
X018400Y010296D01*
X018400Y010394D02*
X018960Y010394D01*
X018794Y010493D02*
X018400Y010493D01*
X018400Y010591D02*
X018695Y010591D01*
X018653Y010690D02*
X018400Y010690D01*
X018400Y010788D02*
X018612Y010788D01*
X018610Y010887D02*
X018400Y010887D01*
X018400Y010985D02*
X018610Y010985D01*
X018642Y011084D02*
X018400Y011084D01*
X018400Y011182D02*
X018682Y011182D01*
X018767Y011281D02*
X018400Y011281D01*
X018400Y011379D02*
X018895Y011379D01*
X018809Y011478D02*
X018400Y011478D01*
X018423Y011576D02*
X018710Y011576D01*
X018659Y011675D02*
X018498Y011675D01*
X018498Y011773D02*
X018618Y011773D01*
X018610Y011872D02*
X018498Y011872D01*
X018498Y011970D02*
X018610Y011970D01*
X018635Y012069D02*
X018498Y012069D01*
X018480Y012167D02*
X018676Y012167D01*
X018752Y012266D02*
X017900Y012266D01*
X017900Y012364D02*
X018859Y012364D01*
X018867Y012463D02*
X017900Y012463D01*
X017900Y012561D02*
X018754Y012561D01*
X018689Y012660D02*
X017900Y012660D01*
X017900Y012758D02*
X018649Y012758D01*
X018632Y012955D02*
X017900Y012955D01*
X017900Y012857D02*
X019100Y012857D01*
X019200Y012857D02*
X020150Y012857D01*
X020150Y012955D02*
X019668Y012955D01*
X019647Y013054D02*
X020150Y013054D01*
X020150Y013152D02*
X019605Y013152D01*
X019535Y013251D02*
X020150Y013251D01*
X020150Y013349D02*
X019414Y013349D01*
X019461Y013448D02*
X020150Y013448D01*
X020150Y013546D02*
X019560Y013546D01*
X019629Y013645D02*
X020150Y013645D01*
X020150Y013743D02*
X019669Y013743D01*
X019690Y013842D02*
X020150Y013842D01*
X020150Y013940D02*
X019690Y013940D01*
X019677Y014039D02*
X020150Y014039D01*
X020150Y014137D02*
X019636Y014137D01*
X019578Y014236D02*
X020150Y014236D01*
X020150Y014334D02*
X019480Y014334D01*
X019663Y014433D02*
X020150Y014433D01*
X020150Y014531D02*
X019690Y014531D01*
X019690Y014630D02*
X020150Y014630D01*
X020150Y014728D02*
X019690Y014728D01*
X019690Y014827D02*
X020150Y014827D01*
X020150Y014925D02*
X019690Y014925D01*
X019690Y015024D02*
X020150Y015024D01*
X020150Y015122D02*
X019690Y015122D01*
X019690Y015221D02*
X020150Y015221D01*
X020150Y015319D02*
X019690Y015319D01*
X018610Y014630D02*
X018226Y014630D01*
X018128Y014531D02*
X018610Y014531D01*
X018637Y014433D02*
X018029Y014433D01*
X017931Y014334D02*
X018820Y014334D01*
X018722Y014236D02*
X017895Y014236D01*
X017895Y014137D02*
X018664Y014137D01*
X018623Y014039D02*
X017895Y014039D01*
X017900Y013940D02*
X018610Y013940D01*
X018610Y013842D02*
X017900Y013842D01*
X017900Y013743D02*
X018631Y013743D01*
X018671Y013645D02*
X017900Y013645D01*
X017900Y013546D02*
X018740Y013546D01*
X018839Y013448D02*
X017900Y013448D01*
X017900Y013349D02*
X018886Y013349D01*
X018765Y013251D02*
X017900Y013251D01*
X017900Y013152D02*
X018695Y013152D01*
X018653Y013054D02*
X017900Y013054D01*
X019433Y012463D02*
X020150Y012463D01*
X020150Y012561D02*
X019546Y012561D01*
X019611Y012660D02*
X020150Y012660D01*
X020150Y012758D02*
X019651Y012758D01*
X019441Y012364D02*
X020150Y012364D01*
X020150Y012266D02*
X019548Y012266D01*
X019624Y012167D02*
X020150Y012167D01*
X020150Y012069D02*
X019665Y012069D01*
X019690Y011970D02*
X020150Y011970D01*
X020150Y011872D02*
X019690Y011872D01*
X019682Y011773D02*
X020150Y011773D01*
X020150Y011675D02*
X019641Y011675D01*
X019590Y011576D02*
X020150Y011576D01*
X020150Y011478D02*
X019491Y011478D01*
X019405Y011379D02*
X020150Y011379D01*
X020150Y011281D02*
X019533Y011281D01*
X019618Y011182D02*
X020150Y011182D01*
X020150Y011084D02*
X019658Y011084D01*
X019690Y010985D02*
X020150Y010985D01*
X020150Y010887D02*
X019690Y010887D01*
X019688Y010788D02*
X020150Y010788D01*
X020150Y010690D02*
X019647Y010690D01*
X019605Y010591D02*
X020150Y010591D01*
X020150Y010493D02*
X019506Y010493D01*
X019340Y010394D02*
X020150Y010394D01*
X008680Y010000D02*
X008620Y010000D01*
X008620Y010060D02*
X008358Y010060D01*
X008294Y010050D01*
X008233Y010030D01*
X008175Y010001D01*
X008123Y009963D01*
X008077Y009917D01*
X008039Y009865D01*
X008010Y009807D01*
X007990Y009746D01*
X007980Y009682D01*
X007980Y009680D01*
X008620Y009680D01*
X008620Y010060D01*
X008620Y009902D02*
X008680Y009902D01*
X008680Y009803D02*
X008620Y009803D01*
X008620Y009705D02*
X008680Y009705D01*
X008680Y009606D02*
X008620Y009606D01*
X008620Y009620D02*
X008620Y009240D01*
X008358Y009240D01*
X008294Y009250D01*
X008233Y009270D01*
X008175Y009299D01*
X008123Y009337D01*
X008077Y009383D01*
X008039Y009435D01*
X008010Y009493D01*
X007990Y009554D01*
X007980Y009618D01*
X007980Y009620D01*
X008620Y009620D01*
X008620Y009508D02*
X008680Y009508D01*
X008680Y009409D02*
X008620Y009409D01*
X008620Y009311D02*
X008680Y009311D01*
X008160Y009311D02*
X007645Y009311D01*
X007645Y009409D02*
X008058Y009409D01*
X008005Y009508D02*
X007645Y009508D01*
X007645Y009606D02*
X007982Y009606D01*
X007983Y009705D02*
X007645Y009705D01*
X007645Y009803D02*
X008009Y009803D01*
X008066Y009902D02*
X007645Y009902D01*
X007645Y010000D02*
X008174Y010000D01*
X008136Y010296D02*
X007645Y010296D01*
X007645Y010394D02*
X008038Y010394D01*
X007990Y010493D02*
X007645Y010493D01*
X007645Y010591D02*
X007960Y010591D01*
X007960Y010690D02*
X007645Y010690D01*
X007645Y010788D02*
X007982Y010788D01*
X008022Y010887D02*
X007645Y010887D01*
X007645Y010985D02*
X008117Y010985D01*
X008158Y011281D02*
X007645Y011281D01*
X007645Y011379D02*
X008053Y011379D01*
X007996Y011478D02*
X007645Y011478D01*
X007645Y011576D02*
X007960Y011576D01*
X007960Y011675D02*
X007645Y011675D01*
X007645Y011773D02*
X007975Y011773D01*
X008016Y011872D02*
X007645Y011872D01*
X007645Y011970D02*
X008102Y011970D01*
X005655Y009409D02*
X005488Y009409D01*
X005498Y009311D02*
X005655Y009311D01*
X005655Y009212D02*
X005498Y009212D01*
X005498Y009114D02*
X005655Y009114D01*
X005655Y009015D02*
X005498Y009015D01*
X005498Y008917D02*
X005655Y008917D01*
X007645Y008917D02*
X008048Y008917D01*
X007994Y008818D02*
X007645Y008818D01*
X007645Y008720D02*
X007960Y008720D01*
X007960Y008621D02*
X007645Y008621D01*
X007645Y008523D02*
X007977Y008523D01*
X008018Y008424D02*
X007645Y008424D01*
X007645Y008326D02*
X008106Y008326D01*
X008147Y009015D02*
X007645Y009015D01*
M02*
