G75*
%MOIN*%
%OFA0B0*%
%FSLAX24Y24*%
%IPPOS*%
%LPD*%
%AMOC8*
5,1,8,0,0,1.08239X$1,22.5*
%
%ADD10R,0.0780X0.0780*%
%ADD11C,0.0780*%
%ADD12C,0.0560*%
%ADD13C,0.0555*%
%ADD14C,0.1162*%
%ADD15C,0.0640*%
%ADD16OC8,0.0560*%
%ADD17OC8,0.0560*%
%ADD18OC8,0.0690*%
%ADD19R,0.0690X0.0690*%
%ADD20C,0.0690*%
D10*
X000650Y004150D03*
X000650Y009150D03*
X000650Y014150D03*
X019150Y014900D03*
X019150Y009150D03*
X019150Y004150D03*
D11*
X000650Y001150D03*
X000650Y002150D03*
X000650Y003150D03*
X000650Y006150D03*
X000650Y007150D03*
X000650Y008150D03*
X000650Y011150D03*
X000650Y012150D03*
X000650Y013150D03*
X019150Y012900D03*
X019150Y011900D03*
X019150Y010900D03*
X019150Y008150D03*
X019150Y007150D03*
X019150Y006150D03*
X019150Y003150D03*
X019150Y002150D03*
X019150Y001150D03*
X019150Y013900D03*
D12*
X012910Y013650D02*
X012390Y013650D01*
X012390Y012650D02*
X012910Y012650D01*
X012910Y011650D02*
X012390Y011650D01*
X012390Y010650D02*
X012910Y010650D01*
X012910Y009650D02*
X012390Y009650D01*
X012390Y008650D02*
X012910Y008650D01*
X012910Y007650D02*
X012390Y007650D01*
X012390Y006650D02*
X012910Y006650D01*
X012910Y005650D02*
X012390Y005650D01*
X012390Y004650D02*
X012910Y004650D01*
X012910Y003650D02*
X012390Y003650D01*
X012390Y002650D02*
X012910Y002650D01*
X008910Y002650D02*
X008390Y002650D01*
X008390Y003650D02*
X008910Y003650D01*
X008910Y004650D02*
X008390Y004650D01*
X008390Y005650D02*
X008910Y005650D01*
X008910Y006650D02*
X008390Y006650D01*
X008390Y007650D02*
X008910Y007650D01*
X008910Y008650D02*
X008390Y008650D01*
X008390Y009650D02*
X008910Y009650D01*
X008910Y010650D02*
X008390Y010650D01*
X008390Y011650D02*
X008910Y011650D01*
X008910Y012650D02*
X008390Y012650D01*
X008390Y013650D02*
X008910Y013650D01*
X008910Y014650D02*
X008390Y014650D01*
X008390Y015650D02*
X008910Y015650D01*
X012390Y015650D02*
X012910Y015650D01*
X012910Y014650D02*
X012390Y014650D01*
D13*
X017200Y016550D03*
X017570Y017170D03*
X018260Y017170D03*
X018570Y016550D03*
X017900Y016550D03*
D14*
X016463Y018650D03*
X019337Y018650D03*
D15*
X016450Y005400D02*
X015850Y005400D01*
X015850Y004400D02*
X016450Y004400D01*
X016450Y003400D02*
X015850Y003400D01*
D16*
X010650Y018150D03*
X010650Y019150D03*
X008150Y019150D03*
X008150Y018150D03*
X002650Y018150D03*
X002650Y019150D03*
D17*
X003650Y010650D03*
X003650Y009650D03*
X003650Y008650D03*
D18*
X003748Y003150D03*
X006150Y003150D03*
X008650Y001025D03*
X011052Y001025D03*
D19*
X015150Y010650D03*
D20*
X016150Y010650D03*
M02*
