%
M48
M72
T01C0.0236
T02C0.0276
T03C0.0315
T04C0.0320
T05C0.0320
T06C0.0400
T07C0.0433
T08C0.0748
%
T01
X2650Y3150
X1900Y4150
X2650Y5150
X3650Y5150
X5150Y5900
X5900Y5150
X5900Y4650
X4650Y3150
X4650Y650
X7400Y1150
X9650Y3650
X10150Y2650
X10650Y2150
X11400Y3900
X11150Y4900
X11650Y5650
X10150Y6150
X10150Y6650
X9650Y7150
X10150Y8150
X9900Y9150
X9900Y10650
X9900Y11650
X9900Y13150
X9900Y13650
X11150Y15150
X10650Y15650
X9900Y16400
X11650Y14150
X13900Y16400
X14400Y16980
X13900Y17650
X15150Y15650
X14400Y14900
X15150Y13900
X17150Y14900
X18150Y11900
X17150Y9650
X18150Y9150
X15400Y7650
X13900Y8650
X14400Y5400
X14900Y4900
X14150Y4650
X13650Y3650
X14900Y2650
X14150Y1650
X13650Y2150
X17650Y5650
X7400Y13650
X6650Y14650
X5150Y13650
X4400Y12650
X3650Y11650
X2650Y13150
X1900Y13650
X1900Y11150
X4400Y9150
X5150Y9150
X6650Y9150
X5150Y11150
X1900Y6400
X1900Y16400
X5900Y18150
X6400Y16900
T02
X15150Y10650
X16150Y10650
T03
X17200Y16550
X17570Y17170
X18260Y17170
X18570Y16550
X17900Y16550
T04
X10650Y18150
X10650Y19150
X8150Y19150
X8150Y18150
X2650Y18150
X2650Y19150
T05
X8650Y15650
X8650Y14650
X8650Y13650
X8650Y12650
X8650Y11650
X8650Y10650
X8650Y9650
X8650Y8650
X8650Y7650
X8650Y6650
X8650Y5650
X8650Y4650
X8650Y3650
X8650Y2650
X12650Y2650
X12650Y3650
X12650Y4650
X12650Y5650
X12650Y6650
X12650Y7650
X12650Y8650
X12650Y9650
X12650Y10650
X12650Y11650
X12650Y12650
X12650Y13650
X12650Y14650
X12650Y15650
X3650Y10650
X3650Y9650
X3650Y8650
T06
X650Y1150
X650Y2150
X650Y3150
X650Y4150
X650Y6150
X650Y7150
X650Y8150
X650Y9150
X650Y11150
X650Y12150
X650Y13150
X650Y14150
X16150Y5400
X16150Y4400
X16150Y3400
X19150Y3150
X19150Y2150
X19150Y1150
X19150Y4150
X19150Y6150
X19150Y7150
X19150Y8150
X19150Y9150
X19150Y10900
X19150Y11900
X19150Y12900
X19150Y13900
X19150Y14900
T07
X6150Y3150
X3748Y3150
X8650Y1025
X11052Y1025
T08
X16463Y18650
X19337Y18650
M30
