  0
SECTION
  2
HEADER
  9
$ACADVER
  1
AC1009
  9
$DWGCODEPAGE
  3
undefined
  9
$INSBASE
 10
0.0
 20
0.0
 30
0.0
  9
$EXTMIN
 10
1.000000000000000E+20
 20
1.000000000000000E+20
 30
1.000000000000000E+20
  9
$EXTMAX
 10
-1.000000000000000E+20
 20
-1.000000000000000E+20
 30
-1.000000000000000E+20
  9
$LIMMIN
 10
0.0
 20
0.0
  9
$LIMMAX
 10
12.0
 20
9.0
  9
$ORTHOMODE
 70
     0
  9
$REGENMODE
 70
     1
  9
$FILLMODE
 70
     1
  9
$QTEXTMODE
 70
     0
  9
$MIRRTEXT
 70
     1
  9
$DRAGMODE
 70
     2
  9
$LTSCALE
 40
1.0
  9
$OSMODE
 70
    37
  9
$ATTMODE
 70
     1
  9
$TEXTSIZE
 40
0.2
  9
$TRACEWID
 40
0.05
  9
$TEXTSTYLE
  7
STANDARD
  9
$CLAYER
  8
0
  9
$CELTYPE
  6
BYLAYER
  9
$CECOLOR
 62
   256
  9
$DIMSCALE
 40
1.0
  9
$DIMASZ
 40
0.18
  9
$DIMEXO
 40
0.0625
  9
$DIMDLI
 40
0.38
  9
$DIMRND
 40
0.0
  9
$DIMDLE
 40
0.0
  9
$DIMEXE
 40
0.18
  9
$DIMTP
 40
0.0
  9
$DIMTM
 40
0.0
  9
$DIMTXT
 40
0.18
  9
$DIMCEN
 40
0.09
  9
$DIMTSZ
 40
0.0
  9
$DIMTOL
 70
     0
  9
$DIMLIM
 70
     0
  9
$DIMTIH
 70
     1
  9
$DIMTOH
 70
     1
  9
$DIMSE1
 70
     0
  9
$DIMSE2
 70
     0
  9
$DIMTAD
 70
     0
  9
$DIMZIN
 70
     0
  9
$DIMBLK
  1

  9
$DIMASO
 70
     1
  9
$DIMSHO
 70
     1
  9
$DIMPOST
  1

  9
$DIMAPOST
  1

  9
$DIMALT
 70
     0
  9
$DIMALTD
 70
     2
  9
$DIMALTF
 40
25.4
  9
$DIMLFAC
 40
1.0
  9
$DIMTOFL
 70
     0
  9
$DIMTVP
 40
0.0
  9
$DIMTIX
 70
     0
  9
$DIMSOXD
 70
     0
  9
$DIMSAH
 70
     0
  9
$DIMBLK1
  1

  9
$DIMBLK2
  1

  9
$DIMSTYLE
  2
STANDARD
  9
$DIMCLRD
 70
     0
  9
$DIMCLRE
 70
     0
  9
$DIMCLRT
 70
     0
  9
$DIMTFAC
 40
1.0
  9
$DIMGAP
 40
0.09
  9
$LUNITS
 70
     2
  9
$LUPREC
 70
     4
  9
$SKETCHINC
 40
0.1
  9
$FILLETRAD
 40
0.5
  9
$AUNITS
 70
     0
  9
$AUPREC
 70
     0
  9
$MENU
  1
.
  9
$ELEVATION
 40
0.0
  9
$PELEVATION
 40
0.0
  9
$THICKNESS
 40
0.0
  9
$LIMCHECK
 70
     0
  9
$CHAMFERA
 40
0.0
  9
$CHAMFERB
 40
0.0
  9
$SKPOLY
 70
     0
  9
$TDCREATE
 40
2457162.13494213
  9
$TDUPDATE
 40
2457162.13494213
  9
$TDINDWG
 40
0.0000000116
  9
$TDUSRTIMER
 40
0.0000000116
  9
$USRTIMER
 70
     1
  9
$ANGBASE
 50
0.0
  9
$ANGDIR
 70
     0
  9
$PDMODE
 70
     0
  9
$PDSIZE
 40
0.0
  9
$PLINEWID
 40
0.0
  9
$COORDS
 70
     1
  9
$SPLFRAME
 70
     0
  9
$SPLINETYPE
 70
     6
  9
$SPLINESEGS
 70
     8
  9
$ATTDIA
 70
     0
  9
$ATTREQ
 70
     1
  9
$HANDLING
 70
     1
  9
$HANDSEED
  5
1000017B
  9
$SURFTAB1
 70
     6
  9
$SURFTAB2
 70
     6
  9
$SURFTYPE
 70
     6
  9
$SURFU
 70
     6
  9
$SURFV
 70
     6
  9
$UCSNAME
  2

  9
$UCSORG
 10
0.0
 20
0.0
 30
0.0
  9
$UCSXDIR
 10
1.0
 20
0.0
 30
0.0
  9
$UCSYDIR
 10
0.0
 20
1.0
 30
0.0
  9
$PUCSNAME
  2

  9
$PUCSORG
 10
0.0
 20
0.0
 30
0.0
  9
$PUCSXDIR
 10
1.0
 20
0.0
 30
0.0
  9
$PUCSYDIR
 10
0.0
 20
1.0
 30
0.0
  9
$USERI1
 70
     0
  9
$USERI2
 70
     0
  9
$USERI3
 70
     0
  9
$USERI4
 70
     0
  9
$USERI5
 70
     0
  9
$USERR1
 40
0.0
  9
$USERR2
 40
0.0
  9
$USERR3
 40
0.0
  9
$USERR4
 40
0.0
  9
$USERR5
 40
0.0
  9
$WORLDVIEW
 70
     1
  9
$SHADEDGE
 70
     3
  9
$SHADEDIF
 70
    70
  9
$TILEMODE
 70
     1
  9
$MAXACTVP
 70
    64
  9
$PLIMCHECK
 70
     0
  9
$PEXTMIN
 10
1.000000000000000E+20
 20
1.000000000000000E+20
 30
1.000000000000000E+20
  9
$PEXTMAX
 10
-1.000000000000000E+20
 20
-1.000000000000000E+20
 30
-1.000000000000000E+20
  9
$PLIMMIN
 10
0.0
 20
0.0
  9
$PLIMMAX
 10
12.0
 20
9.0
  9
$UNITMODE
 70
     0
  9
$VISRETAIN
 70
     1
  9
$PLINEGEN
 70
     0
  9
$PSLTSCALE
 70
     1
  0
ENDSEC
  0
SECTION
  2
TABLES
  0
TABLE
  2
VPORT
 70
     1
  0
VPORT
  2
*ACTIVE
 70
     0
 10
0.0
 20
0.0
 11
1.0
 21
1.0
 12
10.42990654205607
 22
4.5
 13
0.0
 23
0.0
 14
0.5
 24
0.5
 15
0.5
 25
0.5
 16
0.0
 26
0.0
 36
1.0
 17
0.0
 27
0.0
 37
0.0
 40
9.0
 41
1.972972972850329
 42
50.0
 43
0.0
 44
0.0
 50
0.0
 51
0.0
 71
     0
 72
   100
 73
     1
 74
     3
 75
     0
 76
     0
 77
     0
 78
     0
  0
ENDTAB
  0
TABLE
  2
LTYPE
 70
     5
  0
LTYPE
  2
CONTINUOUS
 70
     0
  3
Solid line
 72
    65
 73
     0
 40
0.0
  0
LTYPE
  2
HIDDEN
 70
     0
  3
Hidden line ____ ____ ____ ____ 
 72
    83
 73
     2
 40
0.125
 49
0.25
 49
-0.125
  0
LTYPE
  2
PHANTOM
 70
     0
  3
Phantom line ______  __  __  ______  __  __
 72
    83
 73
     6
 40
0.5
 49
0.625
 49
-0.125
 49
0.125
 49
-0.125
 49
0.125
 49
-0.125
  0
LTYPE
  2
CENTER
 70
     0
  3
Center line ____ _ ____ _ ____ _
 72
    83
 73
     4
 40
0.5
 49
0.625
 49
-0.125
 49
0.125
 49
-0.125
  0
LTYPE
  2
DASHED
 70
     0
  3
Dashed line __ __ __ __
 72
    83
 73
     2
 40
0.25
 49
0.5
 49
-0.25
  0
ENDTAB
  0
TABLE
  2
LAYER
 70
     5
  0
LAYER
  2
0
 70
     0
 62
     7
  6
CONTINUOUS
  0
LAYER
  2
HIDDEN
 70
     0
 62
    -7
  6
HIDDEN
  0
LAYER
  2
VISIBLE
 70
     0
 62
     7
  6
CONTINUOUS
  0
LAYER
  2
TANGENT_LINES
 70
     0
 62
     7
  6
CONTINUOUS
  0
LAYER
  2
INVISIBLE_LINES
 70
     0
 62
    -7
  6
CONTINUOUS
  0
ENDTAB
  0
TABLE
  2
STYLE
 70
     2
  0
STYLE
  2
STANDARD
 70
     0
 40
0.0
 41
1.0
 50
0.0
 71
     0
 42
0.2
  3
txt
  4

  0
STYLE
  2
ODATTFSTYLE
 70
     0
 40
0.0
 41
1.0
 50
0.0
 71
     0
 42
0.2
  3
Verdana.ttf
  4

  0
ENDTAB
  0
TABLE
  2
VIEW
 70
     0
  0
ENDTAB
  0
TABLE
  2
UCS
 70
     0
  0
ENDTAB
  0
TABLE
  2
APPID
 70
     1
  0
APPID
  2
ACAD
 70
     0
  0
ENDTAB
  0
TABLE
  2
DIMSTYLE
 70
     1
  0
DIMSTYLE
  2
STANDARD
 70
     0
  3

  4

  5

  6

  7

 40
1.0
 41
0.18
 42
0.0625
 43
0.38
 44
0.18
 45
0.0
 46
0.0
 47
0.0
 48
0.0
140
0.18
141
0.09
142
0.0
143
25.4
144
1.0
145
0.0
146
1.0
147
0.09
 71
     0
 72
     0
 73
     1
 74
     1
 75
     0
 76
     0
 77
     0
 78
     0
170
     0
171
     2
172
     0
173
     0
174
     0
175
     0
176
     0
177
     0
178
     0
  0
ENDTAB
  0
ENDSEC
  0
SECTION
  2
BLOCKS
  0
BLOCK
  8
0
  2
$MODEL_SPACE
 70
     0
 10
0.0
 20
0.0
 30
0.0
  3
$MODEL_SPACE
  1

  0
ENDBLK
  5
21
  8
0
  0
BLOCK
 67
     1
  8
0
  2
$PAPER_SPACE
 70
     0
 10
0.0
 20
0.0
 30
0.0
  3
$PAPER_SPACE
  1

  0
ENDBLK
  5
1D
 67
     1
  8
0
  0
ENDSEC
  0
SECTION
  2
ENTITIES
  0
LINE
  5
F4514
  8
VISIBLE
 10
-0.8751133858267717
 20
-1.425003543307087
 30
0.0
 11
-0.3001133858267715
 21
-1.500003543307087
 31
0.0
  0
LINE
  5
F4515
  8
VISIBLE
 10
0.2999370078740158
 20
-0.8500019685039372
 30
0.0
 11
-0.0000629921259842
 21
-0.8500019685039372
 31
0.0
  0
LINE
  5
F4516
  8
VISIBLE
 10
0.2999244094488189
 20
-0.9500023622047248
 30
0.0
 11
-0.0000755905511811
 21
-0.9500023622047248
 31
0.0
  0
LINE
  5
F4517
  8
VISIBLE
 10
-0.3000881889763778
 20
-1.050002755905512
 30
0.0
 11
-0.875088188976378
 21
-1.125002755905512
 31
0.0
  0
LINE
  5
F4518
  8
VISIBLE
 10
-0.3001007874015748
 20
-1.3500031496063
 30
0.0
 11
-0.0001007874015748
 21
-1.3500031496063
 31
0.0
  0
LINE
  5
F4519
  8
VISIBLE
 10
0.2999622047244095
 20
-0.6000011811023623
 30
0.0
 11
-0.0000377952755905
 21
-0.6000011811023623
 31
0.0
  0
LINE
  5
F451A
  8
VISIBLE
 10
0.2999748031496064
 20
-0.300000787401575
 30
0.0
 11
0.8749748031496064
 21
-0.3750007874015751
 31
0.0
  0
LINE
  5
F451B
  8
VISIBLE
 10
-0.3000125984251968
 20
-0.2000003937007875
 30
0.0
 11
-0.0000125984251968
 21
-0.2000003937007875
 31
0.0
  0
LINE
  5
F451C
  8
VISIBLE
 10
0.4916666666666666
 20
-0.075
 30
0.0
 11
0.2999999999999999
 21
-0.0999999999999999
 31
0.0
  0
CIRCLE
  5
F451D
  8
VISIBLE
 10
-0.9375
 20
1.0
 30
0.0
 40
0.07
  0
LINE
  5
F451E
  8
VISIBLE
 10
-0.3001133858267716
 20
-1.400003543307087
 30
0.0
 11
-0.0001133858267716
 21
-1.400003543307087
 31
0.0
  0
LINE
  5
F451F
  8
VISIBLE
 10
0.2999370078740156
 20
-0.8000019685039372
 30
0.0
 11
0.4916036745406823
 21
-0.8250019685039373
 31
0.0
  0
LINE
  5
F4520
  8
VISIBLE
 10
0.874924409448819
 20
-0.9750023622047249
 30
0.0
 11
0.2999244094488187
 21
-1.050002362204725
 31
0.0
  0
LINE
  5
F4521
  8
VISIBLE
 10
-0.4917548556430445
 20
-1.125002755905512
 30
0.0
 11
-0.3000881889763778
 21
-1.150002755905512
 31
0.0
  0
LINE
  5
F4522
  8
VISIBLE
 10
-0.3001007874015748
 20
-1.3000031496063
 30
0.0
 11
-0.0001007874015748
 21
-1.3000031496063
 31
0.0
  0
LINE
  5
F4523
  8
VISIBLE
 10
0.3
 20
-0.1499999999999999
 30
0.0
 11
0.0
 21
-0.15
 31
0.0
  0
LINE
  5
F4524
  8
VISIBLE
 10
-0.3000125984251966
 20
-0.2000003937007874
 30
0.0
 11
-0.4916792650918634
 21
-0.2250003937007874
 31
0.0
  0
LINE
  5
F4525
  8
VISIBLE
 10
0.2999748031496063
 20
-0.4500007874015749
 30
0.0
 11
-0.0000251968503937
 21
-0.4500007874015749
 31
0.0
  0
LINE
  5
F4526
  8
VISIBLE
 10
0.491628871391076
 20
-0.5250011811023624
 30
0.0
 11
0.2999622047244093
 21
-0.5500011811023623
 31
0.0
  0
LINE
  5
F4527
  8
VISIBLE
 10
-1.0
 20
0.7500000000000002
 30
0.0
 11
-1.0
 21
1.0
 31
0.0
  0
LINE
  5
F4528
  8
VISIBLE
 10
0.2999874015748032
 20
-0.1500003937007875
 30
0.0
 11
0.8749874015748031
 21
-0.2250003937007875
 31
0.0
  0
LINE
  5
F4529
  8
VISIBLE
 10
0.3000000000000001
 20
0.0
 30
0.0
 11
0.8750000000000001
 21
-0.0750000000000001
 31
0.0
  0
LINE
  5
F452A
  8
VISIBLE
 10
0.2999496062992126
 20
-0.7000015748031497
 30
0.0
 11
-0.0000503937007874
 21
-0.7000015748031497
 31
0.0
  0
LINE
  5
F452B
  8
VISIBLE
 10
0.4916414698162729
 20
-0.3750007874015749
 30
0.0
 11
0.2999748031496062
 21
-0.4000007874015749
 31
0.0
  0
LINE
  5
F452C
  8
VISIBLE
 10
-0.8750000000000001
 20
0.7500000000000002
 30
0.0
 11
-1.0
 21
0.7500000000000002
 31
0.0
  0
LINE
  5
F452D
  8
VISIBLE
 10
-0.3001133858267715
 20
-1.400003543307087
 30
0.0
 11
-0.4917800524934381
 21
-1.425003543307087
 31
0.0
  0
LINE
  5
F452E
  8
VISIBLE
 10
-0.300075590551181
 20
-0.9000023622047247
 30
0.0
 11
-0.8750755905511811
 21
-0.9750023622047248
 31
0.0
  0
LINE
  5
F452F
  8
VISIBLE
 10
0.2999370078740158
 20
-0.8000019685039372
 30
0.0
 11
-0.0000629921259842
 21
-0.8000019685039372
 31
0.0
  0
LINE
  5
F4530
  8
VISIBLE
 10
-0.8751007874015748
 20
-1.2750031496063
 30
0.0
 11
-0.3001007874015747
 21
-1.3500031496063
 31
0.0
  0
LINE
  5
F4531
  8
VISIBLE
 10
-0.3000881889763779
 20
-1.200002755905512
 30
0.0
 11
-0.0000881889763779
 21
-1.200002755905512
 31
0.0
  0
LINE
  5
F4532
  8
VISIBLE
 10
-0.2999999999999998
 20
-0.0499999999999999
 30
0.0
 11
-0.4916666666666666
 21
-0.075
 31
0.0
  0
LINE
  5
F4533
  8
VISIBLE
 10
-0.3000125984251968
 20
-0.1500003937007874
 30
0.0
 11
-0.875012598425197
 21
-0.2250003937007875
 31
0.0
  0
LINE
  5
F4534
  8
VISIBLE
 10
-0.3000251968503937
 20
-0.4500007874015749
 30
0.0
 11
-0.0000251968503937
 21
-0.4500007874015749
 31
0.0
  0
LINE
  5
F4535
  8
VISIBLE
 10
-0.3000377952755905
 20
-0.5500011811023623
 30
0.0
 11
-0.0000377952755905
 21
-0.5500011811023623
 31
0.0
  0
LINE
  5
F4536
  8
VISIBLE
 10
-0.3000503937007874
 20
-0.6500015748031498
 30
0.0
 11
-0.0000503937007874
 21
-0.6500015748031498
 31
0.0
  0
LINE
  5
F4537
  8
VISIBLE
 10
0.2999370078740158
 20
-0.7500019685039373
 30
0.0
 11
0.874937007874016
 21
-0.8250019685039373
 31
0.0
  0
LINE
  5
F4538
  8
VISIBLE
 10
0.4915910761154855
 20
-0.9750023622047248
 30
0.0
 11
0.2999244094488188
 21
-1.000002362204725
 31
0.0
  0
LINE
  5
F4539
  8
VISIBLE
 10
0.8748866141732285
 20
-1.425003543307087
 30
0.0
 11
0.2998866141732281
 21
-1.500003543307087
 31
0.0
  0
LINE
  5
F453A
  8
VISIBLE
 10
0.299899212598425
 20
-1.2500031496063
 30
0.0
 11
0.4915658792650918
 21
-1.2750031496063
 31
0.0
  0
LINE
  5
F453B
  8
VISIBLE
 10
0.8748992125984253
 20
-1.2750031496063
 30
0.0
 11
0.299899212598425
 21
-1.3500031496063
 31
0.0
  0
LINE
  5
F453C
  8
VISIBLE
 10
0.2999118110236219
 20
-1.100002755905512
 30
0.0
 11
0.4915784776902887
 21
-1.125002755905512
 31
0.0
  0
LINE
  5
F453D
  8
VISIBLE
 10
0.4916036745406823
 20
-0.8250019685039373
 30
0.0
 11
0.2999370078740156
 21
-0.8500019685039373
 31
0.0
  0
LINE
  5
F453E
  8
VISIBLE
 10
0.2999496062992127
 20
-0.6000015748031499
 30
0.0
 11
0.8749496062992127
 21
-0.6750015748031499
 31
0.0
  0
LINE
  5
F453F
  8
VISIBLE
 10
-0.4917800524934381
 20
-1.425003543307087
 30
0.0
 11
-0.3001133858267714
 21
-1.450003543307087
 31
0.0
  0
LINE
  5
F4540
  8
VISIBLE
 10
-0.8750251968503939
 20
-0.3750007874015749
 30
0.0
 11
-0.3000251968503934
 21
-0.4500007874015749
 31
0.0
  0
LINE
  5
F4541
  8
VISIBLE
 10
-0.3000377952755905
 20
-0.5000011811023624
 30
0.0
 11
-0.0000377952755905
 21
-0.5000011811023624
 31
0.0
  0
LINE
  5
F4542
  8
VISIBLE
 10
-0.3
 20
-0.05
 30
0.0
 11
0.0
 21
-0.05
 31
0.0
  0
LINE
  5
F4543
  8
VISIBLE
 10
-0.3000125984251968
 20
-0.3000003937007874
 30
0.0
 11
-0.0000125984251968
 21
-0.3000003937007874
 31
0.0
  0
LINE
  5
F4544
  8
VISIBLE
 10
-0.8750000000000001
 20
-0.0750000000000001
 30
0.0
 11
-0.2999999999999998
 21
-0.15
 31
0.0
  0
LINE
  5
F4545
  8
VISIBLE
 10
-0.4916918635170602
 20
-0.3750007874015749
 30
0.0
 11
-0.3000251968503936
 21
-0.4000007874015749
 31
0.0
  0
LINE
  5
F4546
  8
VISIBLE
 10
0.8749874015748031
 20
-0.2250003937007876
 30
0.0
 11
0.2999874015748028
 21
-0.3000003937007875
 31
0.0
  0
LINE
  5
F4547
  8
VISIBLE
 10
-0.3000377952755905
 20
-0.6000011811023623
 30
0.0
 11
-0.0000377952755905
 21
-0.6000011811023623
 31
0.0
  0
LINE
  5
F4548
  8
VISIBLE
 10
-0.8750503937007875
 20
-0.6750015748031499
 30
0.0
 11
-0.3000503937007871
 21
-0.7500015748031498
 31
0.0
  0
LINE
  5
F4549
  8
VISIBLE
 10
-0.300062992125984
 20
-0.8000019685039371
 30
0.0
 11
-0.4917296587926508
 21
-0.8250019685039371
 31
0.0
  0
LINE
  5
F454A
  8
VISIBLE
 10
0.2999244094488189
 20
-1.050002362204725
 30
0.0
 11
-0.0000755905511811
 21
-1.050002362204725
 31
0.0
  0
LINE
  5
F454B
  8
VISIBLE
 10
0.2998992125984253
 20
-1.3000031496063
 30
0.0
 11
-0.0001007874015748
 21
-1.3000031496063
 31
0.0
  0
LINE
  5
F454C
  8
VISIBLE
 10
0.2998866141732284
 20
-1.400003543307087
 30
0.0
 11
-0.0001133858267716
 21
-1.400003543307087
 31
0.0
  0
LINE
  5
F454D
  8
VISIBLE
 10
-0.3000125984251968
 20
-0.2500003937007874
 30
0.0
 11
-0.0000125984251968
 21
-0.2500003937007874
 31
0.0
  0
LINE
  5
F454E
  8
VISIBLE
 10
-0.3
 20
-0.0999999999999999
 30
0.0
 11
0.0
 21
-0.0999999999999999
 31
0.0
  0
LINE
  5
F454F
  8
VISIBLE
 10
-0.3000377952755903
 20
-0.5000011811023624
 30
0.0
 11
-0.4917044619422571
 21
-0.5250011811023624
 31
0.0
  0
LINE
  5
F4550
  8
VISIBLE
 10
-0.3000251968503937
 20
-0.350000787401575
 30
0.0
 11
-0.0000251968503937
 21
-0.350000787401575
 31
0.0
  0
LINE
  5
F4551
  8
VISIBLE
 10
0.2999244094488189
 20
-1.000002362204725
 30
0.0
 11
-0.0000755905511811
 21
-1.000002362204725
 31
0.0
  0
LINE
  5
F4552
  8
VISIBLE
 10
0.2999496062992126
 20
-0.7500015748031498
 30
0.0
 11
-0.0000503937007874
 21
-0.7500015748031498
 31
0.0
  0
LINE
  5
F4553
  8
VISIBLE
 10
-0.3001007874015747
 20
-1.2000031496063
 30
0.0
 11
-0.8751007874015748
 21
-1.2750031496063
 31
0.0
  0
LINE
  5
F4554
  8
VISIBLE
 10
0.2999118110236221
 20
-1.100002755905512
 30
0.0
 11
-0.0000881889763779
 21
-1.100002755905512
 31
0.0
  0
LINE
  5
F4555
  8
VISIBLE
 10
-0.3001133858267716
 20
-1.500003543307087
 30
0.0
 11
-0.0001133858267716
 21
-1.500003543307087
 31
0.0
  0
LINE
  5
F4556
  8
VISIBLE
 10
-0.3
 20
-0.1499999999999999
 30
0.0
 11
0.0
 21
-0.1499999999999999
 31
0.0
  0
LINE
  5
F4557
  8
VISIBLE
 10
-0.8750125984251972
 20
-0.2250003937007875
 30
0.0
 11
-0.3000125984251967
 21
-0.3000003937007875
 31
0.0
  0
LINE
  5
F4558
  8
VISIBLE
 10
-0.3000251968503935
 20
-0.3500007874015749
 30
0.0
 11
-0.4916918635170602
 21
-0.3750007874015749
 31
0.0
  0
LINE
  5
F4559
  8
VISIBLE
 10
0.2999622047244095
 20
-0.4500011811023624
 30
0.0
 11
0.8749622047244097
 21
-0.5250011811023624
 31
0.0
  0
LINE
  5
F455A
  8
VISIBLE
 10
0.4916162729658792
 20
-0.6750015748031498
 30
0.0
 11
0.2999496062992124
 21
-0.7000015748031497
 31
0.0
  0
LINE
  5
F455B
  8
VISIBLE
 10
0.2999244094488187
 20
-0.9500023622047248
 30
0.0
 11
0.4915910761154855
 21
-0.9750023622047248
 31
0.0
  0
LINE
  5
F455C
  8
VISIBLE
 10
0.8749118110236223
 20
-1.125002755905512
 30
0.0
 11
0.2999118110236219
 21
-1.200002755905512
 31
0.0
  0
LINE
  5
F455D
  8
VISIBLE
 10
-0.4917674540682413
 20
-1.2750031496063
 30
0.0
 11
-0.3001007874015745
 21
-1.3000031496063
 31
0.0
  0
LINE
  5
F455E
  8
VISIBLE
 10
-0.3001133858267716
 20
-1.450003543307087
 30
0.0
 11
-0.0001133858267716
 21
-1.450003543307087
 31
0.0
  0
LINE
  5
F455F
  8
VISIBLE
 10
0.2999118110236221
 20
-1.150002755905512
 30
0.0
 11
-0.0000881889763779
 21
-1.150002755905512
 31
0.0
  0
LINE
  5
F4560
  8
VISIBLE
 10
0.2999370078740158
 20
-0.9000019685039372
 30
0.0
 11
-0.0000629921259842
 21
-0.9000019685039372
 31
0.0
  0
LINE
  5
F4561
  8
VISIBLE
 10
-0.3000503937007871
 20
-0.6500015748031498
 30
0.0
 11
-0.4917170603674539
 21
-0.6750015748031498
 31
0.0
  0
LINE
  5
F4562
  8
VISIBLE
 10
-0.8750377952755907
 20
-0.5250011811023624
 30
0.0
 11
-0.3000377952755903
 21
-0.6000011811023623
 31
0.0
  0
LINE
  5
F4563
  8
VISIBLE
 10
-0.3001133858267716
 20
-1.350003543307087
 30
0.0
 11
-0.8751133858267717
 21
-1.425003543307087
 31
0.0
  0
LINE
  5
F4564
  8
VISIBLE
 10
0.2998992125984253
 20
-1.2500031496063
 30
0.0
 11
-0.0001007874015748
 21
-1.2500031496063
 31
0.0
  0
LINE
  5
F4565
  8
VISIBLE
 10
-0.3000251968503937
 20
-0.4000007874015749
 30
0.0
 11
-0.0000251968503937
 21
-0.4000007874015749
 31
0.0
  0
LINE
  5
F4566
  8
VISIBLE
 10
-0.4916792650918634
 20
-0.2250003937007875
 30
0.0
 11
-0.3000125984251967
 21
-0.2500003937007874
 31
0.0
  0
LINE
  5
F4567
  8
VISIBLE
 10
-0.4916666666666666
 20
-0.075
 30
0.0
 11
-0.2999999999999999
 21
-0.0999999999999999
 31
0.0
  0
LINE
  5
F4568
  8
VISIBLE
 10
-0.4917170603674539
 20
-0.6750015748031499
 30
0.0
 11
-0.3000503937007872
 21
-0.7000015748031497
 31
0.0
  0
LINE
  5
F4569
  8
VISIBLE
 10
0.8749622047244097
 20
-0.5250011811023625
 30
0.0
 11
0.2999622047244092
 21
-0.6000011811023624
 31
0.0
  0
LINE
  5
F456A
  8
VISIBLE
 10
-0.300075590551181
 20
-0.9500023622047248
 30
0.0
 11
-0.0000755905511811
 21
-0.9500023622047248
 31
0.0
  0
LINE
  5
F456B
  8
VISIBLE
 10
-0.3000629921259843
 20
-0.8500019685039372
 30
0.0
 11
-0.0000629921259842
 21
-0.8500019685039372
 31
0.0
  0
CIRCLE
  5
F456C
  8
VISIBLE
 10
-0.9375
 20
1.0
 30
0.0
 40
0.07
210
0.0
220
0.0
230
-1.0
  0
LINE
  5
F456D
  8
VISIBLE
 10
0.2999748031496063
 20
-0.350000787401575
 30
0.0
 11
-0.0000251968503937
 21
-0.350000787401575
 31
0.0
  0
LINE
  5
F456E
  8
VISIBLE
 10
0.2999874015748032
 20
-0.2500003937007874
 30
0.0
 11
-0.0000125984251968
 21
-0.2500003937007874
 31
0.0
  0
LINE
  5
F456F
  8
VISIBLE
 10
0.2998866141732281
 20
-1.400003543307087
 30
0.0
 11
0.4915532808398949
 21
-1.425003543307087
 31
0.0
  0
LINE
  5
F4570
  8
VISIBLE
 10
0.4915784776902887
 20
-1.125002755905512
 30
0.0
 11
0.2999118110236219
 21
-1.150002755905512
 31
0.0
  0
LINE
  5
F4571
  8
VISIBLE
 10
0.299924409448819
 20
-0.9000023622047247
 30
0.0
 11
0.874924409448819
 21
-0.9750023622047248
 31
0.0
  0
LINE
  5
F4572
  8
VISIBLE
 10
-0.3000629921259843
 20
-0.8000019685039372
 30
0.0
 11
-0.0000629921259842
 21
-0.8000019685039372
 31
0.0
  0
LINE
  5
F4573
  8
VISIBLE
 10
-0.3000503937007874
 20
-0.7000015748031497
 30
0.0
 11
-0.0000503937007874
 21
-0.7000015748031497
 31
0.0
  0
LINE
  5
F4574
  8
VISIBLE
 10
-0.4917044619422571
 20
-0.5250011811023624
 30
0.0
 11
-0.3000377952755904
 21
-0.5500011811023623
 31
0.0
  0
LINE
  5
F4575
  8
VISIBLE
 10
-0.3000251968503936
 20
-0.3000007874015749
 30
0.0
 11
-0.8750251968503938
 21
-0.3750007874015751
 31
0.0
  0
LINE
  5
F4576
  8
VISIBLE
 10
0.2999874015748032
 20
-0.2000003937007874
 30
0.0
 11
-0.0000125984251968
 21
-0.2000003937007875
 31
0.0
  0
LINE
  5
F4577
  8
VISIBLE
 10
-0.2999999999999999
 20
0.0
 30
0.0
 11
-0.8750000000000001
 21
-0.0750000000000001
 31
0.0
  0
LINE
  5
F4578
  8
VISIBLE
 10
0.0
 20
0.0
 30
0.0
 11
-0.8750000000000001
 21
0.0
 31
0.0
  0
LINE
  5
F4579
  8
VISIBLE
 10
-0.2500000000000001
 20
1.875
 30
0.0
 11
-0.2500000000000001
 21
2.0
 31
0.0
  0
LINE
  5
F457A
  8
VISIBLE
 10
-0.8750000000000001
 20
0.0
 30
0.0
 11
-0.8750000000000001
 21
1.875
 31
0.0
  0
LINE
  5
F457B
  8
VISIBLE
 10
-0.2500000000000001
 20
2.0
 30
0.0
 11
0.0
 21
2.0
 31
0.0
  0
LINE
  5
F457C
  8
VISIBLE
 10
0.0
 20
0.0
 30
0.0
 11
0.0
 21
2.0
 31
0.0
  0
CIRCLE
  5
F457D
  8
VISIBLE
 10
0.0
 20
1.9375
 30
0.0
 40
0.07
  0
LINE
  5
F457E
  8
VISIBLE
 10
0.2500000000000001
 20
2.0
 30
0.0
 11
0.0
 21
2.0
 31
0.0
  0
LINE
  5
F457F
  8
VISIBLE
 10
-0.8750000000000001
 20
1.875
 30
0.0
 11
-0.2500000000000001
 21
1.875
 31
0.0
  0
LINE
  5
F4580
  8
VISIBLE
 10
0.8750000000000001
 20
1.875
 30
0.0
 11
0.2500000000000001
 21
1.875
 31
0.0
  0
LINE
  5
F4581
  8
VISIBLE
 10
0.2500000000000001
 20
1.875
 30
0.0
 11
0.2500000000000001
 21
2.0
 31
0.0
  0
LINE
  5
F4582
  8
VISIBLE
 10
0.0
 20
0.0
 30
0.0
 11
0.8750000000000001
 21
0.0
 31
0.0
  0
LINE
  5
F4583
  8
VISIBLE
 10
0.8750000000000001
 20
0.0
 30
0.0
 11
0.8750000000000001
 21
1.875
 31
0.0
  0
LINE
  5
F4584
  8
VISIBLE
 10
0.2999874015748029
 20
-0.2000003937007874
 30
0.0
 11
0.4916540682414697
 21
-0.2250003937007874
 31
0.0
  0
LINE
  5
F4585
  8
VISIBLE
 10
0.8749748031496064
 20
-0.3750007874015751
 30
0.0
 11
0.2999748031496061
 21
-0.4500007874015749
 31
0.0
  0
LINE
  5
F4586
  8
VISIBLE
 10
0.0
 20
0.0
 30
0.0
 11
-0.3
 21
0.0
 31
0.0
  0
LINE
  5
F4587
  8
VISIBLE
 10
0.2999118110236221
 20
-1.200002755905512
 30
0.0
 11
-0.0000881889763779
 21
-1.200002755905512
 31
0.0
  0
LINE
  5
F4588
  8
VISIBLE
 10
0.2998866141732284
 20
-1.450003543307087
 30
0.0
 11
-0.0001133858267716
 21
-1.450003543307087
 31
0.0
  0
LINE
  5
F4589
  8
VISIBLE
 10
-0.8750629921259843
 20
-0.8250019685039373
 30
0.0
 11
-0.300062992125984
 21
-0.9000019685039372
 31
0.0
  0
LINE
  5
F458A
  8
VISIBLE
 10
-0.3000755905511809
 20
-0.9500023622047247
 30
0.0
 11
-0.4917422572178476
 21
-0.9750023622047247
 31
0.0
  0
LINE
  5
F458B
  8
VISIBLE
 10
-0.3000377952755904
 20
-0.4500011811023624
 30
0.0
 11
-0.8750377952755906
 21
-0.5250011811023625
 31
0.0
  0
LINE
  5
F458C
  8
VISIBLE
 10
-0.3000503937007874
 20
-0.7500015748031498
 30
0.0
 11
-0.0000503937007874
 21
-0.7500015748031498
 31
0.0
  0
LINE
  5
F458D
  8
VISIBLE
 10
-0.8750000000000001
 20
1.25
 30
0.0
 11
-1.0
 21
1.25
 31
0.0
  0
LINE
  5
F458E
  8
VISIBLE
 10
-1.0
 20
1.25
 30
0.0
 11
-1.0
 21
1.0
 31
0.0
  0
LINE
  5
F458F
  8
VISIBLE
 10
0.4915658792650918
 20
-1.2750031496063
 30
0.0
 11
0.299899212598425
 21
-1.3000031496063
 31
0.0
  0
LINE
  5
F4590
  8
VISIBLE
 10
0.2999118110236222
 20
-1.050002755905512
 30
0.0
 11
0.8749118110236223
 21
-1.125002755905512
 31
0.0
  0
LINE
  5
F4591
  8
VISIBLE
 10
1.0
 20
0.7500000000000002
 30
0.0
 11
1.0
 21
1.0
 31
0.0
  0
LINE
  5
F4592
  8
VISIBLE
 10
0.2999622047244095
 20
-0.5500011811023623
 30
0.0
 11
-0.0000377952755905
 21
-0.5500011811023623
 31
0.0
  0
LINE
  5
F4593
  8
VISIBLE
 10
0.2999496062992126
 20
-0.6500015748031498
 30
0.0
 11
-0.0000503937007874
 21
-0.6500015748031498
 31
0.0
  0
LINE
  5
F4594
  8
VISIBLE
 10
0.8750000000000001
 20
-0.0750000000000001
 30
0.0
 11
0.2999999999999998
 21
-0.15
 31
0.0
  0
LINE
  5
F4595
  8
VISIBLE
 10
0.4916540682414697
 20
-0.2250003937007874
 30
0.0
 11
0.299987401574803
 21
-0.2500003937007874
 31
0.0
  0
LINE
  5
F4596
  8
VISIBLE
 10
-0.3001007874015746
 20
-1.2500031496063
 30
0.0
 11
-0.4917674540682413
 21
-1.2750031496063
 31
0.0
  0
LINE
  5
F4597
  8
VISIBLE
 10
-0.8750881889763781
 20
-1.125002755905512
 30
0.0
 11
-0.3000881889763776
 21
-1.200002755905512
 31
0.0
  0
LINE
  5
F4598
  8
VISIBLE
 10
-0.300075590551181
 20
-1.050002362204725
 30
0.0
 11
-0.0000755905511811
 21
-1.050002362204725
 31
0.0
  0
LINE
  5
F4599
  8
VISIBLE
 10
-0.3000629921259841
 20
-0.7500019685039373
 30
0.0
 11
-0.8750629921259843
 21
-0.8250019685039373
 31
0.0
  0
LINE
  5
F459A
  8
VISIBLE
 10
0.2998866141732284
 20
-1.500003543307087
 30
0.0
 11
-0.0001133858267716
 21
-1.500003543307087
 31
0.0
  0
LINE
  5
F459B
  8
VISIBLE
 10
1.0
 20
1.25
 30
0.0
 11
1.0
 21
1.0
 31
0.0
  0
LINE
  5
F459C
  8
VISIBLE
 10
0.2999496062992124
 20
-0.6500015748031498
 30
0.0
 11
0.4916162729658792
 21
-0.6750015748031498
 31
0.0
  0
LINE
  5
F459D
  8
VISIBLE
 10
0.3
 20
-0.05
 30
0.0
 11
0.0
 21
-0.05
 31
0.0
  0
LINE
  5
F459E
  8
VISIBLE
 10
0.2999874015748032
 20
-0.3000003937007873
 30
0.0
 11
-0.0000125984251968
 21
-0.3000003937007874
 31
0.0
  0
LINE
  5
F459F
  8
VISIBLE
 10
-0.3000881889763779
 20
-1.150002755905512
 30
0.0
 11
-0.0000881889763779
 21
-1.150002755905512
 31
0.0
  0
LINE
  5
F45A0
  8
VISIBLE
 10
-0.3001007874015748
 20
-1.2500031496063
 30
0.0
 11
-0.0001007874015748
 21
-1.2500031496063
 31
0.0
  0
LINE
  5
F45A1
  8
VISIBLE
 10
0.874937007874016
 20
-0.8250019685039374
 30
0.0
 11
0.2999370078740155
 21
-0.9000019685039373
 31
0.0
  0
LINE
  5
F45A2
  8
VISIBLE
 10
-0.4917422572178476
 20
-0.9750023622047248
 30
0.0
 11
-0.3000755905511809
 21
-1.000002362204725
 31
0.0
  0
LINE
  5
F45A3
  8
VISIBLE
 10
0.2998866141732285
 20
-1.350003543307087
 30
0.0
 11
0.8748866141732285
 21
-1.425003543307087
 31
0.0
  0
LINE
  5
F45A4
  8
VISIBLE
 10
-0.3000629921259843
 20
-0.9000019685039372
 30
0.0
 11
-0.0000629921259842
 21
-0.9000019685039372
 31
0.0
  0
LINE
  5
F45A5
  8
VISIBLE
 10
-0.8750755905511813
 20
-0.9750023622047248
 30
0.0
 11
-0.3000755905511808
 21
-1.050002362204725
 31
0.0
  0
LINE
  5
F45A6
  8
VISIBLE
 10
-0.3000881889763777
 20
-1.100002755905512
 30
0.0
 11
-0.4917548556430445
 21
-1.125002755905512
 31
0.0
  0
LINE
  5
F45A7
  8
VISIBLE
 10
0.2998992125984253
 20
-1.3500031496063
 30
0.0
 11
-0.0001007874015748
 21
-1.3500031496063
 31
0.0
  0
LINE
  5
F45A8
  8
VISIBLE
 10
0.8750000000000001
 20
1.25
 30
0.0
 11
1.0
 21
1.25
 31
0.0
  0
LINE
  5
F45A9
  8
VISIBLE
 10
0.2999999999999998
 20
-0.05
 30
0.0
 11
0.4916666666666666
 21
-0.075
 31
0.0
  0
LINE
  5
F45AA
  8
VISIBLE
 10
0.2999748031496061
 20
-0.3500007874015749
 30
0.0
 11
0.4916414698162729
 21
-0.3750007874015749
 31
0.0
  0
LINE
  5
F45AB
  8
VISIBLE
 10
0.2999622047244095
 20
-0.5000011811023624
 30
0.0
 11
-0.0000377952755905
 21
-0.5000011811023624
 31
0.0
  0
LINE
  5
F45AC
  8
VISIBLE
 10
-0.3000503937007873
 20
-0.6000015748031498
 30
0.0
 11
-0.8750503937007875
 21
-0.6750015748031498
 31
0.0
  0
LINE
  5
F45AD
  8
VISIBLE
 10
0.491553280839895
 20
-1.425003543307087
 30
0.0
 11
0.2998866141732281
 21
-1.450003543307087
 31
0.0
  0
LINE
  5
F45AE
  8
VISIBLE
 10
0.8750000000000001
 20
0.7500000000000002
 30
0.0
 11
1.0
 21
0.7500000000000002
 31
0.0
  0
LINE
  5
F45AF
  8
VISIBLE
 10
0.2999748031496063
 20
-0.4000007874015749
 30
0.0
 11
-0.0000251968503937
 21
-0.4000007874015749
 31
0.0
  0
LINE
  5
F45B0
  8
VISIBLE
 10
0.3
 20
-0.0999999999999999
 30
0.0
 11
0.0
 21
-0.0999999999999999
 31
0.0
  0
LINE
  5
F45B1
  8
VISIBLE
 10
0.8749496062992127
 20
-0.67500157480315
 30
0.0
 11
0.2999496062992124
 21
-0.7500015748031499
 31
0.0
  0
LINE
  5
F45B2
  8
VISIBLE
 10
0.2999622047244093
 20
-0.5000011811023624
 30
0.0
 11
0.491628871391076
 21
-0.5250011811023624
 31
0.0
  0
LINE
  5
F45B3
  8
VISIBLE
 10
-0.300075590551181
 20
-1.000002362204725
 30
0.0
 11
-0.0000755905511811
 21
-1.000002362204725
 31
0.0
  0
LINE
  5
F45B4
  8
VISIBLE
 10
-0.4917296587926508
 20
-0.8250019685039373
 30
0.0
 11
-0.3000629921259841
 21
-0.8500019685039372
 31
0.0
  0
LINE
  5
F45B5
  8
VISIBLE
 10
0.2998992125984253
 20
-1.2000031496063
 30
0.0
 11
0.8748992125984253
 21
-1.2750031496063
 31
0.0
  0
LINE
  5
F45B6
  8
VISIBLE
 10
-0.3000881889763779
 20
-1.100002755905512
 30
0.0
 11
-0.0000881889763779
 21
-1.100002755905512
 31
0.0
  0
ENDSEC
  0
EOF
